<svg xmlns="http://www.w3.org/2000/svg" width="172.713" height="34.909" viewBox="0 0 172.713 34.909">
  <g id="그룹_1549" data-name="그룹 1549" transform="translate(-3861.506 -3053.482)" opacity="0.84">
    <g id="그룹_1449" data-name="그룹 1449" transform="translate(3861.506 3053.483)">
      <g id="그룹_1440" data-name="그룹 1440" transform="translate(36.794 0.358)">
        <path id="패스_948" data-name="패스 948" d="M3951.649,3066.98v2.472h-21.388v-2.472Zm-2.749-7.917h-16.167v-2.472H3948.9Zm-5.556.888h3.083v.917a8.071,8.071,0,0,1-.1,1.292,5.484,5.484,0,0,1-.292,1.1h2.862v2.416h-16.167v-2.416h2.888a4.992,4.992,0,0,1-.264-.7,3.311,3.311,0,0,1-.125-.611c-.02-.2-.029-.393-.029-.57v-1.431h3.084v1.57a5.549,5.549,0,0,0,.028.569,2.359,2.359,0,0,0,.07.583,3.341,3.341,0,0,0,.208.584h4.5a5.721,5.721,0,0,0,.209-1.153c.028-.379.041-.773.041-1.181Zm-8.11,20.89a2.833,2.833,0,0,1-1.681-.431,1.81,1.81,0,0,1-.6-1.569v-4.278h12.973v-1.444h-12.973v-2.445h14.361a1.594,1.594,0,0,1,1.431.57,2.106,2.106,0,0,1,.291,1.4l-.388,3.416a1.267,1.267,0,0,1-.222.625.827.827,0,0,1-.667.208h-11.584v1.5h9.334q.833,0,1.764-.055a11.16,11.16,0,0,0,1.958-.306l.583,2.222a11.972,11.972,0,0,1-2.43.5q-1.042.083-2.042.083Z" transform="translate(-3930.261 -3055.286)" fill="#fff"/>
        <path id="패스_949" data-name="패스 949" d="M3980.676,3074.409h-3.75a3.6,3.6,0,0,1-2.389-.667,2.825,2.825,0,0,1-.777-2.249V3064.8h7.972v-4.084h-7.972v-2.556H3984.9v8.528a8.038,8.038,0,0,1-2.028.542,16.719,16.719,0,0,1-2.083.125h-3.862v3.666a1.239,1.239,0,0,0,.125.625q.124.208.653.208h2.972a31.812,31.812,0,0,0,3.361-.195,15.452,15.452,0,0,0,3.5-.778l.555,2.334a15.185,15.185,0,0,1-3.611.93A28.266,28.266,0,0,1,3980.676,3074.409Zm5.611-7.695v-2.639h3.889v-6.861h3.194v22.139h-3.194v-12.639Z" transform="translate(-3950.481 -3055.576)" fill="#fff"/>
        <path id="패스_950" data-name="패스 950" d="M4013.261,3073.782h21.417v2.583h-21.417Zm11.805-14.584v1.056a6.287,6.287,0,0,1-.083,1.028,10.137,10.137,0,0,1-.222,1,6.292,6.292,0,0,1,1.722.181,4.189,4.189,0,0,1,1.528.736q.5.416,1.181,1t1.458,1.25q.75.667,1.528,1.362t1.472,1.3l-1.972,2.306q-.639-.583-1.347-1.25t-1.431-1.306q-.694-.638-1.347-1.208t-1.1-.986a5.747,5.747,0,0,0-1.264-.708,5.408,5.408,0,0,0-1.514-.375,12.821,12.821,0,0,1-3.416,3.445,19.106,19.106,0,0,1-4.834,2.444l-.861-2.694a12.55,12.55,0,0,0,3.112-1.389,10.618,10.618,0,0,0,2.278-1.889,7.483,7.483,0,0,0,1.4-2.152,5.87,5.87,0,0,0,.486-2.292v-.667a6.369,6.369,0,0,0-.083-.917,6.262,6.262,0,0,0-.249-1.055l3.083-.779a5.5,5.5,0,0,1,.361,1.209A7.754,7.754,0,0,1,4025.066,3059.2Z" transform="translate(-3968.843 -3055.309)" fill="#fff"/>
        <path id="패스_951" data-name="패스 951" d="M4059.131,3066.251a1.063,1.063,0,0,0,.139.611.649.649,0,0,0,.556.194h1.333q1.11,0,2.667-.111a15.227,15.227,0,0,0,3.111-.556l.361,2.334a12.2,12.2,0,0,1-1.542.416q-.82.167-1.653.278-.834.084-1.625.126t-1.4.042h-2.139a2.867,2.867,0,0,1-2.041-.667,2.74,2.74,0,0,1-.709-2.083v-9.75h9.639v2.556h-6.695Zm3.917,14.361a3.222,3.222,0,0,1-2.139-.6,2.163,2.163,0,0,1-.694-1.736v-6.361h3.167v5.361a1.348,1.348,0,0,0,.1.583c.065.13.226.2.486.2h6.889a20.92,20.92,0,0,0,2.93-.181,22.488,22.488,0,0,0,2.848-.625l.666,2.389a17.633,17.633,0,0,1-6.112.972Zm.889-16.195v-2.528h4.694V3056.7h2.89v15.889h-2.89v-8.167Zm13.111-7.722v16.167h-2.861V3056.7Z" transform="translate(-3988.798 -3055.334)" fill="#fff"/>
        <path id="패스_952" data-name="패스 952" d="M4100.651,3073.958l-1.639-2.361a28.29,28.29,0,0,0,3.083-2.278,35.8,35.8,0,0,0,2.695-2.527,25.379,25.379,0,0,0,2.069-2.556,12.688,12.688,0,0,0,1.32-2.305.834.834,0,0,0,.028-.695.473.473,0,0,0-.445-.25h-8.194V3058.4h4.473a4.617,4.617,0,0,0,.332-1.306,3.492,3.492,0,0,0-.138-1.444l-.223-.639,3-.861.223.861a4.707,4.707,0,0,1,.069,1.736,5.537,5.537,0,0,1-.486,1.653h3.167a1.552,1.552,0,0,1,1.515.708,2.731,2.731,0,0,1,.292,1.57,8.776,8.776,0,0,1-.973,2.777,20.72,20.72,0,0,1-2.111,3.222,3.932,3.932,0,0,1,1.319.57,4.681,4.681,0,0,1,1.042.958q.668.916,1.459,2t1.542,2.194l-2.25,1.695q-.862-1.305-1.6-2.361t-1.4-1.889a10.561,10.561,0,0,0-.806-.777,2.593,2.593,0,0,0-.917-.5,35.245,35.245,0,0,1-3.042,2.9A28.363,28.363,0,0,1,4100.651,3073.958Zm18.251,3.972h-3.2v-22.139h3.2Z" transform="translate(-4008.705 -3054.152)" fill="#fff"/>
        <path id="패스_953" data-name="패스 953" d="M4143.843,3066.354h3.11v7.029h1.945a17.719,17.719,0,0,0,3.89-.389,11.382,11.382,0,0,0,3.472-1.473v-14.305h3.194v8.471h3.917v2.667h-3.917v11h-3.194V3074.3a10.326,10.326,0,0,1-3.208,1.25,19.653,19.653,0,0,1-4.153.389h-9.556v-2.555h4.5Zm8.334,4.723-2.833-.444q.444-2.056.708-4.334a39.115,39.115,0,0,0,.265-4.528,1.6,1.6,0,0,0-.139-.736q-.14-.264-.639-.264h-9.223v-2.583h10.417a2.29,2.29,0,0,1,2.639,2.472q-.029,1.723-.11,3.153t-.251,2.653q-.166,1.249-.374,2.375T4152.177,3071.076Z" transform="translate(-4027.452 -3055.576)" fill="#fff"/>
      </g>
      <g id="그룹_1448" data-name="그룹 1448">
        <g id="그룹_1442" data-name="그룹 1442" transform="translate(28.64 5.441)">
          <g id="그룹_1441" data-name="그룹 1441">
            <path id="패스_954" data-name="패스 954" d="M3916.732,3063.65a.444.444,0,0,1,.251.076.256.256,0,0,1,.114.231v1.057h1.063a.239.239,0,0,1,.212.1.394.394,0,0,1,.068.234.409.409,0,0,1-.068.238.237.237,0,0,1-.212.1H3917.1v1.154a.257.257,0,0,1-.114.231.456.456,0,0,1-.5,0,.257.257,0,0,1-.114-.231v-1.154H3915.3a.237.237,0,0,1-.212-.1.414.414,0,0,1-.068-.238.4.4,0,0,1,.068-.234.24.24,0,0,1,.212-.1h1.063v-1.057a.256.256,0,0,1,.114-.231A.445.445,0,0,1,3916.732,3063.65Z" transform="translate(-3915.024 -3063.65)" fill="#fff"/>
          </g>
        </g>
        <g id="그룹_1444" data-name="그룹 1444" transform="translate(1.765)">
          <g id="그룹_1443" data-name="그룹 1443">
            <path id="패스_955" data-name="패스 955" d="M3864.909,3059.433l.985,4.861a12.51,12.51,0,0,0,1.35.55l-1.145-5.652c-.021-.1-.038-.2-.051-.3a3.615,3.615,0,0,1,1.174-3.152,3.945,3.945,0,0,1,2.667-1.041,3.887,3.887,0,0,1,.818.087l3.812.819a11.75,11.75,0,0,0,4.957,0l3.8-.816a3.938,3.938,0,0,1,3.485.954,3.617,3.617,0,0,1,1.174,3.153c-.013.1-.03.2-.05.3l-1.132,5.585a13.9,13.9,0,0,0,1.348-.539l.974-4.8c.026-.13.048-.26.064-.388a4.817,4.817,0,0,0-1.557-4.2,5.156,5.156,0,0,0-4.562-1.248l-3.813.821a10.549,10.549,0,0,1-4.444,0l-3.8-.816a5.156,5.156,0,0,0-4.562,1.248,4.815,4.815,0,0,0-1.556,4.2C3864.862,3059.174,3864.883,3059.3,3864.909,3059.433Z" transform="translate(-3864.804 -3053.482)" fill="#fff"/>
            <path id="패스_956" data-name="패스 956" d="M3887.62,3081.823l-1.78,8.784a2.032,2.032,0,0,1-1.248,1.527,1.77,1.77,0,0,1-1.721-.259l-1.934-1.463a3.754,3.754,0,0,0-4.512,0l-1.935,1.463a1.766,1.766,0,0,1-1.722.259,2.031,2.031,0,0,1-1.248-1.527l-1.769-8.727c-.469-.114-.907-.232-1.31-.355l1.889,9.323a3.235,3.235,0,0,0,2.008,2.421,2.98,2.98,0,0,0,1.057.194,3.026,3.026,0,0,0,1.827-.62l1.935-1.463a2.533,2.533,0,0,1,3.046,0l1.935,1.463a3,3,0,0,0,2.884.426,3.235,3.235,0,0,0,2.007-2.421l1.9-9.387C3888.527,3081.585,3888.092,3081.707,3887.62,3081.823Z" transform="translate(-3866.495 -3066.489)" fill="#fff"/>
          </g>
        </g>
        <g id="그룹_1446" data-name="그룹 1446" transform="translate(0 9.206)">
          <g id="그룹_1445" data-name="그룹 1445">
            <path id="패스_957" data-name="패스 957" d="M3875.275,3074.824c-10.224,0-13.449-2.967-13.582-3.092a.607.607,0,0,1,.835-.882c.047.042,3.127,2.76,12.747,2.76,9.682,0,13.1-2.755,13.133-2.782a.607.607,0,0,1,.786.925C3889.047,3071.879,3885.48,3074.824,3875.275,3074.824Z" transform="translate(-3861.505 -3070.685)" fill="#fff"/>
          </g>
        </g>
        <g id="그룹_1447" data-name="그룹 1447" transform="translate(13.95 0.437)">
          <path id="패스_958" data-name="패스 958" d="M3887.574,3054.3" transform="translate(-3887.574 -3054.299)" fill="#fff" stroke="#231815" stroke-miterlimit="10" stroke-width="0.707"/>
        </g>
      </g>
    </g>
    <g id="그룹_1450" data-name="그룹 1450" transform="translate(3901.003 3083.907)">
      <path id="패스_959" data-name="패스 959" d="M3935.312,3110.45h1.42a1.354,1.354,0,1,1,.006,2.705h-1v1.643h-.426Zm1.409,2.321a.97.97,0,1,0,0-1.938h-.979v1.938Z" transform="translate(-3935.312 -3110.388)" fill="#fff"/>
      <path id="패스_960" data-name="패스 960" d="M3947.874,3110.45h.427v3.967h2.061v.381h-2.488Z" transform="translate(-3941.152 -3110.388)" fill="#fff"/>
      <path id="패스_961" data-name="패스 961" d="M3963.026,3110.45v2.877a1.663,1.663,0,0,1-3.317,0v-2.877h.427v2.846a1.232,1.232,0,0,0,2.46,0v-2.846Z" transform="translate(-3946.653 -3110.388)" fill="#fff"/>
      <path id="패스_962" data-name="패스 962" d="M3974.747,3110.716c-.6,0-1.008.333-1.008.79s.448.662.86.778l.452.126c.544.151,1.188.438,1.188,1.172,0,.7-.564,1.236-1.52,1.236-.9,0-1.462-.474-1.512-1.172h.438c.042.51.5.783,1.075.783.641,0,1.1-.341,1.1-.853,0-.438-.371-.633-.9-.786l-.521-.151c-.684-.2-1.083-.55-1.083-1.115a1.457,1.457,0,0,1,2.858-.036h-.416A.912.912,0,0,0,3974.747,3110.716Z" transform="translate(-3952.927 -3110.334)" fill="#fff"/>
      <path id="패스_963" data-name="패스 963" d="M3986.175,3114.8v-4.348h1.363a1.912,1.912,0,0,1,1.988,2.164,1.942,1.942,0,0,1-2.06,2.184Zm1.267-.381c1.1,0,1.667-.68,1.665-1.8s-.55-1.781-1.594-1.781h-.911v3.584Z" transform="translate(-3958.956 -3110.388)" fill="#fff"/>
      <path id="패스_964" data-name="패스 964" d="M3999.744,3110.45h2.548v.382h-2.121v1.6h1.985v.38h-1.985v1.606h2.159v.381h-2.586Z" transform="translate(-3965.263 -3110.388)" fill="#fff"/>
      <path id="패스_965" data-name="패스 965" d="M4015.333,3114.8h-.409l-2.527-3.583h-.037v3.583h-.426v-4.348h.414l2.531,3.59h.036v-3.59h.418Z" transform="translate(-3970.93 -3110.388)" fill="#fff"/>
      <path id="패스_966" data-name="패스 966" d="M4034.473,3114.8v-4.348h1.363a1.912,1.912,0,0,1,1.987,2.164,1.943,1.943,0,0,1-2.06,2.184Zm1.268-.381c1.1,0,1.666-.68,1.664-1.8s-.55-1.781-1.594-1.781h-.911v3.584Z" transform="translate(-3981.407 -3110.388)" fill="#fff"/>
      <path id="패스_967" data-name="패스 967" d="M4048.042,3110.45h2.548v.382h-2.121v1.6h1.985v.38h-1.985v1.606h2.159v.381h-2.586Z" transform="translate(-3987.714 -3110.388)" fill="#fff"/>
      <path id="패스_968" data-name="패스 968" d="M4063.63,3114.8h-.41l-2.526-3.583h-.036v3.583h-.427v-4.348h.414l2.531,3.59h.036v-3.59h.418Z" transform="translate(-3993.381 -3110.388)" fill="#fff"/>
      <path id="패스_969" data-name="패스 969" d="M4073.769,3110.45h3.18v.382h-1.373v3.966h-.429v-3.966h-1.377Z" transform="translate(-3999.673 -3110.388)" fill="#fff"/>
      <path id="패스_970" data-name="패스 970" d="M4085.188,3114.8l1.583-4.348h.46l1.582,4.348h-.45l-.458-1.292H4086.1l-.461,1.292Zm2.58-1.672-.754-2.124h-.028l-.756,2.124Z" transform="translate(-4004.982 -3110.388)" fill="#fff"/>
      <path id="패스_971" data-name="패스 971" d="M4098.873,3110.45h.426v3.967h2.062v.381h-2.488Z" transform="translate(-4011.343 -3110.388)" fill="#fff"/>
      <path id="패스_972" data-name="패스 972" d="M4120.76,3110.74c-.814,0-1.473.647-1.473,1.833s.659,1.832,1.473,1.832a1.285,1.285,0,0,0,1.3-1.019h.432a1.7,1.7,0,0,1-1.729,1.42,2.265,2.265,0,0,1,0-4.467,1.7,1.7,0,0,1,1.729,1.425h-.432A1.284,1.284,0,0,0,4120.76,3110.74Z" transform="translate(-4020.64 -3110.336)" fill="#fff"/>
      <path id="패스_973" data-name="패스 973" d="M4132.892,3110.45h.427v3.967h2.061v.381h-2.488Z" transform="translate(-4027.157 -3110.388)" fill="#fff"/>
      <path id="패스_974" data-name="패스 974" d="M4145.155,3114.8h-.427v-4.348h.427Z" transform="translate(-4032.659 -3110.388)" fill="#fff"/>
      <path id="패스_975" data-name="패스 975" d="M4156.593,3114.8h-.41l-2.526-3.583h-.036v3.583h-.428v-4.348h.414l2.532,3.59h.036v-3.59h.418Z" transform="translate(-4036.594 -3110.388)" fill="#fff"/>
      <path id="패스_976" data-name="패스 976" d="M4167.644,3114.8h-.428v-4.348h.428Z" transform="translate(-4043.112 -3110.388)" fill="#fff"/>
      <path id="패스_977" data-name="패스 977" d="M4177.214,3110.74c-.816,0-1.473.647-1.473,1.833s.657,1.832,1.473,1.832a1.284,1.284,0,0,0,1.3-1.019h.432a1.7,1.7,0,0,1-1.728,1.42,2.265,2.265,0,0,1,0-4.467,1.7,1.7,0,0,1,1.728,1.425h-.432A1.283,1.283,0,0,0,4177.214,3110.74Z" transform="translate(-4046.882 -3110.336)" fill="#fff"/>
    </g>
  </g>
</svg>
