<svg xmlns="http://www.w3.org/2000/svg" width="163.333" height="33.013" viewBox="0 0 163.333 33.013">
  <g id="그룹_1451" data-name="그룹 1451" transform="translate(-3861.506 -3053.483)">
    <g id="그룹_1449" data-name="그룹 1449" transform="translate(3861.506 3053.483)">
      <g id="그룹_1440" data-name="그룹 1440" transform="translate(34.796 0.339)">
        <path id="패스_948" data-name="패스 948" d="M3950.488,3066.416v2.338h-20.227v-2.338Zm-2.6-7.486H3932.6v-2.338h15.289Zm-5.254.84h2.916v.867a7.655,7.655,0,0,1-.092,1.222,5.155,5.155,0,0,1-.276,1.038h2.706v2.285H3932.6V3062.9h2.732a4.668,4.668,0,0,1-.25-.657,3.177,3.177,0,0,1-.118-.578c-.019-.193-.027-.372-.027-.539v-1.354h2.917v1.485a5.369,5.369,0,0,0,.026.538,2.227,2.227,0,0,0,.066.552,3.134,3.134,0,0,0,.2.552h4.255a5.38,5.38,0,0,0,.2-1.09q.04-.538.039-1.117Zm-7.67,19.756a2.686,2.686,0,0,1-1.59-.408,1.714,1.714,0,0,1-.565-1.484v-4.045h12.268v-1.366h-12.268v-2.312h13.582a1.506,1.506,0,0,1,1.354.539,1.988,1.988,0,0,1,.275,1.327l-.367,3.231a1.2,1.2,0,0,1-.21.591.783.783,0,0,1-.63.2h-10.955v1.419h8.827q.788,0,1.669-.052a10.516,10.516,0,0,0,1.852-.29l.552,2.1a11.329,11.329,0,0,1-2.3.473q-.985.079-1.931.079Z" transform="translate(-3930.261 -3055.356)" fill="#29abe2"/>
        <path id="패스_949" data-name="패스 949" d="M3980.3,3073.476h-3.547a3.409,3.409,0,0,1-2.26-.631,2.672,2.672,0,0,1-.735-2.127v-6.331h7.539v-3.862h-7.539v-2.417h10.534v8.065a7.6,7.6,0,0,1-1.918.512,15.824,15.824,0,0,1-1.97.118h-3.652v3.467a1.171,1.171,0,0,0,.118.591q.118.2.618.2h2.811a30.149,30.149,0,0,0,3.179-.184,14.591,14.591,0,0,0,3.31-.735l.525,2.207a14.364,14.364,0,0,1-3.415.879A26.729,26.729,0,0,1,3980.3,3073.476Zm5.306-7.277v-2.5h3.678v-6.488h3.021v20.937h-3.021V3066.2Z" transform="translate(-3951.745 -3055.665)" fill="#29abe2"/>
        <path id="패스_950" data-name="패스 950" d="M4013.261,3072.851h20.254v2.443h-20.254Zm11.164-13.792v1a6,6,0,0,1-.078.972,9.673,9.673,0,0,1-.21.946,5.944,5.944,0,0,1,1.629.171,3.961,3.961,0,0,1,1.445.7q.472.394,1.116.945l1.379,1.182q.709.631,1.445,1.288t1.393,1.234l-1.865,2.181q-.6-.552-1.274-1.182t-1.353-1.235q-.657-.6-1.274-1.143t-1.038-.933a5.43,5.43,0,0,0-1.2-.67,5.118,5.118,0,0,0-1.432-.355,12.125,12.125,0,0,1-3.23,3.258,18.082,18.082,0,0,1-4.572,2.311l-.814-2.548a11.875,11.875,0,0,0,2.942-1.314,10.049,10.049,0,0,0,2.154-1.786,7.076,7.076,0,0,0,1.327-2.036,5.546,5.546,0,0,0,.459-2.167v-.63a6.046,6.046,0,0,0-.079-.867,5.919,5.919,0,0,0-.235-1l2.915-.736a5.19,5.19,0,0,1,.342,1.143A7.3,7.3,0,0,1,4024.425,3059.06Z" transform="translate(-3971.256 -3055.382)" fill="#29abe2"/>
        <path id="패스_951" data-name="패스 951" d="M4058.971,3065.733a1.006,1.006,0,0,0,.131.578.615.615,0,0,0,.526.184h1.261q1.05,0,2.522-.1a14.384,14.384,0,0,0,2.942-.525l.341,2.207a11.443,11.443,0,0,1-1.458.394q-.775.158-1.563.263-.789.079-1.537.119t-1.327.039h-2.022a2.711,2.711,0,0,1-1.931-.63,2.589,2.589,0,0,1-.67-1.97v-9.221h9.115v2.417h-6.331Zm3.7,13.581a3.046,3.046,0,0,1-2.023-.565,2.046,2.046,0,0,1-.657-1.642v-6.016h3v5.07a1.275,1.275,0,0,0,.091.551c.062.123.214.185.46.185h6.515a19.756,19.756,0,0,0,2.771-.171,21.256,21.256,0,0,0,2.693-.591l.63,2.259a16.67,16.67,0,0,1-5.78.919Zm.841-15.315v-2.391h4.439V3056.7h2.733v15.026h-2.733V3064Zm12.4-7.3v15.289h-2.706V3056.7Z" transform="translate(-3992.458 -3055.408)" fill="#29abe2"/>
        <path id="패스_952" data-name="패스 952" d="M4100.562,3072.882l-1.549-2.233a26.739,26.739,0,0,0,2.915-2.154,33.92,33.92,0,0,0,2.549-2.39,24.033,24.033,0,0,0,1.957-2.417,12.007,12.007,0,0,0,1.248-2.18.788.788,0,0,0,.026-.657.447.447,0,0,0-.421-.236h-7.749v-2.443h4.229a4.374,4.374,0,0,0,.314-1.235,3.3,3.3,0,0,0-.131-1.366l-.211-.6,2.838-.814.21.814a4.433,4.433,0,0,1,.065,1.642,5.233,5.233,0,0,1-.459,1.563h2.995a1.468,1.468,0,0,1,1.432.669,2.579,2.579,0,0,1,.276,1.485,8.316,8.316,0,0,1-.92,2.627,19.628,19.628,0,0,1-2,3.047,3.724,3.724,0,0,1,1.248.538,4.438,4.438,0,0,1,.985.907q.631.867,1.379,1.892t1.458,2.074l-2.127,1.6q-.815-1.235-1.511-2.233t-1.326-1.787a9.946,9.946,0,0,0-.762-.735,2.452,2.452,0,0,0-.867-.473,33.248,33.248,0,0,1-2.876,2.745A26.7,26.7,0,0,1,4100.562,3072.882Zm17.26,3.756H4114.8V3055.7h3.022Z" transform="translate(-4013.609 -3054.152)" fill="#595757"/>
        <path id="패스_953" data-name="패스 953" d="M4143.6,3065.857h2.942v6.647h1.839a16.745,16.745,0,0,0,3.678-.368,10.76,10.76,0,0,0,3.284-1.393v-13.529h3.02v8.012h3.7v2.522h-3.7v10.4h-3.02v-4.781a9.765,9.765,0,0,1-3.034,1.182,18.6,18.6,0,0,1-3.928.368h-9.037V3072.5h4.255Zm7.881,4.466-2.68-.42q.42-1.944.669-4.1a37.032,37.032,0,0,0,.25-4.282,1.516,1.516,0,0,0-.131-.7q-.132-.25-.6-.25h-8.722v-2.443h9.851a2.166,2.166,0,0,1,2.5,2.338q-.027,1.629-.1,2.982t-.237,2.509q-.157,1.181-.354,2.246T4151.479,3070.323Z" transform="translate(-4033.529 -3055.665)" fill="#595757"/>
      </g>
      <g id="그룹_1448" data-name="그룹 1448">
        <g id="그룹_1442" data-name="그룹 1442" transform="translate(27.085 5.146)">
          <g id="그룹_1441" data-name="그룹 1441">
            <path id="패스_954" data-name="패스 954" d="M3916.64,3063.65a.425.425,0,0,1,.238.071.244.244,0,0,1,.108.219v1h1.005a.226.226,0,0,1,.2.093.373.373,0,0,1,.064.221.389.389,0,0,1-.064.225.224.224,0,0,1-.2.1h-1.005v1.092a.244.244,0,0,1-.108.219.433.433,0,0,1-.475,0,.244.244,0,0,1-.108-.219v-1.092h-1.005a.225.225,0,0,1-.2-.1.392.392,0,0,1-.064-.225.376.376,0,0,1,.064-.221.227.227,0,0,1,.2-.093h1.005v-1a.244.244,0,0,1,.108-.219A.423.423,0,0,1,3916.64,3063.65Z" transform="translate(-3915.024 -3063.65)" fill="#29abe2"/>
          </g>
        </g>
        <g id="그룹_1444" data-name="그룹 1444" transform="translate(1.669)">
          <g id="그룹_1443" data-name="그룹 1443">
            <path id="패스_955" data-name="패스 955" d="M3864.9,3059.11l.932,4.6a11.866,11.866,0,0,0,1.277.521l-1.083-5.345c-.02-.1-.036-.193-.047-.287a3.416,3.416,0,0,1,1.11-2.98,3.73,3.73,0,0,1,2.522-.985,3.672,3.672,0,0,1,.773.082l3.6.775a11.108,11.108,0,0,0,4.688,0l3.589-.772a3.725,3.725,0,0,1,3.3.9,3.42,3.42,0,0,1,1.11,2.981c-.013.1-.028.191-.047.285l-1.07,5.281a13.008,13.008,0,0,0,1.275-.51l.921-4.544c.025-.123.045-.246.061-.367a4.555,4.555,0,0,0-1.472-3.972,4.875,4.875,0,0,0-4.314-1.18l-3.606.776a9.978,9.978,0,0,1-4.2,0l-3.589-.772a4.875,4.875,0,0,0-4.314,1.18,4.554,4.554,0,0,0-1.472,3.973C3864.859,3058.865,3864.878,3058.987,3864.9,3059.11Z" transform="translate(-3864.804 -3053.482)" fill="#29abe2"/>
            <path id="패스_956" data-name="패스 956" d="M3886.579,3081.8l-1.684,8.308a1.922,1.922,0,0,1-1.18,1.443,1.673,1.673,0,0,1-1.628-.244l-1.829-1.384a3.55,3.55,0,0,0-4.267,0l-1.83,1.384a1.669,1.669,0,0,1-1.628.244,1.92,1.92,0,0,1-1.18-1.443l-1.673-8.253q-.666-.161-1.239-.336l1.787,8.817a3.059,3.059,0,0,0,1.9,2.29,2.82,2.82,0,0,0,1,.183,2.863,2.863,0,0,0,1.728-.586l1.83-1.384a2.4,2.4,0,0,1,2.881,0l1.83,1.384a2.839,2.839,0,0,0,2.728.4,3.06,3.06,0,0,0,1.9-2.29l1.8-8.877C3887.436,3081.579,3887.025,3081.693,3886.579,3081.8Z" transform="translate(-3866.601 -3067.302)" fill="#29abe2"/>
          </g>
        </g>
        <g id="그룹_1446" data-name="그룹 1446" transform="translate(0 8.706)">
          <g id="그룹_1445" data-name="그룹 1445">
            <path id="패스_957" data-name="패스 957" d="M3874.527,3074.6c-9.668,0-12.719-2.805-12.844-2.924a.574.574,0,0,1,.79-.834c.044.04,2.958,2.61,12.055,2.61,9.156,0,12.388-2.6,12.419-2.63a.574.574,0,0,1,.743.875C3887.551,3071.814,3884.178,3074.6,3874.527,3074.6Z" transform="translate(-3861.505 -3070.685)" fill="#29abe2"/>
          </g>
        </g>
        <g id="그룹_1447" data-name="그룹 1447" transform="translate(13.193 0.413)">
          <path id="패스_958" data-name="패스 958" d="M3887.574,3054.3" transform="translate(-3887.574 -3054.299)" fill="#29abe2" stroke="#231815" stroke-miterlimit="10" stroke-width="0.707"/>
        </g>
      </g>
    </g>
    <g id="그룹_1450" data-name="그룹 1450" transform="translate(3898.858 3082.255)">
      <path id="패스_959" data-name="패스 959" d="M3935.312,3110.45h1.343a1.28,1.28,0,1,1,.006,2.558h-.946v1.554h-.4Zm1.333,2.195a.917.917,0,1,0,0-1.833h-.926v1.833Z" transform="translate(-3935.312 -3110.391)" fill="#595757"/>
      <path id="패스_960" data-name="패스 960" d="M3947.874,3110.45h.4v3.751h1.949v.361h-2.353Z" transform="translate(-3941.517 -3110.391)" fill="#595757"/>
      <path id="패스_961" data-name="패스 961" d="M3962.846,3110.45v2.721a1.572,1.572,0,0,1-3.136,0v-2.721h.4v2.691a1.164,1.164,0,0,0,2.326,0v-2.691Z" transform="translate(-3947.363 -3110.391)" fill="#595757"/>
      <path id="패스_962" data-name="패스 962" d="M3974.664,3110.7c-.566,0-.954.315-.954.747s.424.626.813.736l.427.12c.514.143,1.124.414,1.124,1.109,0,.662-.534,1.168-1.437,1.168-.849,0-1.383-.448-1.43-1.108h.414c.041.482.472.741,1.016.741.606,0,1.044-.323,1.044-.807,0-.414-.351-.6-.849-.743l-.492-.143c-.647-.189-1.024-.52-1.024-1.054a1.378,1.378,0,0,1,2.7-.034h-.393A.862.862,0,0,0,3974.664,3110.7Z" transform="translate(-3954.029 -3110.335)" fill="#595757"/>
      <path id="패스_963" data-name="패스 963" d="M3986.175,3114.562v-4.112h1.289a1.808,1.808,0,0,1,1.879,2.046,1.837,1.837,0,0,1-1.948,2.066Zm1.2-.361c1.044,0,1.577-.642,1.575-1.7s-.521-1.685-1.508-1.685h-.861v3.389Z" transform="translate(-3960.434 -3110.391)" fill="#595757"/>
      <path id="패스_964" data-name="패스 964" d="M3999.744,3110.45h2.41v.361h-2.006v1.512h1.877v.359h-1.877v1.518h2.042v.361h-2.445Z" transform="translate(-3967.136 -3110.391)" fill="#595757"/>
      <path id="패스_965" data-name="패스 965" d="M4015.148,3114.562h-.387l-2.389-3.388h-.034v3.388h-.4v-4.112h.391l2.394,3.4h.034v-3.4h.4Z" transform="translate(-3973.156 -3110.391)" fill="#595757"/>
      <path id="패스_966" data-name="패스 966" d="M4034.473,3114.562v-4.112h1.289a1.808,1.808,0,0,1,1.879,2.046,1.837,1.837,0,0,1-1.948,2.066Zm1.2-.361c1.043,0,1.576-.642,1.573-1.7s-.52-1.685-1.507-1.685h-.862v3.389Z" transform="translate(-3984.289 -3110.391)" fill="#595757"/>
      <path id="패스_967" data-name="패스 967" d="M4048.042,3110.45h2.409v.361h-2.006v1.512h1.877v.359h-1.877v1.518h2.042v.361h-2.445Z" transform="translate(-3990.99 -3110.391)" fill="#595757"/>
      <path id="패스_968" data-name="패스 968" d="M4063.446,3114.562h-.388l-2.388-3.388h-.034v3.388h-.4v-4.112h.392l2.393,3.4h.034v-3.4h.4Z" transform="translate(-3997.011 -3110.391)" fill="#595757"/>
      <path id="패스_969" data-name="패스 969" d="M4073.769,3110.45h3.007v.361h-1.3v3.75h-.406v-3.75h-1.3Z" transform="translate(-4003.697 -3110.391)" fill="#595757"/>
      <path id="패스_970" data-name="패스 970" d="M4085.188,3114.562l1.5-4.112h.435l1.5,4.112h-.426l-.433-1.222h-1.709l-.437,1.222Zm2.44-1.582-.713-2.008h-.026l-.715,2.008Z" transform="translate(-4009.337 -3110.391)" fill="#595757"/>
      <path id="패스_971" data-name="패스 971" d="M4098.873,3110.45h.4v3.751h1.949v.361h-2.353Z" transform="translate(-4016.097 -3110.391)" fill="#595757"/>
      <path id="패스_972" data-name="패스 972" d="M4120.657,3110.718c-.771,0-1.394.612-1.394,1.733s.623,1.733,1.394,1.733a1.214,1.214,0,0,0,1.227-.964h.408a1.605,1.605,0,0,1-1.635,1.343,2.142,2.142,0,0,1,0-4.225,1.6,1.6,0,0,1,1.635,1.347h-.408A1.214,1.214,0,0,0,4120.657,3110.718Z" transform="translate(-4025.974 -3110.337)" fill="#595757"/>
      <path id="패스_973" data-name="패스 973" d="M4132.892,3110.45h.4v3.751h1.949v.361h-2.353Z" transform="translate(-4032.899 -3110.391)" fill="#595757"/>
      <path id="패스_974" data-name="패스 974" d="M4145.132,3114.562h-.4v-4.112h.4Z" transform="translate(-4038.745 -3110.391)" fill="#595757"/>
      <path id="패스_975" data-name="패스 975" d="M4156.408,3114.562h-.387l-2.389-3.388h-.034v3.388h-.4v-4.112h.391l2.394,3.4h.034v-3.4h.4Z" transform="translate(-4042.927 -3110.391)" fill="#595757"/>
      <path id="패스_976" data-name="패스 976" d="M4167.62,3114.562h-.4v-4.112h.4Z" transform="translate(-4049.852 -3110.391)" fill="#595757"/>
      <path id="패스_977" data-name="패스 977" d="M4177.111,3110.718c-.771,0-1.393.612-1.393,1.733s.621,1.733,1.393,1.733a1.214,1.214,0,0,0,1.227-.964h.408a1.606,1.606,0,0,1-1.635,1.343,2.142,2.142,0,0,1,0-4.225,1.6,1.6,0,0,1,1.635,1.347h-.408A1.214,1.214,0,0,0,4177.111,3110.718Z" transform="translate(-4053.857 -3110.337)" fill="#595757"/>
    </g>
  </g>
</svg>
