<svg id="그룹_1651" data-name="그룹 1651" xmlns="http://www.w3.org/2000/svg" xmlns:xlink="http://www.w3.org/1999/xlink" width="232.03" height="52.553" viewBox="0 0 232.03 52.553">
  <defs>
    <clipPath id="clip-path">
      <rect id="사각형_1029" data-name="사각형 1029" width="232.03" height="52.553" transform="translate(0 0)" fill="none"/>
    </clipPath>
  </defs>
  <g id="그룹_1650" data-name="그룹 1650" clip-path="url(#clip-path)">
    <path id="패스_1735" data-name="패스 1735" d="M20.45,41.608c-.889-.072-1.969-.12-2.953-.12-3.672,0-8.881.144-11.664.336a6.093,6.093,0,0,0-2.233.432,1.164,1.164,0,0,1-.5.121,1.641,1.641,0,0,1-.457-.073,9.757,9.757,0,0,1-2.3-1.1C.119,41.056,0,40.936,0,40.7c0-.168.168-.216.48-.168a24.654,24.654,0,0,0,3.529.264c3.263,0,7.943-.12,11.3-.264a7.124,7.124,0,0,0,2.424-.36A2.049,2.049,0,0,1,18.6,39.9a8.109,8.109,0,0,1,2.281.288c.455.12.671.36.671.7,0,.576-.431.768-1.1.72m-2.736-9.121c-.649-.024-1.584-.071-2.809-.071-2.3,0-5.16.071-7.417.263a4.28,4.28,0,0,0-1.464.313.993.993,0,0,1-.456.119,1.632,1.632,0,0,1-.5-.1,7.867,7.867,0,0,1-1.968-.96c-.168-.12-.24-.216-.24-.336,0-.192.119-.288.384-.24a22.03,22.03,0,0,0,2.952.192c2.52,0,5.16-.024,7.033-.144a5.363,5.363,0,0,0,1.848-.336,2.081,2.081,0,0,1,.984-.288c1.3,0,2.544.24,2.544.889,0,.527-.337.719-.887.695m-2.257,2.064c-.048.1-.12.288-.216.5a25.311,25.311,0,0,1-1.225,2.569,3.681,3.681,0,0,0,1.008-.288,2.092,2.092,0,0,1,.985-.264,6.071,6.071,0,0,1,1.488.191c.456.12.721.337.721.673,0,.432-.336.624-.817.6-.864-.048-1.824-.048-2.832-.048-2.137.024-4.992.143-7.033.288a3.723,3.723,0,0,0-1.44.336,1.074,1.074,0,0,1-.457.143,1.781,1.781,0,0,1-.527-.119A7.056,7.056,0,0,1,3.336,38.2c-.168-.12-.24-.216-.24-.336,0-.168.144-.24.432-.193a20.314,20.314,0,0,0,2.832.193c2.16,0,4.656-.025,6.576-.145a17.361,17.361,0,0,0,.649-3.023,2.455,2.455,0,0,0-1.3-1.08c-.24-.1-.337-.168-.337-.361s.289-.335.816-.288a11.839,11.839,0,0,1,2.4.552c.312.1.431.265.431.481a1.1,1.1,0,0,1-.143.551m1.68,16.97c-3.336,0-7.152.048-10.009.1a2.37,2.37,0,0,1-1.489-.361,1.661,1.661,0,0,1-.5-1.391V48.113a2.869,2.869,0,0,0-1.511-.744c-.24-.073-.36-.168-.36-.288,0-.216.192-.336.6-.336a15.13,15.13,0,0,1,2.424.168,4.263,4.263,0,0,1,.48.12,2.046,2.046,0,0,0,.552.071c2.376,0,5.4-.048,7.2-.168a.344.344,0,0,0,.313-.239,19.64,19.64,0,0,0,.072-2.233c-2.064.024-4.681.1-6.217.193a5.586,5.586,0,0,0-1.7.263,1.472,1.472,0,0,1-.552.192,1.422,1.422,0,0,1-.5-.1,8.786,8.786,0,0,1-1.968-.96.414.414,0,0,1-.216-.336c0-.168.143-.263.408-.216a21.263,21.263,0,0,0,2.712.241c2.28.048,5.16-.025,7.513-.193a3.59,3.59,0,0,0,.6-.144,1.635,1.635,0,0,1,.528-.119,5.966,5.966,0,0,1,1.537.215c.239.072.359.168.359.312,0,.192-.12.312-.312.456-.168.12-.264.216-.287.36a17.236,17.236,0,0,1-.577,2.113c.577.12.912.336.912.624,0,.311-.216.456-.648.456-3.385,0-6.984.095-9.505.216a2.322,2.322,0,0,0-.024.431v1.7c0,.313.168.481.528.505,1.44.024,3.624.024,5.161-.072a5.8,5.8,0,0,0,2.064-.36,2.246,2.246,0,0,1,.887-.264,10.374,10.374,0,0,1,2.017.168.61.61,0,0,1,.528.7c0,.456-.336.672-1.008.672m-8.689-14.5a.864.864,0,0,1-.6.312c-.24,0-.408-.144-.431-.457a8.51,8.51,0,0,0-.769-2.927A1.334,1.334,0,0,1,6.48,33.5c0-.168.072-.241.312-.241a.854.854,0,0,1,.457.216c.672.5,1.847,1.729,1.847,2.473,0,.336-.216.647-.648,1.08" fill="#333"/>
    <path id="패스_1736" data-name="패스 1736" d="M35.929,44.776A38.726,38.726,0,0,1,27.5,46.529a2.823,2.823,0,0,1-1.128-.024c-.889-.288-1.176-1.1-1.176-2.233l-.024-4.128a3.153,3.153,0,0,0-1.536-.72q-.361-.108-.361-.287c0-.217.384-.385.7-.385a17.464,17.464,0,0,1,2.232.168,4.965,4.965,0,0,0,1.1.192c1.3-.048,3.192-.12,4.3-.24a.4.4,0,0,0,.336-.24c.1-1.536.119-2.88.1-4.344-1.152,0-2.736.048-3.624.12a6.045,6.045,0,0,0-1.632.312,1.736,1.736,0,0,1-.576.192,1.614,1.614,0,0,1-.528-.1,8.455,8.455,0,0,1-1.753-.96c-.168-.12-.24-.215-.24-.336,0-.168.144-.24.457-.191a23.638,23.638,0,0,0,2.519.168c1.681.023,3.577-.048,4.9-.168a2.716,2.716,0,0,0,.6-.12,1.424,1.424,0,0,1,.552-.12A6.5,6.5,0,0,1,34.2,33.3c.217.072.313.168.313.288a.684.684,0,0,1-.313.48.855.855,0,0,0-.216.36c-.215,1.512-.456,2.688-.768,4.2.648.12.984.36.984.7,0,.288-.216.456-.648.48-2.16.1-4.608.216-6.553.312a3.355,3.355,0,0,0-.023.48v3.84c0,.361.192.529.552.529a48.835,48.835,0,0,0,8.137-.817,2.789,2.789,0,0,1,.408-.048.259.259,0,0,1,.264.288c0,.168-.168.289-.408.384m5.112-12.24V45.449c0,4.752-.408,7.1-1.2,7.1-.384,0-.553-.792-.553-2.377V39.544c-.575.049-1.055.1-1.271.144a2.667,2.667,0,0,0-.768.216,1.1,1.1,0,0,1-.433.144,1.325,1.325,0,0,1-.407-.072,6.105,6.105,0,0,1-1.633-.816c-.168-.12-.24-.192-.24-.36s.168-.192.432-.168a13.419,13.419,0,0,0,1.992.049c.793-.025,1.585-.049,2.328-.145v-6.6a4.456,4.456,0,0,0-2.279-1.368c-.24-.072-.361-.168-.361-.288,0-.264.312-.384.937-.384a9.51,9.51,0,0,1,3,.529.686.686,0,0,1,.553.672c0,.311-.1,1.152-.1,1.44" fill="#333"/>
    <path id="패스_1737" data-name="패스 1737" d="M65.569,48.065c-.888-.072-1.873-.12-2.857-.12-4.128,0-9.025.144-11.809.336a5.759,5.759,0,0,0-2.183.456,1.019,1.019,0,0,1-.5.144,1.4,1.4,0,0,1-.481-.1,9.206,9.206,0,0,1-2.28-1.152c-.216-.144-.336-.264-.336-.48,0-.168.168-.216.479-.168a21.614,21.614,0,0,0,3.53.264c3.263,0,7.9-.12,11.328-.264a7.119,7.119,0,0,0,2.424-.36,2.053,2.053,0,0,1,.865-.264A7.974,7.974,0,0,1,66,46.648c.455.121.672.361.672.7,0,.576-.432.768-1.1.72m-7.825-13.9a17.962,17.962,0,0,1-1.3,2.016L59.089,37.7a5.557,5.557,0,0,0,1.92.7,3.216,3.216,0,0,1,1.127.311A9.341,9.341,0,0,1,63.96,40.1c.625.6.865.983.865,1.319,0,.36-.168.576-.529.576a1.593,1.593,0,0,1-.84-.311L55.8,37a23.572,23.572,0,0,1-8.328,6.1.94.94,0,0,1-.457.12c-.12,0-.215-.1-.215-.265,0-.143.119-.263.311-.384,3.072-1.872,6.937-5.3,8.4-8.5A3.057,3.057,0,0,0,54,32.632c-.287-.145-.407-.24-.407-.384,0-.192.239-.312.672-.312a1.83,1.83,0,0,1,.5.047A11.321,11.321,0,0,1,57.5,32.992c.264.192.384.336.384.6a1.08,1.08,0,0,1-.144.576" fill="#333"/>
    <path id="패스_1738" data-name="패스 1738" d="M70.128,35.248c-.169-.361-.7-.624-1.61-.84-.263-.1-.382-.193-.382-.336,0-.217.5-.456.863-.456a14.642,14.642,0,0,1,2.137.143,2.433,2.433,0,0,1,.791.241,16.835,16.835,0,0,0,2.136-.073,2.994,2.994,0,0,0,1.129-.288,2.568,2.568,0,0,1,.84-.336,5.757,5.757,0,0,1,1.44.025c.48.071.72.336.72.719,0,.481-.385.745-1.056.768-1.512.049-3.577.12-5.185.192a4,4,0,0,0-.048.744v5.665c0,.36.145.5.481.5a49.731,49.731,0,0,0,6.24-.624,2.672,2.672,0,0,1,.408-.048c.168,0,.24.12.24.312s-.144.264-.384.36a32.991,32.991,0,0,1-6.457,1.512,2.937,2.937,0,0,1-1.032,0,1.507,1.507,0,0,1-.888-.7,2.761,2.761,0,0,1-.336-1.464ZM87.217,51.185c-3.529,0-7.633.024-9.578.048-1.992.023-2.543-.528-2.543-2.088l-.025-2.473c-.24-.36-.84-.6-2.088-.839-.24-.048-.359-.145-.359-.336,0-.216.479-.456.888-.456a20.023,20.023,0,0,1,2.9.191c.361.072.5.336.457.744-.024.265-.049.6-.049,1.009V49.6a.658.658,0,0,0,.7.744c1.392.024,3.168.024,4.776-.049a6.269,6.269,0,0,0,2.352-.407,1.824,1.824,0,0,1,.865-.264,10.835,10.835,0,0,1,2.015.12c.481.072.672.312.672.7,0,.5-.311.744-.983.744M82.9,32.967c-.024.264-.024.5-.024.817v7.344a23.649,23.649,0,0,1-.144,2.928c-.169,1.368-.528,2.04-.984,2.04-.36,0-.552-.624-.552-1.9V38.224a24.189,24.189,0,0,0-2.448.239,3.364,3.364,0,0,0-.864.265.659.659,0,0,1-.313.1,1.075,1.075,0,0,1-.336-.073,10,10,0,0,1-1.775-.864c-.168-.1-.24-.191-.24-.311,0-.168.144-.216.408-.193a14.319,14.319,0,0,0,2.111.073c.961-.025,2.353-.073,3.457-.168v-4.2a3.661,3.661,0,0,0-1.847-1.175c-.241-.073-.362-.193-.362-.313,0-.216.289-.336.865-.336a9.422,9.422,0,0,1,1.344.193c.6.119,1.031.215,1.248.287a.711.711,0,0,1,.5.7c0,.072-.023.24-.048.528m4.056-1.32a4.658,4.658,0,0,0-.071.84v9.457a23.949,23.949,0,0,1-.144,2.929c-.168,1.343-.5,2.04-.984,2.04-.361,0-.553-.649-.553-1.92V31.863a4.2,4.2,0,0,0-2.111-1.3c-.241-.072-.361-.191-.361-.312q0-.36.937-.36a8.822,8.822,0,0,1,2.783.576.7.7,0,0,1,.553.672,1.93,1.93,0,0,1-.049.5" fill="#333"/>
    <path id="패스_1739" data-name="패스 1739" d="M102.983,37.12a1.046,1.046,0,0,0-.312.36,19.119,19.119,0,0,1-3.12,4.176l1.321,1.08a3.665,3.665,0,0,0,1.343.721,1.708,1.708,0,0,1,.84.384,5.5,5.5,0,0,1,1.344,1.8,1.411,1.411,0,0,1,.121.529c0,.384-.121.6-.457.6a1.3,1.3,0,0,1-.816-.407L98.783,42.4a30.447,30.447,0,0,1-7.177,4.992.646.646,0,0,1-.335.1c-.146,0-.217-.1-.217-.265,0-.095.1-.215.265-.335a30.075,30.075,0,0,0,9.385-9.7c-1.345.024-3.072.1-4.417.216a3.468,3.468,0,0,0-1.513.36.7.7,0,0,1-.408.144.833.833,0,0,1-.312-.072,9.553,9.553,0,0,1-1.92-.936c-.216-.12-.311-.24-.311-.408s.119-.216.359-.192a20.755,20.755,0,0,0,2.592.168c1.824.024,4.009-.048,5.594-.192a2.053,2.053,0,0,0,.623-.12,1.758,1.758,0,0,1,.6-.168,4.949,4.949,0,0,1,1.345.191c.265.073.408.193.408.337,0,.287-.12.408-.36.6m-2.952-2.832q-1.045.035-3.024.144a1.652,1.652,0,0,1-.936-.264,8.242,8.242,0,0,1-1.344-1.057.5.5,0,0,1-.192-.384c0-.143.095-.215.311-.215a2.4,2.4,0,0,1,.457.072,27.141,27.141,0,0,0,4.68.408c.576,0,.864.191.864.6,0,.456-.264.7-.816.7m8.448-1.752V45.449c0,4.752-.383,7.1-1.2,7.1q-.5,0-.5-2.377V31.935a4.45,4.45,0,0,0-2.305-1.368c-.216-.072-.336-.168-.336-.288,0-.264.288-.384.912-.384a9.51,9.51,0,0,1,3,.529.684.684,0,0,1,.553.672c0,.311-.121,1.152-.121,1.44" fill="#333"/>
    <path id="패스_1740" data-name="패스 1740" d="M120.047,40.408,120,44.9a76.52,76.52,0,0,0,8.256-1.1V31.935a4.449,4.449,0,0,0-2.279-1.368c-.217-.072-.336-.168-.336-.288,0-.264.287-.384.912-.384a9.769,9.769,0,0,1,3,.528.662.662,0,0,1,.527.672c0,.312-.119,1.008-.119,1.441V39.9a2.317,2.317,0,0,0,1.3-.408,1.22,1.22,0,0,1,.528-.264,5.646,5.646,0,0,1,2.112,0,.648.648,0,0,1,.576.672c0,.528-.336.768-1.008.768-.84.024-2.015.048-3.5.1v4.7a35.493,35.493,0,0,1-.217,4.776c-.191,1.561-.5,2.305-.959,2.305-.361,0-.529-.792-.529-2.377V44.608a74.694,74.694,0,0,1-10.56,1.824,3.149,3.149,0,0,0-1.2.36,1.038,1.038,0,0,1-.5.121,1.323,1.323,0,0,1-.48-.1,10.64,10.64,0,0,1-2.377-1.225c-.216-.143-.359-.311-.336-.48,0-.168.193-.24.528-.192a21.236,21.236,0,0,0,3.169.168c.551,0,1.224-.024,1.92-.072l-.072-4.824a2.652,2.652,0,0,0-1.608-.937c-.24-.071-.361-.168-.361-.336,0-.191.289-.336.769-.336a11.422,11.422,0,0,1,2.448.265c.432.1.6.359.527.72a4.948,4.948,0,0,0-.071.84m5.257-6.265a26.739,26.739,0,0,1-1.633,7.321q-.216.5-.5.5c-.191,0-.288-.12-.288-.336,0-.1.025-.192.048-.385a50.407,50.407,0,0,0,.385-7.127c-1.513.023-3.408.1-4.656.191a5.676,5.676,0,0,0-2.017.48,1.186,1.186,0,0,1-.456.144,1.506,1.506,0,0,1-.5-.12,9.228,9.228,0,0,1-1.873-.96c-.215-.144-.312-.264-.312-.432,0-.192.168-.263.48-.216a19.035,19.035,0,0,0,3.049.192c1.536,0,3.84-.071,5.688-.239a1.766,1.766,0,0,0,.624-.145,1.73,1.73,0,0,1,.649-.168,4.747,4.747,0,0,1,1.56.288.35.35,0,0,1,.239.336c0,.24-.167.408-.479.672" fill="#333"/>
    <path id="패스_1741" data-name="패스 1741" d="M156.576,43.049a1.22,1.22,0,0,1-.769-.409l-4.2-3.816a27.817,27.817,0,0,1-7.129,5.208.6.6,0,0,1-.336.1c-.145,0-.216-.1-.216-.265,0-.119.1-.216.265-.336,3.24-2.208,7.2-6.12,8.928-9.744-1.417,0-3.1.1-4.225.216a2.737,2.737,0,0,0-1.176.359.826.826,0,0,1-.408.145,1.719,1.719,0,0,1-.455-.1,7.04,7.04,0,0,1-1.752-.889c-.193-.12-.289-.24-.289-.383,0-.168.121-.241.336-.216a20.979,20.979,0,0,0,2.5.168,48.41,48.41,0,0,0,5.161-.193,3.05,3.05,0,0,0,.647-.12,1.535,1.535,0,0,1,.6-.168,4.813,4.813,0,0,1,1.319.193c.289.072.433.24.433.408,0,.143-.12.288-.336.479a1.787,1.787,0,0,0-.36.385A18.252,18.252,0,0,1,152.3,38.1l1.417,1.176a3.9,3.9,0,0,0,1.3.768,1.462,1.462,0,0,1,.889.432,5.963,5.963,0,0,1,1.08,1.489,1.5,1.5,0,0,1,.1.551.463.463,0,0,1-.5.529m5.208,8.064c-3.457,0-7.249.025-9.169.048-1.944.024-2.52-.552-2.544-2.088V46.121c-.168-.313-.841-.576-2.064-.816-.264-.048-.385-.193-.385-.361,0-.191.528-.431.889-.431a18.507,18.507,0,0,1,2.88.192c.384.071.552.311.479.744-.023.264-.047.6-.047.983v3.073a.632.632,0,0,0,.672.72c1.2.048,2.784.048,4.368-.024a6.46,6.46,0,0,0,2.352-.384,1.949,1.949,0,0,1,.817-.288,10.45,10.45,0,0,1,2.04.1c.431.1.672.336.672.721,0,.5-.336.767-.96.767m-.769-18.577v8.736a20.322,20.322,0,0,1-.215,3.168c-.192,1.393-.5,2.065-.984,2.065-.361,0-.529-.7-.529-2.088v-12.5a4.777,4.777,0,0,0-2.28-1.345c-.24-.072-.359-.168-.359-.288,0-.264.287-.384.912-.384a9.754,9.754,0,0,1,3.023.529.662.662,0,0,1,.529.672c0,.311-.1,1.128-.1,1.44" fill="#333"/>
    <path id="패스_1742" data-name="패스 1742" d="M185.808,48.4c-.889-.072-1.969-.12-2.954-.12-3.671,0-8.879.144-11.664.336a6.087,6.087,0,0,0-2.232.432,1.143,1.143,0,0,1-.5.12A1.6,1.6,0,0,1,168,49.1a9.688,9.688,0,0,1-2.3-1.1c-.216-.144-.336-.263-.336-.5,0-.168.168-.216.48-.168a24.65,24.65,0,0,0,3.528.264c.912,0,1.944,0,3-.024l-.072-2.329a2.6,2.6,0,0,0-1.656-.935c-.241-.072-.384-.168-.384-.336,0-.216.288-.336.816-.336a11.682,11.682,0,0,1,2.544.359c.336.073.5.265.456.553-.048.36-.071.648-.1.888l-.1,2.112c1.777-.024,3.6-.1,5.257-.144l.12-2.64a2.548,2.548,0,0,0-1.368-1.008c-.24-.1-.336-.192-.336-.385,0-.215.311-.288.815-.263a8.81,8.81,0,0,1,2.377.5.515.515,0,0,1,.36.673c-.072.311-.12.551-.168.815l-.36,2.232h.1a7.124,7.124,0,0,0,2.424-.36,2.053,2.053,0,0,1,.865-.264,8.1,8.1,0,0,1,2.279.288c.457.12.672.36.672.7,0,.576-.432.768-1.1.72M183,42.376c-3.385,0-7.752.048-11.089.168-1.632.024-2.231-.5-2.231-1.969V37.983a2.882,2.882,0,0,0-1.513-.72c-.24-.048-.36-.168-.36-.336,0-.216.216-.336.576-.336a20.043,20.043,0,0,1,2.448.144,3.619,3.619,0,0,1,.505.12,1.4,1.4,0,0,0,.5.072c2.16,0,6.12-.072,8.351-.192a.518.518,0,0,0,.336-.214,31.986,31.986,0,0,0,.145-3.458c-2.04-.024-4.872.024-6.576.145a6.351,6.351,0,0,0-2.305.48,1.12,1.12,0,0,1-.455.143,1.859,1.859,0,0,1-.505-.119,10.1,10.1,0,0,1-2.04-1.009c-.24-.168-.359-.288-.359-.432,0-.191.168-.264.5-.215a22.963,22.963,0,0,0,3.072.215c2.687-.024,5.976-.073,8.112-.191a1.907,1.907,0,0,0,.624-.121,1.608,1.608,0,0,1,.6-.167,6.542,6.542,0,0,1,1.32.167c.313.072.481.191.481.433,0,.262-.168.431-.5.7a30.909,30.909,0,0,1-.793,3.456c.6.168.912.384.912.648,0,.289-.216.456-.648.48-3.551.048-8.065.12-10.585.216-.023.169-.023.48-.023.48v2.544q0,.65.575.649c1.488,0,4.057-.025,6.073-.1a5.168,5.168,0,0,0,2.064-.36,2.671,2.671,0,0,1,.912-.289,11.012,11.012,0,0,1,2.16.1c.433.072.7.313.7.673,0,.552-.359.792-.984.792" fill="#333"/>
    <path id="패스_1743" data-name="패스 1743" d="M195.166,40.408l-.048,4.488a76.519,76.519,0,0,0,8.256-1.1V31.935a4.449,4.449,0,0,0-2.279-1.368c-.217-.072-.336-.168-.336-.288,0-.264.287-.384.912-.384a9.769,9.769,0,0,1,3,.528.662.662,0,0,1,.527.672c0,.312-.119,1.008-.119,1.441V39.9a2.317,2.317,0,0,0,1.3-.408,1.22,1.22,0,0,1,.528-.264,5.646,5.646,0,0,1,2.112,0,.648.648,0,0,1,.576.672c0,.528-.336.768-1.008.768-.84.024-2.015.048-3.5.1v4.7a35.493,35.493,0,0,1-.217,4.776c-.191,1.561-.5,2.305-.959,2.305-.361,0-.529-.792-.529-2.377V44.608a74.693,74.693,0,0,1-10.56,1.824,3.149,3.149,0,0,0-1.2.36,1.038,1.038,0,0,1-.5.121,1.323,1.323,0,0,1-.48-.1,10.64,10.64,0,0,1-2.377-1.225c-.216-.143-.359-.311-.336-.48,0-.168.193-.24.528-.192a21.236,21.236,0,0,0,3.169.168c.551,0,1.224-.024,1.92-.072l-.072-4.824a2.652,2.652,0,0,0-1.608-.937c-.24-.071-.361-.168-.361-.336,0-.191.289-.336.769-.336a11.422,11.422,0,0,1,2.448.265c.432.1.6.359.527.72a4.948,4.948,0,0,0-.071.84m5.257-6.265a26.739,26.739,0,0,1-1.633,7.321q-.216.5-.5.5c-.191,0-.288-.12-.288-.336,0-.1.025-.192.048-.385a50.409,50.409,0,0,0,.385-7.127c-1.513.023-3.408.1-4.656.191a5.676,5.676,0,0,0-2.017.48,1.186,1.186,0,0,1-.456.144,1.506,1.506,0,0,1-.5-.12,9.228,9.228,0,0,1-1.873-.96c-.215-.144-.312-.264-.312-.432,0-.192.168-.263.48-.216a19.035,19.035,0,0,0,3.049.192c1.536,0,3.84-.071,5.688-.239a1.766,1.766,0,0,0,.624-.145,1.73,1.73,0,0,1,.649-.168,4.747,4.747,0,0,1,1.56.288.35.35,0,0,1,.239.336c0,.24-.167.408-.479.672" fill="#333"/>
    <path id="패스_1744" data-name="패스 1744" d="M230.927,42.5c-.889-.071-1.969-.119-2.953-.119-3.672,0-8.88.143-11.664.336a6.092,6.092,0,0,0-2.233.431,1.161,1.161,0,0,1-.5.121,1.634,1.634,0,0,1-.456-.073,9.7,9.7,0,0,1-2.3-1.1c-.217-.145-.336-.265-.336-.5,0-.169.168-.217.479-.169a24.65,24.65,0,0,0,3.528.265c1.729,0,3.889-.025,6.025-.073V38.344c-1.128.024-2.208.048-3.193.072-.12.768-.383,1.152-.839,1.152-.288,0-.481-.431-.577-1.272l-.528-5.592a4.157,4.157,0,0,0-1.608-.792c-.264-.072-.383-.145-.383-.313,0-.192.383-.408.672-.408a15,15,0,0,1,2.183.145,4.372,4.372,0,0,1,1.008.239c2.737,0,5.761-.071,7.85-.168a2.086,2.086,0,0,0,.672-.168,1.213,1.213,0,0,1,.455-.1,6.031,6.031,0,0,1,1.416.216c.264.073.385.168.385.336a.667.667,0,0,1-.361.553c-.12.071-.216.168-.216.239a41.911,41.911,0,0,1-.767,4.609c.623.168.935.384.935.7,0,.36-.336.528-1.032.5-1.416,0-2.9,0-4.368.024l-.024,3.24c1.272-.047,2.5-.1,3.6-.144a7.158,7.158,0,0,0,2.424-.359,2.056,2.056,0,0,1,.865-.265,8.136,8.136,0,0,1,2.279.288c.457.12.672.36.672.7,0,.576-.431.769-1.1.72m-3.649,3.312-.072,2.905c-.023.6-.072,1.177-.143,1.776q-.324,2.016-1.009,2.017c-.383,0-.576-.7-.576-2.065V45.833c-1.92,0-4.128.048-6,.168a6.092,6.092,0,0,0-2.3.5.919.919,0,0,1-.432.143,1.222,1.222,0,0,1-.48-.095,12.275,12.275,0,0,1-2.112-1.033c-.24-.143-.36-.311-.36-.456,0-.168.144-.263.456-.215a19.6,19.6,0,0,0,3.168.24c1.8,0,5.257-.12,7.393-.264a2.443,2.443,0,0,0,.648-.1,2.079,2.079,0,0,1,.6-.1,4.283,4.283,0,0,1,1.129.168c.336.1.455.192.455.36,0,.216-.119.384-.36.647m-9.984-13.272a5.211,5.211,0,0,0-.024.6l.071,4.3c2.736.048,5.617,0,7.657-.12a.5.5,0,0,0,.433-.312l.119-4.609c-2.52-.023-5.568.025-8.256.145" fill="#333"/>
    <path id="패스_1745" data-name="패스 1745" d="M13.968.092h2.2a2.093,2.093,0,0,1,.164,4.183c-.052,0-.1,0-.154,0H14.632V6.816h-.66Zm2.18,3.588a1.5,1.5,0,1,0-.007-3H14.628v3Z" fill="#595757"/>
    <path id="패스_1746" data-name="패스 1746" d="M24.363.092h.66V6.225H28.21v.591H24.363Z" fill="#595757"/>
    <path id="패스_1747" data-name="패스 1747" d="M39.283.092V4.54a2.57,2.57,0,0,1-5.127,0V.092h.66v4.4a1.9,1.9,0,1,0,3.8,0V.092Z" fill="#595757"/>
    <path id="패스_1748" data-name="패스 1748" d="M47.706.588c-.926,0-1.56.516-1.56,1.221s.693,1.024,1.33,1.2l.7.2c.841.233,1.839.676,1.839,1.812,0,1.083-.874,1.911-2.351,1.911-1.388,0-2.261-.732-2.338-1.812H46c.066.789.772,1.211,1.662,1.211.991,0,1.707-.528,1.707-1.319,0-.677-.574-.979-1.389-1.216l-.8-.232c-1.057-.309-1.674-.851-1.674-1.725a2.253,2.253,0,0,1,4.418-.055h-.643a1.409,1.409,0,0,0-1.577-1.2" fill="#595757"/>
    <path id="패스_1749" data-name="패스 1749" d="M56.055,6.815V.092h2.107c1.93,0,3.073,1.258,3.073,3.345,0,2.114-1.156,3.378-3.185,3.378Zm1.959-.591c1.707,0,2.577-1.05,2.574-2.787,0-1.717-.851-2.755-2.465-2.755H56.715V6.224Z" fill="#595757"/>
    <path id="패스_1750" data-name="패스 1750" d="M67.283.092h3.94V.683H67.939V3.155h3.069v.588H67.939V6.225h3.338v.591h-4Z" fill="#595757"/>
    <path id="패스_1751" data-name="패스 1751" d="M82.625,6.815h-.633L78.086,1.274h-.057V6.815H77.37V.092h.64l3.914,5.552h.056V.092h.646Z" fill="#595757"/>
    <path id="패스_1752" data-name="패스 1752" d="M96.02,6.815V.092h2.108c1.93,0,3.072,1.258,3.072,3.345,0,2.114-1.155,3.378-3.184,3.378Zm1.961-.591c1.706,0,2.577-1.05,2.572-2.787,0-1.717-.85-2.755-2.464-2.755H96.68V6.224Z" fill="#595757"/>
    <path id="패스_1753" data-name="패스 1753" d="M107.247.092h3.94V.683H107.9V3.155h3.069v.588H107.9V6.225h3.338v.591h-4Z" fill="#595757"/>
    <path id="패스_1754" data-name="패스 1754" d="M122.589,6.815h-.634l-3.9-5.541h-.057V6.815h-.66V.092h.641l3.913,5.552h.056V.092h.646Z" fill="#595757"/>
    <path id="패스_1755" data-name="패스 1755" d="M128.536.092h4.917V.683h-2.124V6.815h-.664V.683h-2.129Z" fill="#595757"/>
    <path id="패스_1756" data-name="패스 1756" d="M137.984,6.815,140.431.092h.711l2.446,6.723h-.7l-.709-2h-2.793l-.713,2Zm3.989-2.587L140.808.945h-.042L139.6,4.228Z" fill="#595757"/>
    <path id="패스_1757" data-name="패스 1757" d="M149.308.092h.66V6.225h3.187v.591h-3.847Z" fill="#595757"/>
    <path id="패스_1758" data-name="패스 1758" d="M168.776.621c-1.26,0-2.278,1-2.278,2.833s1.018,2.833,2.278,2.833a1.986,1.986,0,0,0,2.006-1.576h.667a2.625,2.625,0,0,1-2.673,2.2c-1.706,0-2.921-1.346-2.921-3.454S167.07,0,168.776,0a2.623,2.623,0,0,1,2.673,2.2h-.667A1.985,1.985,0,0,0,168.776.621" fill="#595757"/>
    <path id="패스_1759" data-name="패스 1759" d="M177.457.092h.66V6.225H181.3v.591h-3.847Z" fill="#595757"/>
    <rect id="사각형_1027" data-name="사각형 1027" width="0.66" height="6.723" transform="translate(187.252 0.091)" fill="#595757"/>
    <path id="패스_1760" data-name="패스 1760" d="M199.512,6.815h-.634l-3.9-5.541h-.057V6.815h-.66V.092h.64l3.914,5.552h.056V.092h.646Z" fill="#595757"/>
    <rect id="사각형_1028" data-name="사각형 1028" width="0.661" height="6.723" transform="translate(205.858 0.091)" fill="#595757"/>
    <path id="패스_1761" data-name="패스 1761" d="M215.49.621c-1.26,0-2.277,1-2.277,2.833s1.017,2.833,2.277,2.833a1.985,1.985,0,0,0,2-1.576h.667a2.626,2.626,0,0,1-2.673,2.2c-1.706,0-2.921-1.346-2.921-3.454S213.783,0,215.489,0a2.623,2.623,0,0,1,2.673,2.2h-.667a1.984,1.984,0,0,0-2-1.582" fill="#595757"/>
  </g>
</svg>
