<svg id="그룹_1618" data-name="그룹 1618" xmlns="http://www.w3.org/2000/svg" xmlns:xlink="http://www.w3.org/1999/xlink" width="266.23" height="51.553" viewBox="0 0 266.23 51.553">
  <defs>
    <clipPath id="clip-path">
      <rect id="사각형_999" data-name="사각형 999" width="266.23" height="51.553" transform="translate(0 0)" fill="none"/>
    </clipPath>
  </defs>
  <g id="그룹_1617" data-name="그룹 1617" clip-path="url(#clip-path)">
    <path id="패스_1410" data-name="패스 1410" d="M11.929,35.832a1.029,1.029,0,0,0-.312.36,18.866,18.866,0,0,1-3.1,4.152l1.344,1.1a3.692,3.692,0,0,0,1.344.721,1.713,1.713,0,0,1,.84.383,5.532,5.532,0,0,1,1.344,1.8,1.39,1.39,0,0,1,.12.529c0,.383-.12.6-.456.6a1.3,1.3,0,0,1-.816-.407L7.753,41.089A30.743,30.743,0,0,1,.552,46.1a.658.658,0,0,1-.336.1C.073,46.2,0,46.1,0,45.936c0-.1.1-.216.264-.336a30.051,30.051,0,0,0,9.385-9.7c-1.344.023-3.072.1-4.416.216a3.472,3.472,0,0,0-1.513.36.7.7,0,0,1-.407.144A.809.809,0,0,1,3,36.551a9.561,9.561,0,0,1-1.921-.935c-.215-.12-.312-.24-.312-.408s.12-.216.36-.193a20.566,20.566,0,0,0,2.592.168c1.825.025,4.009-.048,5.593-.191a2.054,2.054,0,0,0,.624-.12,1.756,1.756,0,0,1,.6-.168,4.953,4.953,0,0,1,1.344.191c.264.073.408.193.408.337,0,.288-.12.407-.36.6M8.977,33q-1.044.034-3.024.143a1.635,1.635,0,0,1-.936-.263,8.157,8.157,0,0,1-1.344-1.057.5.5,0,0,1-.192-.384c0-.143.1-.216.312-.216a2.425,2.425,0,0,1,.456.073,27.258,27.258,0,0,0,4.68.408c.576,0,.864.191.864.6,0,.457-.264.7-.816.7m11.617,6.864c-.864.024-2.04.048-3.576.12v4.465a36.941,36.941,0,0,1-.24,4.848c-.192,1.512-.5,2.256-.96,2.256-.36,0-.528-.792-.528-2.376V30.912a4.632,4.632,0,0,0-2.257-1.345c-.24-.072-.359-.168-.359-.311q0-.362.936-.361a9.492,9.492,0,0,1,2.976.529.661.661,0,0,1,.528.671c0,.289-.1,1.1-.1,1.441V39.1a2.11,2.11,0,0,0,1.368-.408,1.22,1.22,0,0,1,.528-.264,5.208,5.208,0,0,1,2.113,0,.65.65,0,0,1,.576.672c0,.528-.337.768-1.009.768" fill="#333"/>
    <path id="패스_1411" data-name="패스 1411" d="M34.608,31.631a6.117,6.117,0,0,0-.048.936l-.023.72c.527.048,1.032.048,1.7.048.864-.024,1.944-.048,2.976-.168V30.911a4.6,4.6,0,0,0-2.28-1.344c-.24-.073-.36-.168-.36-.288,0-.264.312-.384.936-.384a9.546,9.546,0,0,1,3,.528.684.684,0,0,1,.551.672c0,.191-.095.768-.095,1.44v5.256a20.11,20.11,0,0,1-.145,2.689c-.168,1.3-.527,1.968-1.008,1.968-.408,0-.6-.6-.6-1.728v-1.3c-.72.025-1.464.072-2.04.145a3.349,3.349,0,0,0-.816.24,1.088,1.088,0,0,1-.408.12.963.963,0,0,1-.36-.072,5.982,5.982,0,0,1-1.1-.5,10.612,10.612,0,0,1-.168,1.439c-.168.961-.528,1.368-1.009,1.368-.311,0-.5-.335-.551-1.151l-6.025.1c-.168,1.032-.528,1.56-1.032,1.56-.36,0-.576-.505-.6-1.464l-.12-7.153a2.891,2.891,0,0,0-1.753-.912c-.263-.072-.407-.168-.407-.336,0-.192.5-.432.792-.432a13.047,13.047,0,0,1,2.64.288q.648.108.648.648a1.608,1.608,0,0,1-.024.313,3.7,3.7,0,0,0-.024.527l-.024,1.584,5.929-.1V31.919a3.345,3.345,0,0,0-1.729-1.056c-.168-.072-.264-.144-.264-.288,0-.24.241-.36.745-.36a9.641,9.641,0,0,1,2.759.5c.265.1.385.216.385.48a3.709,3.709,0,0,1-.049.432m-1.847,4.008-5.929.12-.024,3.36L32.761,39Zm8.5,14.666c-2.4,0-6.577.023-9.793.071-1.416.025-1.992-.383-1.992-1.775V46.8a3.419,3.419,0,0,0-1.513-.7c-.239-.071-.36-.168-.36-.312,0-.24.192-.336.6-.336a17.178,17.178,0,0,1,2.425.168,2.313,2.313,0,0,1,.479.144,1.731,1.731,0,0,0,.529.072c2.328,0,4.944-.048,6.768-.192a.467.467,0,0,0,.336-.216,18.039,18.039,0,0,0,.025-2.3c-1.729.024-4.009.1-5.809.192a4.272,4.272,0,0,0-1.681.312,1.125,1.125,0,0,1-.576.168,1.219,1.219,0,0,1-.479-.1,9.605,9.605,0,0,1-1.992-.984c-.145-.1-.216-.192-.216-.312,0-.192.143-.289.407-.24a20.015,20.015,0,0,0,2.736.24c2.04.048,4.681-.024,7.081-.192a1.944,1.944,0,0,0,.648-.192.962.962,0,0,1,.456-.1,5.538,5.538,0,0,1,1.585.24c.216.072.311.168.311.312a.646.646,0,0,1-.336.5.376.376,0,0,0-.192.264c-.168.792-.336,1.464-.576,2.232.6.12.841.337.841.6,0,.312-.217.48-.649.48-2.952.024-6.312.072-9,.169a3.691,3.691,0,0,0-.023.479v1.729c0,.336.143.5.479.5,1.513.023,3.649,0,4.993-.073a5.272,5.272,0,0,0,2.064-.383,2.267,2.267,0,0,1,.864-.265,11.458,11.458,0,0,1,1.968.169.627.627,0,0,1,.576.672c0,.5-.336.744-.983.744m-6.721-16.25-.048,3.505c.5.048,1.031.048,1.68.048a27.647,27.647,0,0,0,3.048-.216V34.127c-.743.025-1.44.1-1.968.168a3.394,3.394,0,0,0-.816.24,1.092,1.092,0,0,1-.408.121.965.965,0,0,1-.36-.073,6.912,6.912,0,0,1-1.128-.528" fill="#333"/>
    <path id="패스_1412" data-name="패스 1412" d="M53.4,42.768V44.88c2.616-.263,5.328-.648,7.057-.984V30.935a4.46,4.46,0,0,0-2.281-1.368c-.215-.072-.336-.168-.336-.288,0-.264.289-.384.913-.384a9.779,9.779,0,0,1,3,.528.662.662,0,0,1,.528.672c0,.312-.12,1.152-.12,1.441v7.392A2.229,2.229,0,0,0,63.5,38.52a1.22,1.22,0,0,1,.529-.265,5.709,5.709,0,0,1,2.112,0,.651.651,0,0,1,.576.673c0,.527-.337.768-1.009.768-.864.024-2.04.048-3.551.12v4.633a40.474,40.474,0,0,1-.216,4.8c-.192,1.561-.505,2.305-.961,2.305-.359,0-.527-.792-.527-2.377V44.712A80.886,80.886,0,0,1,50.04,46.537a3.6,3.6,0,0,0-1.2.36,1.025,1.025,0,0,1-.5.119,1.286,1.286,0,0,1-.481-.1,10.38,10.38,0,0,1-2.4-1.223c-.216-.145-.36-.313-.336-.481,0-.168.192-.24.528-.192a18.748,18.748,0,0,0,3.168.168c.889-.024,1.9-.1,2.952-.168V42.792c-2.063-.288-4.08-1.68-4.08-3.7,0-2.064,2.112-3.337,4.225-3.553a.543.543,0,0,0,.192-.456.678.678,0,0,0-.385-.576h-.048l-1.847.145a3.934,3.934,0,0,0-1.465.311,1.065,1.065,0,0,1-.456.145,1.433,1.433,0,0,1-.527-.145,5.6,5.6,0,0,1-1.777-.935.539.539,0,0,1-.24-.385c0-.168.145-.216.408-.192a18.058,18.058,0,0,0,2.76.192c1.921,0,3.745-.048,5.329-.144a5.2,5.2,0,0,0,1.9-.336,1.983,1.983,0,0,1,1.008-.312,5.728,5.728,0,0,1,1.584.217c.529.143.744.383.744.695,0,.48-.288.7-.936.673-.6-.049-1.512-.072-2.689-.072-.792,0-1.607.023-2.4.047a.918.918,0,0,1,.359.577.719.719,0,0,1-.215.551c2.088.216,4.152,1.489,4.152,3.553,0,1.992-1.944,3.36-3.96,3.672m.864-10.849c-1.177.024-2.016.073-2.568.12-.168.024-.313.024-.481.048a1.5,1.5,0,0,1-.96-.288,5.333,5.333,0,0,1-1.368-1.128.468.468,0,0,1-.143-.312c0-.12.143-.192.359-.192a2.684,2.684,0,0,1,.456.072,25.458,25.458,0,0,0,4.705.408c.552,0,.864.168.864.576,0,.432-.312.672-.864.7M52.608,36.6c-1.7,0-3.145.96-3.145,2.424,0,1.512,1.441,2.568,3.145,2.568s3.12-1.056,3.12-2.568c0-1.464-1.416-2.424-3.12-2.424" fill="#333"/>
    <path id="패스_1413" data-name="패스 1413" d="M80.856,38.208c-1.248.048-2.568.12-3.96.192l-.024,2.952c2.761-.263,5.713-.624,7.489-.936v-9.5a4.758,4.758,0,0,0-2.305-1.345c-.215-.072-.336-.168-.336-.288,0-.264.289-.384.913-.384a9.765,9.765,0,0,1,3.024.529.684.684,0,0,1,.552.671c0,.312-.12,1.128-.12,1.441v9.049a23.063,23.063,0,0,1-.216,3.143c-.216,1.393-.528,2.113-.96,2.113-.384,0-.552-.72-.552-2.136V41.257a92.9,92.9,0,0,1-11.426,1.752,2.793,2.793,0,0,0-1.151.36,1.225,1.225,0,0,1-.528.168,2.422,2.422,0,0,1-.6-.12A11.215,11.215,0,0,1,68.3,42.289a.579.579,0,0,1-.312-.456c0-.168.168-.313.5-.265a21.273,21.273,0,0,0,3.36.168c.912-.023,2.089-.12,3.361-.216l-.024-3.048c-.6.024-1.2.024-1.8.048-1.847.073-2.519-.6-2.519-2.112V32.88a3.073,3.073,0,0,0-1.9-.84c-.263-.1-.383-.193-.383-.361,0-.192.5-.456.887-.456a15.415,15.415,0,0,1,2.473.168,3.608,3.608,0,0,1,.768.216c1.152.025,2.808-.023,3.96-.1a3.074,3.074,0,0,0,1.344-.335,1.946,1.946,0,0,1,.744-.241,12.138,12.138,0,0,1,2.065.048.74.74,0,0,1,.72.721c0,.527-.336.72-.937.744-2.231.048-5.376.1-7.9.168a5.755,5.755,0,0,0-.048.743V36.84c0,.48.215.72.648.72.888,0,2.352-.024,3.456-.1a4.311,4.311,0,0,0,1.656-.432,2.117,2.117,0,0,1,.84-.264,9.289,9.289,0,0,1,1.849.024c.479.072.695.264.695.7,0,.48-.359.7-.96.72m5.593,12.073c-3.12,0-7.585.024-9.5.048a2.775,2.775,0,0,1-2.088-.527,2.475,2.475,0,0,1-.432-1.561L74.4,46.369a3.622,3.622,0,0,0-2.089-.864c-.239-.048-.359-.144-.359-.313,0-.191.527-.455.888-.455a18.533,18.533,0,0,1,2.88.191c.384.073.552.313.48.745-.024.288-.048.6-.048.984V48.7c0,.456.216.744.672.744,1.272.024,3,0,4.7-.048a6.164,6.164,0,0,0,2.305-.384,2.216,2.216,0,0,1,.864-.289,10.865,10.865,0,0,1,2.04.1.71.71,0,0,1,.672.72c0,.5-.336.768-.96.744" fill="#333"/>
    <path id="패스_1414" data-name="패스 1414" d="M110.015,34.27a1.994,1.994,0,0,0-.336.433,17.837,17.837,0,0,1-2.736,3.192l1.1.936a3.371,3.371,0,0,0,1.393.816,1.493,1.493,0,0,1,.815.384,6.571,6.571,0,0,1,.937,1.488,1.326,1.326,0,0,1,.12.529.467.467,0,0,1-.5.5,1.211,1.211,0,0,1-.768-.409l-3.913-3.528a27.262,27.262,0,0,1-7.1,4.3.939.939,0,0,1-.336.071c-.144,0-.217-.1-.217-.263,0-.121.1-.216.265-.313,2.952-1.607,7.177-5.04,9-8.04-1.393.023-3.025.12-4.249.24a4.1,4.1,0,0,0-1.488.36.717.717,0,0,1-.36.12,1.043,1.043,0,0,1-.36-.073,6.913,6.913,0,0,1-1.824-.959c-.193-.121-.288-.241-.288-.384,0-.168.12-.216.36-.193a22.246,22.246,0,0,0,2.5.168c1.416.025,3.937-.071,5.4-.215a2.2,2.2,0,0,0,.649-.121,1.6,1.6,0,0,1,.624-.168,4.69,4.69,0,0,1,1.3.168c.288.073.431.217.431.385s-.168.336-.408.575m-3.023-2.423c-.817.024-1.393.047-2.16.095a5.037,5.037,0,0,1-.6.025,1.634,1.634,0,0,1-.864-.264,6.82,6.82,0,0,1-1.321-.961.548.548,0,0,1-.191-.407c0-.12.12-.193.336-.193a4.828,4.828,0,0,1,.6.1,23.093,23.093,0,0,0,4.176.336c.529,0,.817.168.817.576,0,.481-.288.672-.792.7m9.049,12.361a.779.779,0,0,0-.217.384c-.192,1.464-.384,2.591-.7,4.248q.936.252.936.72c0,.336-.336.5-1.008.48-2.568,0-5.736.048-8.449.12-.168.816-.407,1.2-.84,1.2-.311,0-.5-.408-.576-1.223l-.552-5.45a2.554,2.554,0,0,0-1.512-.792c-.264-.071-.384-.191-.384-.336,0-.24.288-.359.672-.359a13.7,13.7,0,0,1,2.064.144,4.358,4.358,0,0,1,1.008.24c1.9,0,4.993-.072,7.081-.193a2.1,2.1,0,0,0,.48-.095,1.755,1.755,0,0,1,.528-.12,5.631,5.631,0,0,1,1.44.192c.264.071.384.191.384.359,0,.145-.168.313-.359.481m-9.482.288a5.021,5.021,0,0,0-.023.6l.119,4.08c2.112.024,5.233-.048,6.793-.144a.664.664,0,0,0,.456-.312l.072-4.369c-2.425,0-5.16.073-7.417.145m9.505-12.961v6.624a19,19,0,0,1-.168,2.593c-.168,1.344-.5,1.992-.96,1.992-.408,0-.6-.576-.6-1.753V37.775c-.575.048-1.1.12-1.511.192a2.173,2.173,0,0,0-.84.288.89.89,0,0,1-.384.12,1.019,1.019,0,0,1-.385-.071,7.568,7.568,0,0,1-1.679-.889c-.168-.12-.241-.192-.241-.359,0-.145.145-.193.457-.169.648.048,1.272.072,2.087.072s1.7-.048,2.5-.12V30.934a4.591,4.591,0,0,0-2.3-1.368c-.216-.072-.336-.168-.336-.288,0-.264.288-.384.912-.384a9.51,9.51,0,0,1,3,.529.707.707,0,0,1,.576.672c0,.311-.12,1.128-.12,1.44" fill="#333"/>
    <path id="패스_1415" data-name="패스 1415" d="M140.832,38.184c-.84.023-2.016.048-3.528.1v1.968a19.777,19.777,0,0,1-.216,3.145c-.192,1.392-.5,2.112-.984,2.112-.36,0-.528-.72-.528-2.136v-3.7a57.416,57.416,0,0,1-10.441,2.279,5.451,5.451,0,0,1-1.3,0,1.36,1.36,0,0,1-.96-.672,2.819,2.819,0,0,1-.336-1.559l-.048-6c-.288-.48-.816-.72-1.848-.936-.264-.049-.384-.144-.384-.336s.5-.456.864-.456a15.291,15.291,0,0,1,2.376.192,3.206,3.206,0,0,1,.84.24c.72.024,2.064-.024,3.168-.072a2.856,2.856,0,0,0,1.417-.36,1.556,1.556,0,0,1,.719-.288,6.7,6.7,0,0,1,1.825.024c.456.072.719.264.719.744,0,.456-.408.72-1.08.72-1.776.024-4.776.12-6.768.216a3.636,3.636,0,0,0-.048.7v5.833c0,.383.168.528.528.528a59.936,59.936,0,0,0,10.753-1.536V30.911a4.81,4.81,0,0,0-2.257-1.344c-.239-.073-.359-.168-.359-.289,0-.263.288-.383.912-.383a9.769,9.769,0,0,1,3,.528.662.662,0,0,1,.528.672c0,.311-.1,1.128-.1,1.44v5.88a2.313,2.313,0,0,0,1.32-.408,1.22,1.22,0,0,1,.528-.264,5.244,5.244,0,0,1,2.113,0,.635.635,0,0,1,.576.672c0,.528-.337.769-1.009.769m-2.664,11.9c-4.032,0-7.1.024-9,.049-1.943.023-2.52-.528-2.52-2.112l-.024-2.617a3.422,3.422,0,0,0-2.088-.841c-.24-.047-.36-.143-.36-.335s.5-.456.864-.456a19.423,19.423,0,0,1,2.928.192c.337.072.48.312.432.768-.024.288-.047.576-.047.984V48.5a.639.639,0,0,0,.695.721c1.249.023,2.736.023,4.225-.049a6.317,6.317,0,0,0,2.328-.384,2.3,2.3,0,0,1,.84-.288,11.756,11.756,0,0,1,2.016.12c.481.1.7.313.7.7,0,.5-.312.768-.984.768" fill="#333"/>
    <path id="패스_1416" data-name="패스 1416" d="M168.384,31.535V44.448c0,4.752-.384,7.1-1.2,7.1q-.5,0-.5-2.377V42.552a74.761,74.761,0,0,1-11.185,2.328,5.166,5.166,0,0,1-1.343.024,1.371,1.371,0,0,1-.913-.7,2.777,2.777,0,0,1-.312-1.488l-.048-8.162a3.522,3.522,0,0,0-1.9-.912c-.264-.071-.432-.119-.432-.311,0-.216.5-.481.864-.481a18.916,18.916,0,0,1,2.5.193,2.77,2.77,0,0,1,.792.24c.7,0,1.777-.024,2.88-.1a3.838,3.838,0,0,0,1.656-.431,1.844,1.844,0,0,1,.672-.264,8.563,8.563,0,0,1,1.921,0,.715.715,0,0,1,.72.768c0,.48-.36.72-1.08.744-1.92.048-4.8.168-6.769.263a3.648,3.648,0,0,0-.048.721v7.8c0,.384.192.527.552.527a78.176,78.176,0,0,0,11.473-1.536V30.934a4.443,4.443,0,0,0-2.3-1.368c-.216-.072-.336-.168-.336-.288,0-.264.288-.384.912-.384a9.51,9.51,0,0,1,3,.529.683.683,0,0,1,.552.672c0,.311-.12,1.152-.12,1.44" fill="#333"/>
    <path id="패스_1417" data-name="패스 1417" d="M185.111,33.814a1.452,1.452,0,0,0-.313.337,20.633,20.633,0,0,1-2.879,4.7l1.463,1.392a3.5,3.5,0,0,0,1.609.984,1.47,1.47,0,0,1,.816.529,4.607,4.607,0,0,1,1.224,2.3c0,.433-.192.649-.528.649-.264,0-.5-.168-.816-.5l-4.44-4.536a29.626,29.626,0,0,1-7.225,5.927.593.593,0,0,1-.336.1.235.235,0,0,1-.24-.265c0-.12.1-.215.311-.383,3.409-2.569,7.442-7.2,9.026-11.137-1.273,0-3,.048-4.153.144a2.991,2.991,0,0,0-1.392.384.765.765,0,0,1-.408.144,1.089,1.089,0,0,1-.36-.072,9.468,9.468,0,0,1-1.848-.865c-.216-.143-.336-.239-.336-.383,0-.216.144-.264.384-.241a18.693,18.693,0,0,0,2.5.168,48.718,48.718,0,0,0,5.3-.191,2.711,2.711,0,0,0,.577-.12,2.1,2.1,0,0,1,.6-.168,5.2,5.2,0,0,1,1.392.216c.288.072.408.215.408.383,0,.217-.12.336-.336.5m5.832-2.279V44.448c0,4.752-.384,7.1-1.2,7.1q-.5,0-.5-2.377V30.934a4.443,4.443,0,0,0-2.3-1.368c-.216-.072-.336-.168-.336-.288,0-.264.288-.384.912-.384a9.51,9.51,0,0,1,3,.529.683.683,0,0,1,.552.672c0,.311-.12,1.152-.12,1.44" fill="#333"/>
    <path id="패스_1418" data-name="패스 1418" d="M205.295,36.455l-5.593.192v2.4a.47.47,0,0,0,.528.528,53.182,53.182,0,0,0,7.872-.647,3.109,3.109,0,0,1,.385-.049c.168,0,.239.12.239.288,0,.192-.143.288-.383.385a40.4,40.4,0,0,1-7.873,1.487,3.327,3.327,0,0,1-1.464-.071,1.682,1.682,0,0,1-.817-.817,2.886,2.886,0,0,1-.239-1.391L197.9,33c-.192-.433-.793-.721-1.824-.937-.24-.048-.36-.168-.36-.336,0-.191.528-.456.887-.456a15.378,15.378,0,0,1,2.328.193,3.249,3.249,0,0,1,.817.24c.768.023,1.872,0,2.761-.049a3.958,3.958,0,0,0,1.631-.287,1.688,1.688,0,0,1,.624-.265,6.1,6.1,0,0,1,2.088,0,.667.667,0,0,1,.6.7c0,.479-.385.744-1.08.744-1.921.023-4.8.072-6.625.168a3.626,3.626,0,0,0-.048.7v2.3c.72,0,1.512-.024,2.256-.072a2.694,2.694,0,0,0,1.128-.264,2.478,2.478,0,0,1,.816-.312,6.55,6.55,0,0,1,1.681,0c.479.048.743.264.743.648,0,.5-.384.72-1.031.744m8.76,13.873c-2.736,0-7.153.048-9.817.072-1.416.025-1.992-.384-1.992-1.776V46.848a3.4,3.4,0,0,0-1.512-.7c-.24-.072-.36-.168-.36-.312,0-.241.192-.336.6-.336a17.163,17.163,0,0,1,2.424.168,2.356,2.356,0,0,1,.481.144,1.749,1.749,0,0,0,.527.072c2.04,0,4.921-.048,6.745-.192a.468.468,0,0,0,.336-.217,15.511,15.511,0,0,0,.048-2.183c-1.776.023-4.009.095-5.809.191a4.265,4.265,0,0,0-1.679.313,1.137,1.137,0,0,1-.576.168,1.887,1.887,0,0,1-.481-.1A8.112,8.112,0,0,1,201,42.888a.385.385,0,0,1-.216-.313c0-.191.144-.287.408-.239a23.953,23.953,0,0,0,2.737.239c2.04.049,4.679-.023,7.08-.191a1.972,1.972,0,0,0,.648-.193.973.973,0,0,1,.456-.1,5.65,5.65,0,0,1,1.584.24c.24.071.336.168.336.311a.72.72,0,0,1-.36.5.467.467,0,0,0-.192.265,11.916,11.916,0,0,1-.6,2.112c.6.119.841.336.841.6,0,.312-.217.48-.649.48-2.952.024-6.289.072-8.976.168a2.94,2.94,0,0,0-.025.48v1.7c0,.336.145.5.481.5,1.536.024,3.671,0,5.016-.072a5.524,5.524,0,0,0,2.064-.384,2.262,2.262,0,0,1,.864-.264,9.55,9.55,0,0,1,1.968.168c.432.12.576.336.576.672,0,.5-.336.744-.984.744m-.312-18.793v5.424a18.875,18.875,0,0,1-.168,2.568c-.168,1.321-.5,1.968-.96,1.968-.432,0-.624-.575-.624-1.752V35.879a12.008,12.008,0,0,0-1.44.12,3.143,3.143,0,0,0-.912.264.819.819,0,0,1-.336.12,1.039,1.039,0,0,1-.409-.072,9.041,9.041,0,0,1-1.679-.792.437.437,0,0,1-.241-.384c0-.168.145-.216.457-.168a12.5,12.5,0,0,0,1.967.072c.817-.025,1.753-.048,2.593-.12V30.887a4.719,4.719,0,0,0-2.28-1.321c-.216-.072-.336-.168-.336-.311,0-.241.288-.361.912-.361a9.292,9.292,0,0,1,3,.529.707.707,0,0,1,.576.672c0,.288-.12,1.08-.12,1.44" fill="#333"/>
    <path id="패스_1419" data-name="패스 1419" d="M238.078,41.016a1.217,1.217,0,0,1-.792-.384l-4.057-3.337a26.856,26.856,0,0,1-7.248,5.305.6.6,0,0,1-.336.1c-.144,0-.215-.1-.215-.263,0-.121.1-.216.263-.336,3.361-2.233,7.273-6.049,8.809-9.553-1.344,0-3.1.1-4.273.191a2.715,2.715,0,0,0-1.175.361.85.85,0,0,1-.409.144,1.775,1.775,0,0,1-.456-.1,7.089,7.089,0,0,1-1.752-.888c-.192-.12-.288-.24-.288-.384,0-.168.12-.24.336-.217a20.54,20.54,0,0,0,2.5.168,49.393,49.393,0,0,0,5.209-.191,3.21,3.21,0,0,0,.648-.12,1.523,1.523,0,0,1,.6-.168,4.853,4.853,0,0,1,1.32.192c.288.071.432.239.432.407,0,.145-.12.288-.336.481a1.737,1.737,0,0,0-.36.384,18.928,18.928,0,0,1-2.568,3.744l1.128.841a3.208,3.208,0,0,0,1.32.7,1.615,1.615,0,0,1,.936.385,4.684,4.684,0,0,1,1.128,1.464,1,1,0,0,1,.12.528c0,.359-.168.552-.48.552m-.792,10.1c-2.616,0-4.969-1.607-4.969-4.032,0-2.4,2.185-3.937,4.681-4.057a.322.322,0,0,0,.24-.311c0-.264-.576-.529-.576-.7,0-.191.168-.288.48-.288a2.758,2.758,0,0,1,1.224.361.51.51,0,0,1,.288.408,1.23,1.23,0,0,1-.384.624c2.16.336,4.008,1.8,4.008,3.96,0,2.425-2.424,4.032-4.992,4.032m.072-6.96a3.018,3.018,0,0,0-3.288,2.808c0,1.68,1.44,2.833,3.288,2.833a2.851,2.851,0,1,0,0-5.641m8.593-6.745c-.864.024-2.04.048-3.576.12v1.08a23.324,23.324,0,0,1-.145,2.616c-.191,1.441-.528,2.137-1.032,2.137-.359,0-.527-.673-.527-2.041V30.935a4.648,4.648,0,0,0-2.257-1.369c-.24-.072-.359-.168-.359-.288,0-.263.288-.384.912-.384a9.752,9.752,0,0,1,3,.529.662.662,0,0,1,.528.672c0,.311-.12,1.128-.12,1.44v5.112a2.111,2.111,0,0,0,1.368-.408,1.222,1.222,0,0,1,.527-.264,5.209,5.209,0,0,1,2.113,0,.635.635,0,0,1,.576.672c0,.528-.336.768-1.008.768" fill="#333"/>
    <path id="패스_1420" data-name="패스 1420" d="M260.206,33.455a4.386,4.386,0,0,0-.048.815l-.1,7.681a8.958,8.958,0,0,1-.144,1.681c-.192.96-.528,1.416-1.008,1.416-.312,0-.5-.432-.529-1.321l-6.312.1c-.216,1.056-.552,1.584-1.056,1.584-.36,0-.528-.48-.551-1.465l-.145-9.192a2.932,2.932,0,0,0-1.752-.912c-.216-.048-.36-.168-.36-.336,0-.193.48-.408.744-.408a15.107,15.107,0,0,1,2.64.263c.432.073.648.313.648.673,0,.168-.048.5-.048.792l-.023,2.472,6.192-.1V33.575a3.672,3.672,0,0,0-1.752-1.009.328.328,0,0,1-.265-.311c0-.193.456-.408.745-.408a9,9,0,0,1,2.808.528.456.456,0,0,1,.384.5,3.99,3.99,0,0,1-.072.576m-1.848,4.752-6.192.12-.025,4.488,6.217-.095Zm7.752-6.672V44.448c0,4.752-.384,7.1-1.2,7.1q-.506,0-.505-2.377V30.934a4.443,4.443,0,0,0-2.3-1.368c-.216-.072-.336-.168-.336-.288,0-.264.288-.384.912-.384a9.51,9.51,0,0,1,3,.529.683.683,0,0,1,.552.672c0,.311-.12,1.152-.12,1.44" fill="#333"/>
    <path id="패스_1421" data-name="패스 1421" d="M32.616.091h2.2a2.093,2.093,0,0,1,.164,4.183c-.052,0-.1,0-.154,0H33.28V6.815h-.66ZM34.8,3.679a1.5,1.5,0,1,0-.007-3H33.276v3Z" fill="#595757"/>
    <path id="패스_1422" data-name="패스 1422" d="M43.011.092h.66V6.225h3.187v.591H43.011Z" fill="#595757"/>
    <path id="패스_1423" data-name="패스 1423" d="M57.931.092V4.54a2.57,2.57,0,0,1-5.127,0V.092h.66v4.4a1.9,1.9,0,1,0,3.8,0V.092Z" fill="#595757"/>
    <path id="패스_1424" data-name="패스 1424" d="M66.354.588c-.926,0-1.56.516-1.56,1.221s.693,1.024,1.33,1.2l.7.2c.841.233,1.839.676,1.839,1.812,0,1.083-.874,1.911-2.351,1.911-1.388,0-2.261-.732-2.338-1.812h.676c.066.789.772,1.211,1.662,1.211.991,0,1.707-.528,1.707-1.319,0-.677-.574-.979-1.389-1.216l-.8-.232c-1.057-.309-1.674-.851-1.674-1.725a2.253,2.253,0,0,1,4.418-.055h-.643a1.409,1.409,0,0,0-1.577-1.2" fill="#595757"/>
    <path id="패스_1425" data-name="패스 1425" d="M74.7,6.815V.092H76.81c1.93,0,3.073,1.258,3.073,3.345,0,2.114-1.156,3.378-3.185,3.378Zm1.959-.591c1.707,0,2.577-1.05,2.574-2.787,0-1.717-.851-2.755-2.465-2.755H75.363V6.224Z" fill="#595757"/>
    <path id="패스_1426" data-name="패스 1426" d="M85.931.092h3.94V.683H86.587V3.155h3.069v.588H86.587V6.225h3.338v.591h-4Z" fill="#595757"/>
    <path id="패스_1427" data-name="패스 1427" d="M101.273,6.815h-.633L96.734,1.274h-.057V6.815h-.659V.092h.64l3.914,5.552h.056V.092h.646Z" fill="#595757"/>
    <path id="패스_1428" data-name="패스 1428" d="M114.668,6.815V.092h2.108c1.93,0,3.072,1.258,3.072,3.345,0,2.114-1.155,3.378-3.184,3.378Zm1.961-.591c1.706,0,2.577-1.05,2.572-2.787,0-1.717-.85-2.755-2.464-2.755h-1.409V6.224Z" fill="#595757"/>
    <path id="패스_1429" data-name="패스 1429" d="M125.9.092h3.94V.683h-3.282V3.155h3.069v.588h-3.069V6.225h3.338v.591h-4Z" fill="#595757"/>
    <path id="패스_1430" data-name="패스 1430" d="M141.237,6.815H140.6l-3.9-5.541h-.057V6.815h-.66V.092h.641l3.913,5.552h.056V.092h.646Z" fill="#595757"/>
    <path id="패스_1431" data-name="패스 1431" d="M147.184.092H152.1V.683h-2.124V6.815h-.664V.683h-2.129Z" fill="#595757"/>
    <path id="패스_1432" data-name="패스 1432" d="M156.632,6.815,159.079.092h.711l2.446,6.723h-.7l-.709-2h-2.793l-.713,2Zm3.989-2.587L159.456.945h-.042l-1.169,3.283Z" fill="#595757"/>
    <path id="패스_1433" data-name="패스 1433" d="M167.956.092h.66V6.225H171.8v.591h-3.847Z" fill="#595757"/>
    <path id="패스_1434" data-name="패스 1434" d="M187.424.621c-1.26,0-2.278,1-2.278,2.833s1.018,2.833,2.278,2.833a1.986,1.986,0,0,0,2.006-1.576h.667a2.625,2.625,0,0,1-2.673,2.2c-1.706,0-2.921-1.346-2.921-3.454S185.718,0,187.424,0A2.623,2.623,0,0,1,190.1,2.2h-.667A1.985,1.985,0,0,0,187.424.621" fill="#595757"/>
    <path id="패스_1435" data-name="패스 1435" d="M196.105.092h.66V6.225h3.187v.591h-3.847Z" fill="#595757"/>
    <rect id="사각형_997" data-name="사각형 997" width="0.66" height="6.723" transform="translate(205.9 0.092)" fill="#595757"/>
    <path id="패스_1436" data-name="패스 1436" d="M218.16,6.815h-.634l-3.9-5.541h-.057V6.815h-.66V.092h.64l3.914,5.552h.056V.092h.646Z" fill="#595757"/>
    <rect id="사각형_998" data-name="사각형 998" width="0.661" height="6.723" transform="translate(224.506 0.092)" fill="#595757"/>
    <path id="패스_1437" data-name="패스 1437" d="M234.138.621c-1.26,0-2.277,1-2.277,2.833s1.017,2.833,2.277,2.833a1.985,1.985,0,0,0,2.005-1.576h.667a2.626,2.626,0,0,1-2.673,2.2c-1.706,0-2.921-1.346-2.921-3.454S232.431,0,234.137,0a2.623,2.623,0,0,1,2.673,2.2h-.667A1.984,1.984,0,0,0,234.138.621" fill="#595757"/>
  </g>
</svg>
