<svg id="그룹_1653" data-name="그룹 1653" xmlns="http://www.w3.org/2000/svg" xmlns:xlink="http://www.w3.org/1999/xlink" width="229.438" height="124.058" viewBox="0 0 229.438 124.058">
  <defs>
    <clipPath id="clip-path">
      <rect id="사각형_1032" data-name="사각형 1032" width="229.438" height="124.058" fill="none"/>
    </clipPath>
  </defs>
  <g id="그룹_1652" data-name="그룹 1652" clip-path="url(#clip-path)">
    <path id="패스_1762" data-name="패스 1762" d="M20.449,37.608c-.888-.072-1.968-.12-2.952-.12-3.672,0-8.881.144-11.665.336a6.1,6.1,0,0,0-2.233.432,1.158,1.158,0,0,1-.5.121,1.64,1.64,0,0,1-.456-.073,9.757,9.757,0,0,1-2.3-1.1C.119,37.056,0,36.936,0,36.7c0-.168.168-.216.479-.168a24.665,24.665,0,0,0,3.529.264c3.264,0,7.944-.12,11.3-.264a7.131,7.131,0,0,0,2.425-.36A2.049,2.049,0,0,1,18.6,35.9a8.114,8.114,0,0,1,2.281.288c.455.12.671.36.671.7,0,.576-.432.768-1.1.72m-2.736-9.121c-.648-.024-1.584-.071-2.808-.071-2.3,0-5.161.071-7.417.263a4.28,4.28,0,0,0-1.464.313,1,1,0,0,1-.456.119,1.632,1.632,0,0,1-.5-.1,7.891,7.891,0,0,1-1.969-.96c-.168-.12-.24-.216-.24-.336,0-.192.12-.288.385-.24a22.018,22.018,0,0,0,2.952.192c2.52,0,5.16-.024,7.032-.144a5.365,5.365,0,0,0,1.849-.336,2.081,2.081,0,0,1,.983-.288c1.3,0,2.545.24,2.545.889,0,.527-.337.719-.888.695m-2.256,2.064c-.048.1-.12.288-.216.5a25.526,25.526,0,0,1-1.225,2.569,3.681,3.681,0,0,0,1.008-.288,2.092,2.092,0,0,1,.985-.264,6.071,6.071,0,0,1,1.488.191c.456.12.72.337.72.673,0,.432-.336.624-.816.6-.864-.048-1.824-.048-2.833-.048-2.136.024-4.992.143-7.032.288a3.729,3.729,0,0,0-1.441.336,1.067,1.067,0,0,1-.456.143,1.781,1.781,0,0,1-.527-.119A7.056,7.056,0,0,1,3.336,34.2c-.168-.12-.241-.216-.241-.336,0-.168.145-.24.433-.193a20.3,20.3,0,0,0,2.832.193c2.16,0,4.656-.025,6.576-.145a17.361,17.361,0,0,0,.649-3.023,2.458,2.458,0,0,0-1.3-1.08c-.24-.1-.337-.168-.337-.361s.288-.335.816-.288a11.839,11.839,0,0,1,2.4.552c.311.1.431.265.431.481a1.1,1.1,0,0,1-.143.551m1.679,16.97c-3.335,0-7.152.048-10.008.1a2.367,2.367,0,0,1-1.489-.361,1.661,1.661,0,0,1-.5-1.391V44.113a2.873,2.873,0,0,0-1.511-.744c-.24-.073-.361-.168-.361-.288,0-.216.193-.336.6-.336a15.13,15.13,0,0,1,2.424.168,4.263,4.263,0,0,1,.48.12,2.046,2.046,0,0,0,.552.071c2.376,0,5.4-.048,7.2-.168a.345.345,0,0,0,.313-.239,19.64,19.64,0,0,0,.072-2.233c-2.064.024-4.681.1-6.217.193a5.58,5.58,0,0,0-1.7.263,1.475,1.475,0,0,1-.553.192,1.429,1.429,0,0,1-.5-.1,8.778,8.778,0,0,1-1.967-.96.414.414,0,0,1-.216-.336c0-.168.143-.263.408-.216a21.247,21.247,0,0,0,2.712.241c2.28.048,5.16-.025,7.513-.193a3.558,3.558,0,0,0,.6-.144,1.646,1.646,0,0,1,.529-.119,5.959,5.959,0,0,1,1.536.215c.24.072.36.168.36.312,0,.192-.12.312-.312.456-.168.12-.264.216-.288.36a17.059,17.059,0,0,1-.577,2.113c.577.12.912.336.912.624,0,.311-.215.456-.647.456-3.385,0-6.985.095-9.505.216a2.322,2.322,0,0,0-.024.431v1.7c0,.313.168.481.528.505,1.44.024,3.624.024,5.16-.072a5.8,5.8,0,0,0,2.065-.36,2.242,2.242,0,0,1,.887-.264,10.374,10.374,0,0,1,2.017.168.61.61,0,0,1,.528.7c0,.456-.336.672-1.009.672m-8.688-14.5a.864.864,0,0,1-.6.312c-.24,0-.408-.144-.432-.457a8.509,8.509,0,0,0-.768-2.927A1.334,1.334,0,0,1,6.48,29.5c0-.168.072-.241.312-.241a.852.852,0,0,1,.456.216c.672.5,1.848,1.729,1.848,2.473,0,.336-.216.647-.648,1.08" fill="#333"/>
    <path id="패스_1763" data-name="패스 1763" d="M35.929,40.776A38.738,38.738,0,0,1,27.5,42.529a2.829,2.829,0,0,1-1.129-.024c-.888-.288-1.176-1.1-1.176-2.233l-.023-4.128a3.157,3.157,0,0,0-1.536-.72q-.361-.108-.361-.287c0-.217.384-.385.7-.385a17.448,17.448,0,0,1,2.231.168,4.975,4.975,0,0,0,1.1.192c1.3-.048,3.192-.12,4.3-.24a.4.4,0,0,0,.337-.24c.1-1.536.119-2.88.1-4.344-1.152,0-2.736.048-3.624.12a6.054,6.054,0,0,0-1.633.312,1.722,1.722,0,0,1-.576.192,1.613,1.613,0,0,1-.527-.1,8.43,8.43,0,0,1-1.753-.96c-.168-.12-.24-.215-.24-.336,0-.168.144-.24.457-.191a23.639,23.639,0,0,0,2.519.168c1.681.023,3.577-.048,4.9-.168a2.716,2.716,0,0,0,.6-.12,1.424,1.424,0,0,1,.552-.12A6.507,6.507,0,0,1,34.2,29.3c.216.072.312.168.312.288a.683.683,0,0,1-.312.48.834.834,0,0,0-.216.36c-.215,1.512-.456,2.688-.768,4.2.648.12.984.36.984.7,0,.288-.216.456-.648.48-2.16.1-4.609.216-6.553.312a3.355,3.355,0,0,0-.023.48v3.84c0,.361.192.529.551.529a48.814,48.814,0,0,0,8.137-.817,2.821,2.821,0,0,1,.408-.048.259.259,0,0,1,.264.288c0,.168-.168.289-.407.384m5.112-12.24V41.449c0,4.752-.408,7.1-1.2,7.1-.384,0-.553-.792-.553-2.377V35.544c-.575.049-1.056.1-1.271.144a2.684,2.684,0,0,0-.769.216,1.1,1.1,0,0,1-.432.144,1.336,1.336,0,0,1-.408-.072,6.1,6.1,0,0,1-1.632-.816c-.168-.12-.24-.192-.24-.36s.168-.192.432-.168a13.416,13.416,0,0,0,1.992.049c.792-.025,1.585-.049,2.328-.145v-6.6a4.46,4.46,0,0,0-2.279-1.368c-.24-.072-.361-.168-.361-.288,0-.264.312-.384.936-.384a9.516,9.516,0,0,1,3,.529.685.685,0,0,1,.552.672c0,.311-.1,1.152-.1,1.44" fill="#333"/>
    <path id="패스_1764" data-name="패스 1764" d="M65.568,44.065c-.887-.072-1.872-.12-2.856-.12-4.128,0-9.025.144-11.809.336a5.77,5.77,0,0,0-2.184.456,1.014,1.014,0,0,1-.5.144,1.4,1.4,0,0,1-.48-.1,9.189,9.189,0,0,1-2.28-1.152c-.217-.144-.336-.264-.336-.48,0-.168.168-.216.479-.168a21.61,21.61,0,0,0,3.529.264c3.264,0,7.9-.12,11.329-.264a7.119,7.119,0,0,0,2.424-.36,2.049,2.049,0,0,1,.864-.264A7.976,7.976,0,0,1,66,42.648c.455.121.672.361.672.7,0,.576-.433.768-1.1.72m-7.824-13.9a17.97,17.97,0,0,1-1.3,2.016L59.088,33.7a5.572,5.572,0,0,0,1.92.7,3.223,3.223,0,0,1,1.128.311A9.371,9.371,0,0,1,63.96,36.1c.624.6.864.983.864,1.319,0,.36-.168.576-.528.576a1.593,1.593,0,0,1-.84-.311L55.8,33a23.566,23.566,0,0,1-8.329,6.1.934.934,0,0,1-.456.12c-.121,0-.216-.1-.216-.265,0-.143.12-.263.312-.384,3.072-1.872,6.937-5.3,8.4-8.5A3.061,3.061,0,0,0,54,28.632c-.287-.145-.407-.24-.407-.384,0-.192.239-.312.672-.312a1.83,1.83,0,0,1,.5.047A11.321,11.321,0,0,1,57.5,28.992c.263.192.384.336.384.6a1.08,1.08,0,0,1-.144.576" fill="#333"/>
    <path id="패스_1765" data-name="패스 1765" d="M70.127,31.248c-.168-.361-.7-.624-1.609-.84-.263-.1-.383-.193-.383-.336,0-.217.5-.456.864-.456a14.617,14.617,0,0,1,2.136.143,2.431,2.431,0,0,1,.792.241,16.835,16.835,0,0,0,2.136-.073,2.988,2.988,0,0,0,1.128-.288,2.576,2.576,0,0,1,.84-.336,5.764,5.764,0,0,1,1.441.025c.479.071.719.336.719.719,0,.481-.384.745-1.055.768-1.513.049-3.577.12-5.185.192a4,4,0,0,0-.048.744v5.665c0,.36.144.5.48.5a49.748,49.748,0,0,0,6.241-.624,2.66,2.66,0,0,1,.407-.048c.169,0,.24.12.24.312s-.143.264-.383.36a32.991,32.991,0,0,1-6.457,1.512,2.937,2.937,0,0,1-1.032,0,1.507,1.507,0,0,1-.888-.7,2.751,2.751,0,0,1-.336-1.464Zm17.09,15.937c-3.529,0-7.633.024-9.578.048-1.992.023-2.543-.528-2.543-2.088l-.025-2.473c-.24-.36-.84-.6-2.088-.839-.24-.048-.36-.145-.36-.336,0-.216.48-.456.889-.456a20.023,20.023,0,0,1,2.9.191c.36.072.5.336.456.744-.023.265-.048.6-.048,1.009V45.6a.657.657,0,0,0,.7.744c1.393.024,3.168.024,4.777-.049a6.269,6.269,0,0,0,2.352-.407,1.824,1.824,0,0,1,.865-.264,10.84,10.84,0,0,1,2.015.12c.481.072.672.312.672.7,0,.5-.311.744-.983.744M82.9,28.967c-.024.264-.024.5-.024.817v7.344a23.649,23.649,0,0,1-.144,2.928c-.169,1.368-.528,2.04-.984,2.04-.36,0-.552-.624-.552-1.9V34.224a24.161,24.161,0,0,0-2.448.239,3.351,3.351,0,0,0-.864.265.659.659,0,0,1-.313.1,1.075,1.075,0,0,1-.336-.073,10.039,10.039,0,0,1-1.776-.864c-.168-.1-.239-.191-.239-.311,0-.168.143-.216.407-.193a14.333,14.333,0,0,0,2.112.073c.96-.025,2.353-.073,3.457-.168v-4.2a3.66,3.66,0,0,0-1.848-1.175c-.241-.073-.361-.193-.361-.313,0-.216.288-.336.865-.336a9.422,9.422,0,0,1,1.344.193c.6.119,1.031.215,1.248.287a.711.711,0,0,1,.5.7c0,.072-.024.24-.048.528m4.056-1.32a4.569,4.569,0,0,0-.071.84v9.457a23.919,23.919,0,0,1-.145,2.929c-.168,1.343-.5,2.04-.984,2.04-.36,0-.552-.649-.552-1.92V27.863a4.2,4.2,0,0,0-2.112-1.3c-.24-.072-.36-.191-.36-.312q0-.36.936-.36a8.827,8.827,0,0,1,2.784.576.7.7,0,0,1,.552.672,1.969,1.969,0,0,1-.048.5" fill="#333"/>
    <path id="패스_1766" data-name="패스 1766" d="M102.983,33.12a1.046,1.046,0,0,0-.312.36,19.092,19.092,0,0,1-3.121,4.176l1.321,1.08a3.677,3.677,0,0,0,1.344.721,1.713,1.713,0,0,1,.84.384,5.519,5.519,0,0,1,1.344,1.8,1.409,1.409,0,0,1,.12.529c0,.384-.12.6-.456.6a1.3,1.3,0,0,1-.816-.407L98.783,38.4a30.447,30.447,0,0,1-7.177,4.992.648.648,0,0,1-.335.1c-.146,0-.217-.1-.217-.265,0-.095.1-.215.264-.335a30.055,30.055,0,0,0,9.385-9.7c-1.344.024-3.073.1-4.416.216a3.468,3.468,0,0,0-1.513.36.7.7,0,0,1-.408.144.833.833,0,0,1-.312-.072,9.526,9.526,0,0,1-1.92-.936c-.216-.12-.312-.24-.312-.408s.12-.216.36-.192a20.742,20.742,0,0,0,2.592.168c1.824.024,4.009-.048,5.593-.192a2.06,2.06,0,0,0,.624-.12,1.758,1.758,0,0,1,.6-.168,4.96,4.96,0,0,1,1.345.191c.264.073.408.193.408.337,0,.287-.12.408-.36.6m-2.952-2.832q-1.045.035-3.024.144a1.65,1.65,0,0,1-.936-.264,8.25,8.25,0,0,1-1.345-1.057.5.5,0,0,1-.191-.384c0-.143.095-.215.311-.215a2.378,2.378,0,0,1,.456.072,27.161,27.161,0,0,0,4.681.408c.576,0,.864.191.864.6,0,.456-.264.7-.816.7m8.448-1.752V41.449c0,4.752-.384,7.1-1.2,7.1q-.505,0-.5-2.377V27.935a4.443,4.443,0,0,0-2.3-1.368c-.216-.072-.336-.168-.336-.288,0-.264.288-.384.912-.384a9.51,9.51,0,0,1,3,.529.683.683,0,0,1,.552.672c0,.311-.12,1.152-.12,1.44" fill="#333"/>
    <path id="패스_1767" data-name="패스 1767" d="M120.047,36.408,120,40.9a76.507,76.507,0,0,0,8.257-1.1V27.935a4.452,4.452,0,0,0-2.28-1.368c-.216-.072-.336-.168-.336-.288,0-.264.288-.384.912-.384a9.77,9.77,0,0,1,3,.528.662.662,0,0,1,.527.672c0,.312-.12,1.008-.12,1.441V35.9a2.318,2.318,0,0,0,1.3-.408,1.222,1.222,0,0,1,.527-.264,5.652,5.652,0,0,1,2.113,0,.649.649,0,0,1,.576.672c0,.528-.336.768-1.008.768-.84.024-2.016.048-3.505.1v4.7a35.525,35.525,0,0,1-.216,4.776c-.191,1.561-.5,2.305-.96,2.305-.36,0-.528-.792-.528-2.377V40.608a74.694,74.694,0,0,1-10.56,1.824,3.158,3.158,0,0,0-1.2.36,1.033,1.033,0,0,1-.5.121,1.327,1.327,0,0,1-.48-.1,10.634,10.634,0,0,1-2.376-1.225c-.216-.143-.36-.311-.336-.48,0-.168.192-.24.528-.192a21.23,21.23,0,0,0,3.168.168c.552,0,1.225-.024,1.92-.072l-.071-4.824a2.658,2.658,0,0,0-1.608-.937c-.241-.071-.361-.168-.361-.336,0-.191.288-.336.769-.336a11.422,11.422,0,0,1,2.448.265c.432.1.6.359.527.72a4.848,4.848,0,0,0-.071.84m5.256-6.265a26.7,26.7,0,0,1-1.632,7.321q-.216.5-.5.5c-.192,0-.288-.12-.288-.336,0-.1.024-.192.048-.385a50.267,50.267,0,0,0,.384-7.127c-1.512.023-3.408.095-4.656.191a5.676,5.676,0,0,0-2.016.48,1.186,1.186,0,0,1-.456.144,1.516,1.516,0,0,1-.5-.12,9.22,9.22,0,0,1-1.872-.96c-.216-.144-.312-.264-.312-.432,0-.192.168-.263.48-.216a19.026,19.026,0,0,0,3.049.192c1.536,0,3.84-.071,5.688-.239a1.766,1.766,0,0,0,.624-.145,1.73,1.73,0,0,1,.648-.168,4.737,4.737,0,0,1,1.56.288.351.351,0,0,1,.24.336c0,.24-.168.408-.48.672" fill="#333"/>
    <path id="패스_1768" data-name="패스 1768" d="M159.671,47.569c-3.192,0-6.049.024-9.1.072-1.656.024-2.376-.6-2.376-1.992V44.065a2.687,2.687,0,0,0-1.416-.769c-.336-.1-.5-.24-.5-.479,0-.288.384-.48.791-.48a27.875,27.875,0,0,1,2.809.143,1.963,1.963,0,0,1,.431.072,4.009,4.009,0,0,0,.985.145c1.608,0,3.457-.049,5.136-.168a.211.211,0,0,0,.217-.168,13.706,13.706,0,0,0,.071-1.536c-1.656-.025-3.6.023-5.04.143a4.545,4.545,0,0,0-1.584.313,1.189,1.189,0,0,1-.457.119,1.3,1.3,0,0,1-.479-.119,8.868,8.868,0,0,1-2.16-1.3.6.6,0,0,1-.312-.527c0-.193.168-.288.576-.241.864.1,1.728.144,2.711.168.817.024,1.657.024,2.5,0a4.613,4.613,0,0,1-.1-1.08V37.176c-1.127.048-2.184.12-3.024.192a8.211,8.211,0,0,0-2.424.48,1.346,1.346,0,0,1-.529.144,1.823,1.823,0,0,1-.623-.144,9.9,9.9,0,0,1-2.568-1.56c-.313-.264-.361-.409-.361-.624,0-.241.216-.36.72-.264a21.843,21.843,0,0,0,3.649.288c3.024,0,7.273-.048,10.417-.265a6.356,6.356,0,0,0,2.135-.336,2.45,2.45,0,0,1,1.129-.359,10.245,10.245,0,0,1,2.52.336.994.994,0,0,1,.888.983c0,.769-.624,1.129-1.343,1.082-.912-.073-2.305-.121-3.313-.121-1.32,0-2.953.024-4.56.072a7.944,7.944,0,0,1-.145,1.536,2.6,2.6,0,0,1-.216.7c.576-.023,1.128-.048,1.681-.1.408-.024.768-.264,1.128-.264a9.03,9.03,0,0,1,2.16.24.537.537,0,0,1,.456.528.864.864,0,0,1-.336.72.844.844,0,0,0-.336.456A7.371,7.371,0,0,1,159,42.5c.7.168.96.432.96.817,0,.456-.5.72-1.032.72-2.616.024-5.592.1-7.825.168a3.19,3.19,0,0,0-.023.456v.96c0,.264.119.383.336.383,1.248.025,2.424.025,3.672-.023a4.312,4.312,0,0,0,2.015-.456,1.971,1.971,0,0,1,.961-.24,10.616,10.616,0,0,1,2.039.168c.744.144.985.48.985,1.056,0,.6-.6,1.056-1.416,1.056m-.432-13.753c-2.473.071-6.025.168-8.881.216a2.868,2.868,0,0,1-2.424-.817,2.313,2.313,0,0,1-.408-1.584v-2.28a2.418,2.418,0,0,0-1.44-1.1c-.529-.168-.672-.288-.672-.529,0-.312.647-.576,1.128-.576a13.864,13.864,0,0,1,2.568.216,2.794,2.794,0,0,1,.888.265c1.512.023,3.816-.025,5.28-.145,1.057-.1,1.584-.744,2.16-.767a11.251,11.251,0,0,1,2.065.047c.793.12,1.152.432,1.152,1.033,0,.767-.553,1.128-1.416,1.128-2.736,0-6.049.095-8.881.215a5.687,5.687,0,0,0-.023.672V31.92c0,.456.168.624.6.624,1.153.024,2.977-.024,4.225-.1a3.2,3.2,0,0,0,1.559-.408,2.341,2.341,0,0,1,.913-.336,8.625,8.625,0,0,1,2.232.048.925.925,0,0,1,.84.984c0,.624-.672,1.056-1.464,1.08" fill="#003876"/>
    <path id="패스_1769" data-name="패스 1769" d="M178.343,39.769a1.986,1.986,0,0,1,.311-.048c.336,0,.48.143.48.456,0,.288-.168.48-.527.648a26.6,26.6,0,0,1-7.8,1.992,2.516,2.516,0,0,1-1.584-.169c-.768-.5-.985-1.007-.985-2.4V36.288a2.506,2.506,0,0,0-1.439-.864c-.312-.1-.48-.216-.48-.48,0-.288.5-.5.96-.5a23.191,23.191,0,0,1,2.664.144c.528.072.912.145,1.152.168a11.711,11.711,0,0,0,2.448-.168.336.336,0,0,0,.313-.264c.071-.768.119-2.064.1-3.48a24.86,24.86,0,0,0-2.64.192,3.223,3.223,0,0,0-1.225.36,1.3,1.3,0,0,1-.479.1.974.974,0,0,1-.456-.1,9.153,9.153,0,0,1-2.161-1.272.743.743,0,0,1-.312-.553c0-.239.217-.336.648-.288a18.133,18.133,0,0,0,2.545.169c1.152,0,2.569-.049,3.7-.169.384-.023.888-.336,1.248-.336a8.611,8.611,0,0,1,2.232.265c.336.1.5.264.5.527a1.009,1.009,0,0,1-.336.721.725.725,0,0,0-.191.288,30.814,30.814,0,0,1-.961,3.817c.529.143.888.431.888.863,0,.408-.312.7-.96.721-1.585.072-3.456.191-4.92.311v.481l-.024,3.1c0,.337.191.456.527.456a35.421,35.421,0,0,0,6.77-.719m5.832-11.017V41.9a27.107,27.107,0,0,1-.168,3.456c-.1.816-.553,3.193-1.7,3.193-.576,0-.912-.937-.912-3.481V35.832c-.265.024-.5.072-.7.1a3.129,3.129,0,0,0-.72.288,1.141,1.141,0,0,1-.48.168,5.234,5.234,0,0,1-2.16-1.129.676.676,0,0,1-.312-.575c0-.217.215-.288.624-.265.624.048,1.175.072,1.967.072.577,0,1.2-.024,1.777-.048V28.3a2.932,2.932,0,0,0-1.849-1.536c-.336-.12-.479-.24-.479-.529,0-.383.624-.551,1.3-.551a8.773,8.773,0,0,1,1.776.24,7.66,7.66,0,0,1,1.487.432c.433.192.649.456.649.816,0,.432-.1,1.056-.1,1.584" fill="#003876"/>
    <path id="패스_1770" data-name="패스 1770" d="M208.079,44.665c-.912-.073-2.3-.12-3.313-.12-3.049-.024-7.633.12-10.3.36a8.249,8.249,0,0,0-2.424.479,1.333,1.333,0,0,1-.529.145,1.8,1.8,0,0,1-.623-.145,9.893,9.893,0,0,1-2.568-1.559c-.313-.265-.361-.408-.361-.624,0-.24.216-.361.72-.265a21.737,21.737,0,0,0,3.649.288c1.488,0,3.289,0,5.113-.048l-.025-4.392-2.232.049c-.265.935-.792,1.416-1.56,1.416-.625,0-.984-.649-1.008-2.209l-.1-7.416a2.805,2.805,0,0,0-1.488-1.08c-.312-.121-.456-.241-.456-.5,0-.288.456-.529.912-.529a18.13,18.13,0,0,1,3.192.288c.5.1.769.361.769.817,0,.216-.049.5-.049.84l-.024,1.727,6.936-.071V29.5a3,3,0,0,0-1.487-1.128.525.525,0,0,1-.409-.481c0-.312.433-.551.96-.551a13.468,13.468,0,0,1,3.336.624.646.646,0,0,1,.5.671.781.781,0,0,1-.023.241,6.846,6.846,0,0,0-.072,1.1L205.053,36a9.982,9.982,0,0,1-.239,2.3c-.265,1.153-.768,1.609-1.368,1.609-.576,0-.961-.409-1.08-1.273l-2.233.072L200.11,43.1c.912-.048,1.824-.071,2.64-.143a6.435,6.435,0,0,0,2.135-.336,2.433,2.433,0,0,1,1.129-.361,10.245,10.245,0,0,1,2.52.336,1,1,0,0,1,.888.985c0,.768-.624,1.127-1.343,1.08m-5.762-10.849-6.936.12-.072,3.168,7.008-.12Z" fill="#003876"/>
    <path id="패스_1771" data-name="패스 1771" d="M223.006,31.08a.9.9,0,0,0-.239.408c-1.633,4.657-5.018,8.569-10.418,11.641a.7.7,0,0,1-.384.1.4.4,0,0,1-.407-.456c0-.168.119-.312.359-.5,3.481-2.737,6.7-6.985,7.656-10.993a20.056,20.056,0,0,0-2.976.168,4.349,4.349,0,0,0-1.224.336,1.16,1.16,0,0,1-.5.144,1.429,1.429,0,0,1-.5-.1,8.416,8.416,0,0,1-2.135-1.248.583.583,0,0,1-.289-.48c0-.24.168-.361.529-.312a20.354,20.354,0,0,0,2.687.168c1.777,0,3.241-.049,4.393-.12a1.54,1.54,0,0,0,.576-.144,1.168,1.168,0,0,1,.552-.168,10.671,10.671,0,0,1,2.257.215q.5.109.5.5a1.049,1.049,0,0,1-.433.84m6.337-2.328V41.9a27.292,27.292,0,0,1-.168,3.456c-.1.816-.553,3.193-1.705,3.193-.576,0-.912-.937-.912-3.481V28.3a2.927,2.927,0,0,0-1.848-1.536c-.336-.12-.48-.24-.48-.529,0-.383.625-.551,1.3-.551a8.774,8.774,0,0,1,1.775.24,7.674,7.674,0,0,1,1.488.432c.433.192.649.456.649.816,0,.432-.1,1.056-.1,1.584" fill="#003876"/>
    <path id="패스_1772" data-name="패스 1772" d="M13.967.092h2.2a2.093,2.093,0,0,1,.164,4.183c-.052,0-.1,0-.154,0H14.631V6.816h-.66Zm2.18,3.588a1.5,1.5,0,1,0-.007-3H14.627v3Z" fill="#595757"/>
    <path id="패스_1773" data-name="패스 1773" d="M24.362.092h.66V6.225h3.187v.591H24.362Z" fill="#595757"/>
    <path id="패스_1774" data-name="패스 1774" d="M39.282.092V4.54a2.57,2.57,0,0,1-5.127,0V.092h.66v4.4a1.9,1.9,0,0,0,3.8,0V.092Z" fill="#595757"/>
    <path id="패스_1775" data-name="패스 1775" d="M47.706.588c-.927,0-1.56.516-1.56,1.221s.693,1.024,1.329,1.2l.7.2c.841.233,1.839.676,1.839,1.812,0,1.083-.874,1.911-2.351,1.911-1.387,0-2.26-.732-2.337-1.812H46c.067.789.772,1.211,1.662,1.211.991,0,1.707-.528,1.707-1.319,0-.677-.573-.979-1.389-1.216l-.8-.232c-1.056-.309-1.674-.851-1.674-1.725a2.253,2.253,0,0,1,4.418-.055h-.642a1.409,1.409,0,0,0-1.577-1.2" fill="#595757"/>
    <path id="패스_1776" data-name="패스 1776" d="M56.055,6.815V.092h2.107c1.93,0,3.073,1.258,3.073,3.345,0,2.114-1.156,3.378-3.185,3.378Zm1.959-.591c1.707,0,2.577-1.05,2.574-2.787,0-1.717-.851-2.755-2.465-2.755H56.715V6.224Z" fill="#595757"/>
    <path id="패스_1777" data-name="패스 1777" d="M67.282.092h3.94V.683H67.938V3.155h3.069v.588H67.938V6.225h3.338v.591h-4Z" fill="#595757"/>
    <path id="패스_1778" data-name="패스 1778" d="M82.624,6.815h-.633L78.085,1.274h-.057V6.815h-.659V.092h.64l3.914,5.552h.056V.092h.646Z" fill="#595757"/>
    <path id="패스_1779" data-name="패스 1779" d="M96.019,6.815V.092h2.108c1.93,0,3.072,1.258,3.072,3.345,0,2.114-1.155,3.378-3.184,3.378Zm1.961-.591c1.706,0,2.577-1.05,2.572-2.787,0-1.717-.85-2.755-2.464-2.755H96.679V6.224Z" fill="#595757"/>
    <path id="패스_1780" data-name="패스 1780" d="M107.247.092h3.94V.683H107.9V3.155h3.069v.588H107.9V6.225h3.338v.591h-4Z" fill="#595757"/>
    <path id="패스_1781" data-name="패스 1781" d="M122.589,6.815h-.634l-3.9-5.541h-.057V6.815h-.66V.092h.641l3.913,5.552h.056V.092h.646Z" fill="#595757"/>
    <path id="패스_1782" data-name="패스 1782" d="M128.536.092h4.917V.683h-2.124V6.815h-.664V.683h-2.129Z" fill="#595757"/>
    <path id="패스_1783" data-name="패스 1783" d="M137.983,6.815,140.43.092h.711l2.446,6.723h-.7l-.709-2h-2.793l-.713,2Zm3.989-2.587L140.807.945h-.042L139.6,4.228Z" fill="#595757"/>
    <path id="패스_1784" data-name="패스 1784" d="M149.308.092h.66V6.225h3.187v.591h-3.847Z" fill="#595757"/>
    <path id="패스_1785" data-name="패스 1785" d="M168.776.621c-1.26,0-2.278,1-2.278,2.833s1.018,2.833,2.278,2.833a1.986,1.986,0,0,0,2.006-1.576h.667a2.625,2.625,0,0,1-2.673,2.2c-1.706,0-2.921-1.346-2.921-3.454S167.07,0,168.776,0a2.623,2.623,0,0,1,2.673,2.2h-.667A1.985,1.985,0,0,0,168.776.621" fill="#595757"/>
    <path id="패스_1786" data-name="패스 1786" d="M177.456.092h.66V6.225H181.3v.591h-3.847Z" fill="#595757"/>
    <rect id="사각형_1030" data-name="사각형 1030" width="0.66" height="6.723" transform="translate(187.252 0.092)" fill="#595757"/>
    <path id="패스_1787" data-name="패스 1787" d="M199.512,6.815h-.634l-3.9-5.541h-.057V6.815h-.66V.092h.64l3.914,5.552h.056V.092h.646Z" fill="#595757"/>
    <rect id="사각형_1031" data-name="사각형 1031" width="0.661" height="6.723" transform="translate(205.858 0.092)" fill="#595757"/>
    <path id="패스_1788" data-name="패스 1788" d="M215.49.621c-1.261,0-2.278,1-2.278,2.833s1.017,2.833,2.278,2.833a1.985,1.985,0,0,0,2-1.576h.667a2.625,2.625,0,0,1-2.673,2.2c-1.705,0-2.921-1.346-2.921-3.454S213.783,0,215.488,0a2.623,2.623,0,0,1,2.673,2.2h-.667a1.983,1.983,0,0,0-2-1.582" fill="#595757"/>
    <path id="패스_1789" data-name="패스 1789" d="M42.947,95.527c-.032.288-.368.528-.864-.032L40.1,93.174a14.268,14.268,0,0,1-1.682,1.376,16.673,16.673,0,0,1-3.249,1.969c-.24.065-.384-.08-.08-.256a22.293,22.293,0,0,0,2.8-2.033,13.628,13.628,0,0,0,3.361-4.049c-1.537.048-2.514.112-3.01.16-.625.064-.688.336-1.137.176a8.536,8.536,0,0,1-1.216-.576c-.192-.112-.192-.336.144-.288a13.957,13.957,0,0,0,1.6.111c1.425.017,3.265-.031,3.505-.048.176-.015.256-.143.56-.143a8.363,8.363,0,0,1,.881.08c.32.048.352.3-.176.672a23.658,23.658,0,0,1-2.017,2.561,7.966,7.966,0,0,0,.752.609c.545.384.736.288,1.041.527a2.631,2.631,0,0,1,.768,1.5m.8,1.3a2.586,2.586,0,0,1,2.5,2.432,2.743,2.743,0,0,1-2.962,2.593c-1.6,0-3.009-.864-3.009-2.593a2.64,2.64,0,0,1,2.705-2.449,1.109,1.109,0,0,0,.08-.191c.047-.128.047-.257-.176-.433-.256-.176,0-.351.337-.256a2.388,2.388,0,0,1,.687.3c.145.112.1.225.016.353Zm1.617,2.432a2.112,2.112,0,1,0-2.081,1.857,1.882,1.882,0,0,0,2.081-1.857m1.008-10.564-.016,5.139c0,1.44-.191,2.865-.688,2.865-.336,0-.288-1.121-.288-1.345V92.774c-.641.016-1.537.128-1.744.16-.53.08-.273.3-.8.176a5.086,5.086,0,0,1-.961-.416c-.24-.128-.352-.384.16-.288a17.507,17.507,0,0,0,3.346-.112v-3.57a3.315,3.315,0,0,0-1.6-.848c-.319-.08-.3-.208.16-.369a5.4,5.4,0,0,1,2.193.4c.56.192.257.465.24.784" fill="#666"/>
    <path id="패스_1790" data-name="패스 1790" d="M61.573,93.03c.481.065.64.865-.336.865H59.092c0,1.088-.241,2.673-.769,2.673-.256,0-.224-.913-.224-1.5v-.017c-.624.225-1.552.48-2.881.8-1.024.256-2.161.5-3.745.768-.464.08-.5.432-.96.3a7.652,7.652,0,0,1-1.713-.689c-.305-.16-.209-.448.16-.383a7.7,7.7,0,0,0,1.793.112c.8-.064,1.713-.145,2.336-.225V94.9a2.175,2.175,0,0,1-2.336-1.985c0-1.168.88-1.856,2.256-1.984a.354.354,0,0,0,0-.544l-1.6.1c-.881.065-.545.336-1.089.113a6.981,6.981,0,0,1-.864-.416c-.273-.177-.16-.337.144-.288A10.82,10.82,0,0,0,51.232,90c1.329-.016,2.466-.064,3.329-.144.481-.047.61-.352,1.106-.352.543,0,1.152-.08,1.2.352.017.144-.016.384-.928.4-1.041.015-1.408.048-2.24.1.3.176.127.416-.049.577,1.233.16,2.114.8,2.114,1.984a2.065,2.065,0,0,1-1.793,1.921l-.016.784c.863-.159,1.232-.208,2.064-.4a20.46,20.46,0,0,0,2.081-.561V88.805a3.313,3.313,0,0,0-1.6-.849c-.32-.08-.305-.208.16-.368a5.37,5.37,0,0,1,2.192.4c.561.193.257.464.241.784v4.611c1.28,0,.992-.273,1.3-.336a2.714,2.714,0,0,1,1.185-.017m-2.594,4.882c0,.977-.047.576-.047,1.2,0,2.177-.449,2.721-.7,2.721S58,100.89,58,99.945V97.8a36.265,36.265,0,0,0-4.289.271c-.817.1-.513.416-1.282.225a7.806,7.806,0,0,1-1.263-.545c-.289-.159-.289-.48.143-.368a6.963,6.963,0,0,0,1.505.129c1.857,0,3.906-.129,4.658-.193.192-.016.3-.144.464-.192.208.017.416.032.912.1.193.031.433.175.128.687m-4.754-8.883c-.4.016-1.168.048-1.616.079A.917.917,0,0,1,51.825,89a7.247,7.247,0,0,1-.656-.433c-.225-.175-.145-.431.223-.351a14.8,14.8,0,0,0,2.786.1c.736-.033.688.688.047.72m.769,3.889c0-.832-.593-1.472-1.729-1.472a1.583,1.583,0,0,0-1.712,1.489,1.6,1.6,0,0,0,1.7,1.36,1.574,1.574,0,0,0,1.745-1.377" fill="#666"/>
    <path id="패스_1791" data-name="패스 1791" d="M70.387,90.838c.592.192.592.7-.016.7-1.376,0-2.562.033-3.5.064l.286.16c.145.1.192.177-.112.513a2.541,2.541,0,0,1,2.466,2.289c0,1.44-1.442,2.289-2.882,2.289-1.5,0-2.96-.833-2.96-2.289,0-1.362,1.279-2.146,2.705-2.306.175-.224.143-.256,0-.432a.989.989,0,0,1-.145-.192c-.688.017-1.2.048-1.521.064-.752.033-.737.416-1.313.176a10.347,10.347,0,0,1-1.008-.511c-.256-.161-.144-.369.176-.305a8.272,8.272,0,0,0,1.7.16,34.282,34.282,0,0,0,4.145-.208c.272-.032.5-.3.9-.32a2.938,2.938,0,0,1,1.088.144m-2.352-1.825c.639,0,.575.721-.066.721a12.474,12.474,0,0,0-1.712.111,1.127,1.127,0,0,1-.944-.144,4.05,4.05,0,0,1-.655-.543c-.274-.273-.1-.416.239-.321a14.6,14.6,0,0,0,3.138.176m.575,5.618a1.83,1.83,0,0,0-1.985-1.7,1.8,1.8,0,0,0-2.017,1.7c0,1.072,1.152,1.553,2.017,1.553.785,0,1.985-.464,1.985-1.553m5.219,5.826c.382.049.5.8-.289.817-2.256.032-4.418.1-5.378.08-.785-.031-1.7-.08-1.7-1.6V98.745c0-.3-1.136-.528-1.329-.544-.608-.064-.208-.416.32-.464a12.756,12.756,0,0,1,1.761.08c.193.032.368.064.336.416v2.176c0,.433.176.449.432.449,1.713.048,2.113,0,2.818,0,1.264,0,1.248-.4,1.777-.449a4.38,4.38,0,0,1,1.249.048m1.649-6.61c.446.08.575.832-.337.832H72.772c.016,2.434-.24,3.794-.736,3.794-.305,0-.256-1.393-.256-1.568v-8.1a3.319,3.319,0,0,0-1.6-.849c-.32-.08-.3-.208.161-.368a5.381,5.381,0,0,1,2.193.4c.56.192.256.463.24.784V94.2a2.656,2.656,0,0,0,1.584-.369,2.208,2.208,0,0,1,1.122.016" fill="#666"/>
    <path id="패스_1792" data-name="패스 1792" d="M88.915,95.607c.048.288-.256.624-.752.065L85.714,93.3a16.267,16.267,0,0,1-1.937,1.585,19.489,19.489,0,0,1-3.265,1.952c-.224.1-.384-.08-.08-.256a21.635,21.635,0,0,0,2.817-2.017,13.666,13.666,0,0,0,3.457-4.034c-1.537.048-2.24.1-2.736.145-.625.063-.69.336-1.137.175a8.55,8.55,0,0,1-1.217-.576c-.192-.112-.192-.336.145-.288a13.86,13.86,0,0,0,1.6.112c1.424.016,2.96-.032,3.2-.047.176-.017.257-.145.56-.145a8.341,8.341,0,0,1,.881.08c.32.048.4.288-.176.689a14.1,14.1,0,0,1-1.808,2.337c.431.368.736.576.975.751.544.385.769.256,1.074.449a2.318,2.318,0,0,1,.847,1.392m3.762,4.514c.384.048.5.864-.289.881-2.256.032-4.945.1-5.906.08-.784-.032-1.7-.145-1.7-1.665v-1.2c0-.305-1.135-.529-1.328-.545-.608-.064-.208-.416.32-.464a12.761,12.761,0,0,1,1.761.08c.192.032.367.064.336.416v2.4c0,.432.176.449.432.449,1.713.047,2.641-.033,3.346-.033,1.264,0,1.248-.4,1.777-.448a4.3,4.3,0,0,1,1.248.048m-.961-11.46L91.7,94.535c0,1.937-.191,3.73-.72,3.73-.272,0-.272-.769-.272-1.089V88.709a3.03,3.03,0,0,0-1.377-.864c-.288-.1-.1-.321.305-.353a5.471,5.471,0,0,1,1.856.416c.416.145.224.433.224.753" fill="#666"/>
    <path id="패스_1793" data-name="패스 1793" d="M106.9,92.807c.448.08.576.832-.336.832h-2.369c0,3.681-.24,4.626-.736,4.626-.3,0-.256-.945-.256-1.569V93.639a28.5,28.5,0,0,1-7.06,2.176c-.9.145-1.215-.672-1.2-1.536V90.9c0-.4-1.025-.592-1.137-.624-.416-.112-.032-.352.192-.4a5.779,5.779,0,0,1,1.841.16s1.409,0,2.512-.08c.61-.048.657-.368,1.121-.448a5.519,5.519,0,0,1,.961-.016c.672.016.623.816-.1.849l-4.4.223v3.954c-.016.192.016.4.384.4a31.717,31.717,0,0,0,6.883-1.664V88.741a3.308,3.308,0,0,0-1.6-.849c-.32-.08-.3-.208.16-.368a5.363,5.363,0,0,1,2.193.4c.56.191.257.464.24.784v4.449c1.441,0,1.28-.3,1.585-.368a2.2,2.2,0,0,1,1.12.017m-1.409,7.106c.385.048.5.8-.287.816-2.258.033-4.883.1-5.843.08-.784-.032-1.7-.08-1.7-1.6v-1.12c0-.305-1.009-.529-1.2-.545-.608-.064-.207-.416.32-.464a11.128,11.128,0,0,1,1.633.08c.192.032.368.065.336.416V99.9c0,.432.176.449.432.449,1.712.047,2.577-.033,3.282-.033,1.264,0,1.249-.4,1.776-.448a4.29,4.29,0,0,1,1.248.048" fill="#666"/>
    <path id="패스_1794" data-name="패스 1794" d="M120.644,94.279c.481.081.641.865-.336.865h-2.4c0,5.761-.24,6.69-.736,6.69-.321,0-.256-.944-.256-1.568V95.735a31.985,31.985,0,0,1-3.217.881c-1.009.224-2.161.432-3.762.768-.384.08-.5.337-.8.225a12.317,12.317,0,0,1-1.857-.785c-.4-.24-.224-.416.16-.336a9.535,9.535,0,0,0,3.314.032V93.5c-.1-.257-.817-.432-1.009-.512-.144-.065-.353-.193.192-.369a10.069,10.069,0,0,1,1.473.128c.56.113.384.416.368.689l-.143,2.977c.975-.129,2-.32,2.912-.512,1.008-.208,1.857-.4,2.369-.544V88.789a3.219,3.219,0,0,0-1.6-.848c-.319-.081-.3-.208.16-.369a5.378,5.378,0,0,1,2.193.4c.56.191.257.464.24.784v5.874a2.557,2.557,0,0,0,1.553-.336,2.7,2.7,0,0,1,1.184-.016m-5.362-3.857a21.982,21.982,0,0,1-.48,2.208,5.635,5.635,0,0,1-1.088,2.449c-.128.145-.369.176-.321-.048a16.7,16.7,0,0,0,.513-2.4,13.8,13.8,0,0,0,.176-2.192c-1.792.08-2.913.192-3.474.223-.976.065-.832.368-1.312.193a8.888,8.888,0,0,1-1.12-.577c-.208-.127-.193-.368.16-.272a10.309,10.309,0,0,0,2,.128,22.423,22.423,0,0,0,3.633-.239c.192-.1.128-.1.416-.1a5.951,5.951,0,0,1,.768.064c.433.064.368.3.128.561" fill="#666"/>
    <path id="패스_1795" data-name="패스 1795" d="M134.019,97.352c.064.4-.352.624-.752.208l-2.434-2.817a21.142,21.142,0,0,1-2.416,1.856,14.37,14.37,0,0,1-2.85,1.5c-.224.08-.416-.08-.128-.24a21.98,21.98,0,0,0,4.034-2.881,12.055,12.055,0,0,0,2.289-2.913,22.361,22.361,0,0,0-2.929.144c-.976.1-.641.352-1.249.16a8.2,8.2,0,0,1-1.152-.481c-.3-.191-.128-.368.175-.3a9.353,9.353,0,0,0,1.5.1,28.383,28.383,0,0,0,3.442-.128c.271-.032.3-.143.528-.16a7.366,7.366,0,0,1,.929.1c.207.031.447.288,0,.5a11.416,11.416,0,0,1-1.842,2.385,3.641,3.641,0,0,0,1.152,1.024c.337.208.641.24.9.544a3.78,3.78,0,0,1,.8,1.409m-2.513-7.267c-.513.048-1.425.048-1.857.048A.928.928,0,0,1,129.12,90a4.464,4.464,0,0,1-.863-.608c-.129-.1-.24-.417.32-.24a16.1,16.1,0,0,0,2.929.176c.672-.016.688.688,0,.752m5.122-1.344-.032,9.14c0,1.839-.177,3.953-.7,3.953-.273,0-.273-.769-.273-1.089V88.789a3.018,3.018,0,0,0-1.376-.864c-.289-.1-.1-.321.3-.353a5.466,5.466,0,0,1,1.856.416c.416.145.225.433.225.753" fill="#666"/>
    <path id="패스_1796" data-name="패스 1796" d="M151.861,98.6c.608.1.768.912-.416.864-1.073-.047-3.314-.143-5.443-.063-2.208.08-4.466.271-4.674.319-.319.065-.559.321-.848.24a9.56,9.56,0,0,1-1.84-.7c-.273-.16-.145-.431.24-.336a22.9,22.9,0,0,0,4.209.081l-.048-1.233c-.08-.48-.913-.688-1.3-.816-.193-.065-.289-.256.272-.368a7.615,7.615,0,0,1,1.488.208c.641.127.528.511.465.768l-.065,1.425,3.314-.049.224-1.792a1.838,1.838,0,0,0-.944-.688c-.193-.08-.257-.241.224-.336a6.873,6.873,0,0,1,1.36.3c.561.161.385.624.321.977l-.385,1.456a7.37,7.37,0,0,0,1.121-.063,10.322,10.322,0,0,0,1.377-.305,6.559,6.559,0,0,1,1.344.112m-2.353-3.745c.528.048.608.832-.24.832l-6.4.16c-.416-.015-1.248-.144-1.232-1.12V93.366c-.016-.368-.912-.5-1.2-.592-.3-.1-.065-.353.191-.384a6.4,6.4,0,0,1,1.858.176c.3,0,3.937-.065,5.281-.192.256-.033.144-.1.32-.128l.208-2.065c-3.264-.016-4.513.064-5.186.128-.623.064-.64.368-1.04.256a6.3,6.3,0,0,1-1.376-.608c-.209-.144-.209-.4.143-.321a9.923,9.923,0,0,0,1.505.145c1.793.063,4.482-.048,5.49-.145.241-.015.256-.208.592-.176a7.33,7.33,0,0,1,.929.145c.448.1.448.336-.017.64l-.672,1.985a1.143,1.143,0,0,1,.481.128c.256.176.208.512-.368.512l-6.115.176v1.937c0,.3.048.368.321.384,2.144.016,3.488-.033,4.113-.1,1.072-.112.752-.336,1.313-.416a3.566,3.566,0,0,1,1.1,0" fill="#666"/>
    <path id="패스_1797" data-name="패스 1797" d="M165.733,94.295c.559.16.593.929-.4.8a46.952,46.952,0,0,0-5.426-.065c-1.872.065-3.7.208-4.625.273-.416.031-.576.431-1.137.256a7.087,7.087,0,0,1-1.729-.737c-.208-.16-.16-.4.176-.32a13.354,13.354,0,0,0,2.225.176s7.075-.192,7.6-.239a10.294,10.294,0,0,0,1.761-.305,4.6,4.6,0,0,1,1.553.16m-2.609-1.921c.577.017.72.8-.128.8l-5.874.128c-.384,0-1.314-.048-1.314-1.057v-.784c-.016-.384-.656-.5-.832-.544-.416-.112-.16-.353.129-.368a4.641,4.641,0,0,1,1.6.208c.464.015,3.585-.048,4.882-.112.256-.016.192-.113.368-.145l.144-1.552c-2.625,0-3.922.08-4.609.144-.993.1-.657.305-1.089.24a4.99,4.99,0,0,1-1.441-.544c-.224-.144-.24-.416.1-.352a13.338,13.338,0,0,0,1.889.144c1.665.031,3.761-.1,4.707-.177.239-.015.191-.16.511-.128a9.062,9.062,0,0,1,.913.1c.464.079.3.3-.032.592l-.512,1.553a.906.906,0,0,1,.4.063c.3.145.289.528-.336.528l-5.762.08v1.3c0,.353.128.336.336.384,2.337.017,3.234-.063,3.81-.1.864-.047.576-.272,1.1-.368a3.376,3.376,0,0,1,1.041-.032m.56,8c.513.145.56.8-.272.8h-6.163a1.209,1.209,0,0,1-1.377-1.345v-.608c-.015-.16-.751-.352-.9-.4-.287-.1-.224-.288.112-.385a5.088,5.088,0,0,1,1.73.177,34.917,34.917,0,0,0,4.737-.1c.256-.016.224-.1.368-.144l.16-1.393c-2.834.048-4.529.176-4.9.192-.48.144-.224.305-.832.144a5.256,5.256,0,0,1-1.041-.464c-.239-.144-.352-.448.113-.352a9.69,9.69,0,0,0,1.553.144c1.728.048,4.081-.1,4.625-.128.368-.032.32-.128.592-.128a4.076,4.076,0,0,1,.865.064c.432.064.256.4-.016.576l-.529,1.313a1.959,1.959,0,0,1,.576.128c.385.208.24.528-.24.528-.319,0-5.521.112-5.97.128v1.152a.367.367,0,0,0,.368.416s3.41,0,4.114-.048c.32-.015.592-.288.912-.351a3.968,3.968,0,0,1,1.409.079" fill="#666"/>
    <path id="패스_1798" data-name="패스 1798" d="M181.779,97.8c0,1.841-.177,3.954-.7,3.954-.273,0-.273-.769-.273-1.088l-.015-5.763c-.753.256-3.058.9-4.722,1.232l-.032,1.04c-.064,2.658-.128,3.362-.656,3.362-.257,0-.257-.928-.257-1.664v-2.53c-.737.1-1.216.176-1.52.241-.865.175-.56.48-1.137.288a8.6,8.6,0,0,1-1.712-.849c-.256-.143-.225-.4.208-.32a7.406,7.406,0,0,0,2.112.064c2.178-.192,3.234-.368,3.682-.432,1.937-.32,3.633-.672,4.034-.752l-.017-5.874a3.042,3.042,0,0,0-1.376-.865c-.288-.1-.1-.32.3-.352a5.477,5.477,0,0,1,1.857.416c.416.144.224.433.224.753Zm-3.505-6a2.646,2.646,0,0,1-2.9,2.432c-1.473,0-2.914-.864-2.914-2.417a2.617,2.617,0,0,1,2.641-2.4c.08-.065.065-.08.1-.128.064-.1.049-.208-.176-.353-.256-.16-.16-.383.288-.32a1.728,1.728,0,0,1,.624.272c.16.1.336.241.017.561a2.475,2.475,0,0,1,2.321,2.353m-.833.064a1.892,1.892,0,0,0-2.1-1.825,1.869,1.869,0,0,0-2.016,1.808,2.083,2.083,0,0,0,4.113.017" fill="#666"/>
    <path id="패스_1799" data-name="패스 1799" d="M191.986,90.838c.593.192.593.7-.016.7-1.376,0-2.561.033-3.505.064l.288.16c.144.1.191.177-.113.513a2.54,2.54,0,0,1,2.466,2.289c0,1.44-1.441,2.289-2.882,2.289-1.5,0-2.961-.833-2.961-2.289,0-1.362,1.281-2.146,2.706-2.306.175-.224.143-.256,0-.432a.936.936,0,0,1-.144-.192c-.689.017-1.2.048-1.521.064-.752.033-.737.416-1.313.176a10.235,10.235,0,0,1-1.008-.511c-.256-.161-.144-.369.176-.305a8.244,8.244,0,0,0,1.7.16A34.3,34.3,0,0,0,190,91.014c.272-.032.5-.3.9-.32a2.934,2.934,0,0,1,1.089.144m-2.352-1.825c.639,0,.576.721-.065.721a12.489,12.489,0,0,0-1.713.111,1.128,1.128,0,0,1-.944-.144,4.094,4.094,0,0,1-.656-.543c-.273-.273-.1-.416.24-.321a14.6,14.6,0,0,0,3.138.176m.576,5.618a1.83,1.83,0,0,0-1.986-1.7,1.8,1.8,0,0,0-2.016,1.7c0,1.072,1.152,1.553,2.016,1.553.785,0,1.986-.464,1.986-1.553m5.218,5.826c.383.049.5.8-.289.817-2.257.032-4.417.1-5.378.08-.784-.031-1.7-.08-1.7-1.6V98.745c0-.3-1.135-.528-1.329-.544-.607-.064-.207-.416.32-.464a12.774,12.774,0,0,1,1.762.08c.192.032.367.064.336.416v2.176c0,.433.176.449.432.449,1.713.048,2.113,0,2.817,0,1.265,0,1.249-.4,1.777-.449a4.38,4.38,0,0,1,1.249.048m1.648-6.61c.448.08.576.832-.336.832h-2.369c.017,2.434-.24,3.794-.736,3.794-.3,0-.256-1.393-.256-1.568v-8.1a3.316,3.316,0,0,0-1.6-.849c-.32-.08-.3-.208.16-.368a5.383,5.383,0,0,1,2.193.4c.56.192.257.463.24.784V94.2a2.66,2.66,0,0,0,1.585-.369,2.2,2.2,0,0,1,1.12.016" fill="#666"/>
    <path id="패스_1800" data-name="패스 1800" d="M39.572,110.661l-.08,9.107c0,1.841-.176,3.953-.7,3.953-.273,0-.208-.927-.208-1.248v-3.666c-.513.161-1.857.529-3.154.8-1.376.288-2.353.512-3.857.752-.576.1-.5.433-1.152.208A10.222,10.222,0,0,1,28.8,119.9c-.3-.16-.208-.416.16-.352a12.136,12.136,0,0,0,1.76.1c.8-.016,2.257-.176,2.8-.256l-.015-1.441c0-.223-.577-.656-.865-.688-.175-.016-.4-.352.16-.4a5.715,5.715,0,0,1,1.3.208c.529.192.385.352.369.624l-.08,1.585c.624-.08,1.056-.192,1.92-.352a22.666,22.666,0,0,0,2.274-.481l-.017-7.73a3.026,3.026,0,0,0-1.376-.864c-.288-.1-.1-.321.3-.353a5.471,5.471,0,0,1,1.857.416c.416.145.224.433.224.753m-1.521,6.13c0,.272-.047.544-.8.272l-3.457-1.3a11.335,11.335,0,0,1-1.809,1.025,15.909,15.909,0,0,1-2.881,1.152c-.337.065-.368-.143-.049-.271a19.139,19.139,0,0,0,2.914-1.537,12.568,12.568,0,0,0,3.249-2.769,26.312,26.312,0,0,0-3.009.176c-.768.063-.672.368-1.216.176a7.51,7.51,0,0,1-1.121-.544c-.256-.161-.208-.4.16-.288a7.231,7.231,0,0,0,1.281.143,22.209,22.209,0,0,0,4.113-.208.781.781,0,0,1,.449-.128,8.3,8.3,0,0,1,.944.08c.3.048.4.288-.208.544a18.233,18.233,0,0,1-2.321,2.146,3.391,3.391,0,0,0,1.041.368c.624.128.88-.145,1.5.1.4.16,1.136.463,1.216.864m-3.1-5.842c.688-.017.673.832-.016.768a7.589,7.589,0,0,0-1.472.016c-.321.031-.481.144-.817-.032a7.8,7.8,0,0,1-.752-.5c-.352-.24-.176-.464.24-.336a13.638,13.638,0,0,0,2.817.08" fill="#666"/>
    <path id="패스_1801" data-name="패스 1801" d="M50.066,117.688c.033.384-.239.72-.7.223l-1.713-2.288a12.493,12.493,0,0,1-1.664,1.233,20.832,20.832,0,0,1-3.378,1.76c-.24.1-.351-.08-.048-.256a25.03,25.03,0,0,0,2.706-1.7,13.962,13.962,0,0,0,3.313-3.345c-1.824.048-2.8.224-3.266.24-.416.016-.351.305-.847.128a9.707,9.707,0,0,1-1.3-.544c-.224-.144-.08-.32.192-.256a5.579,5.579,0,0,0,.977.112,35.434,35.434,0,0,0,4.081-.129c.176-.015.224-.191.528-.175.336.032.528,0,.96.064.225.032.513.176-.128.592a18.88,18.88,0,0,1-1.792,1.969c.224.208.448.5.624.64.5.4.689.128.977.464a2.518,2.518,0,0,1,.479,1.265m-1.824-5.939a9.639,9.639,0,0,0-1.457.048c-.336.048-.432.048-.592-.048-.272-.16-.881-.544-1.072-.672-.225-.16-.145-.4.271-.288a18.85,18.85,0,0,0,2.85.224c.689,0,.769.752,0,.736m4.978,7.091c.512.08.224.433.048.608l-.688,2.961c.176.033.544.065.624.289.032.08.08.352-.416.352l-4.882-.032c-.1.576-.24,1.009-.576,1.04-.16.016-.208-.4-.24-.912-.048-.88-.24-3.329-.24-3.329-.1-.336-.9-.529-1.057-.577-.368-.112-.064-.3.144-.352a5.151,5.151,0,0,1,1.745.144,36.64,36.64,0,0,0,4.242-.16c.288-.015.191-.144.656-.112Zm-1.025.5-4.289.177v3.073l3.777-.016c.224-.048.161-.113.352-.144Zm1.217-8.659-.016,4.77c0,1.441-.192,2.865-.688,2.865-.336,0-.288-1.185-.288-1.345v-1.648a10.151,10.151,0,0,0-1.425.16c-.528.08-.272.3-.8.176a5.744,5.744,0,0,1-1.009-.416c-.24-.128-.3-.384.208-.289a14.385,14.385,0,0,0,3.026-.111v-4.13a3.315,3.315,0,0,0-1.6-.848c-.32-.08-.3-.208.16-.369a5.4,5.4,0,0,1,2.193.4c.56.191.256.464.24.784" fill="#666"/>
    <path id="패스_1802" data-name="패스 1802" d="M68.661,114.807c.448.08.576.832-.336.832H65.956c0,3.681-.24,4.626-.736,4.626-.305,0-.256-.945-.256-1.569v-3.057a28.5,28.5,0,0,1-7.06,2.176c-.9.145-1.215-.672-1.2-1.536V112.9c0-.4-1.024-.592-1.137-.624-.416-.112-.031-.352.193-.4a5.779,5.779,0,0,1,1.841.16s1.408,0,2.512-.08c.609-.048.657-.368,1.121-.448a5.506,5.506,0,0,1,.96-.016c.672.016.624.816-.1.849l-4.4.223v3.954c-.015.192.017.4.385.4a31.731,31.731,0,0,0,6.883-1.664v-4.514a3.308,3.308,0,0,0-1.6-.849c-.32-.08-.3-.208.16-.368a5.363,5.363,0,0,1,2.193.4c.56.191.256.464.24.784v4.449c1.441,0,1.28-.3,1.585-.368a2.2,2.2,0,0,1,1.12.017m-1.409,7.106c.385.048.5.8-.288.816-2.257.033-4.882.1-5.842.08-.784-.032-1.7-.08-1.7-1.6v-1.12c0-.305-1.008-.529-1.2-.545-.609-.064-.208-.416.32-.464a11.128,11.128,0,0,1,1.633.08c.192.032.368.065.336.416V121.9c0,.432.176.449.432.449,1.712.047,2.577-.033,3.282-.033,1.264,0,1.248-.4,1.776-.448a4.293,4.293,0,0,1,1.248.048" fill="#666"/>
    <path id="패스_1803" data-name="패스 1803" d="M84.58,110.708l-.032,9.092c0,1.841-.176,3.953-.7,3.953-.272,0-.272-.768-.272-1.087v-4.338a33.324,33.324,0,0,1-3.33.912c-1.008.223-2.161.431-3.761.768-.384.08-.481.3-.8.224a7.488,7.488,0,0,1-1.889-.752c-.4-.24-.209-.513.176-.433a11.635,11.635,0,0,0,3.329.065s2.881-.433,3.794-.624c1.088-.225,1.984-.4,2.481-.545v-7.187a3.037,3.037,0,0,0-1.376-.864c-.289-.1-.1-.32.3-.352a5.482,5.482,0,0,1,1.857.416c.417.144.224.432.224.752m-6.034,1.441a2.8,2.8,0,0,1,2.5,2.529,2.759,2.759,0,0,1-3.01,2.513,2.81,2.81,0,0,1-3.008-2.513,2.864,2.864,0,0,1,2.753-2.546.474.474,0,0,0,.112-.175c.048-.113,0-.224-.209-.336-.319-.224-.1-.336.209-.3a1.957,1.957,0,0,1,.624.239c.191.112.191.177.112.368Zm1.632,2.5a2,2,0,0,0-2.112-1.841,1.95,1.95,0,0,0-2.114,1.841,2.078,2.078,0,0,0,2.114,1.889,1.942,1.942,0,0,0,2.112-1.889" fill="#666"/>
    <path id="패스_1804" data-name="패스 1804" d="M99.861,120.6c.608.1.768.912-.416.864-1.073-.047-3.314-.143-5.443-.063-2.209.08-4.466.271-4.674.319-.32.065-.56.321-.848.24a9.548,9.548,0,0,1-1.841-.7c-.272-.16-.144-.431.24-.336a22.91,22.91,0,0,0,4.21.081l-.048-1.233c-.08-.48-.913-.688-1.3-.816-.192-.065-.288-.256.273-.368a7.625,7.625,0,0,1,1.488.208c.641.127.528.511.464.768l-.064,1.425,3.314-.049.224-1.792a1.837,1.837,0,0,0-.945-.688c-.192-.08-.256-.241.225-.336a6.889,6.889,0,0,1,1.36.3c.56.161.384.624.321.977l-.385,1.456a7.37,7.37,0,0,0,1.121-.063,10.3,10.3,0,0,0,1.376-.305,6.57,6.57,0,0,1,1.345.112m-2.353-3.745c.527.048.607.832-.24.832l-6.4.16c-.416-.015-1.248-.144-1.232-1.12v-1.361c-.016-.368-.912-.5-1.2-.592-.3-.1-.065-.353.192-.384a6.394,6.394,0,0,1,1.857.176c.3,0,3.937-.065,5.282-.192.256-.033.143-.1.32-.128l.208-2.065c-3.265-.016-4.513.064-5.186.128-.624.064-.64.368-1.04.256a6.286,6.286,0,0,1-1.377-.608c-.208-.144-.208-.4.144-.321a9.909,9.909,0,0,0,1.5.145c1.792.063,4.482-.048,5.49-.145.24-.015.256-.208.592-.176a7.356,7.356,0,0,1,.929.145c.448.1.448.336-.017.64l-.672,1.985a1.143,1.143,0,0,1,.481.128c.256.176.208.512-.368.512l-6.116.176v1.937c0,.3.049.368.321.384,2.144.016,3.489-.033,4.114-.1,1.072-.112.752-.336,1.313-.416a3.567,3.567,0,0,1,1.1,0" fill="#666"/>
    <path id="패스_1805" data-name="패스 1805" d="M108.771,117.047c-.033.288-.369.528-.865-.031l-2.432-2.113a14.346,14.346,0,0,1-2.033,1.617,13.926,13.926,0,0,1-2.786,1.456c-.223.1-.383-.1-.08-.256a16.407,16.407,0,0,0,2.354-1.505,10.544,10.544,0,0,0,3.392-3.985c-1.536.048-2.048.112-2.545.16-.624.063-.688.336-1.136.176a8.645,8.645,0,0,1-1.216-.576c-.192-.113-.192-.336.144-.289a13.868,13.868,0,0,0,1.6.113c1.425.015,2.8-.032,3.042-.049.176-.016.256-.144.56-.144a8.646,8.646,0,0,1,.881.08c.32.048.271.4-.208.672a18.461,18.461,0,0,1-1.681,2.242,4.928,4.928,0,0,0,1.072.7,4.592,4.592,0,0,1,1.025.432c.368.336.944.928.912,1.3m-.144,1.745a2.518,2.518,0,0,1,2.417,2.257,2.7,2.7,0,0,1-2.865,2.577,2.633,2.633,0,0,1-2.913-2.577,2.575,2.575,0,0,1,2.608-2.272.987.987,0,0,0,.08-.193c.048-.128.048-.24-.16-.416-.256-.176,0-.352.32-.257a2.127,2.127,0,0,1,.672.305c.145.112.1.208.017.336Zm1.616,2.289a2.091,2.091,0,1,0-2.064,1.889,1.9,1.9,0,0,0,2.064-1.889m3.346-6.4c.479.063.64.864-.337.864h-2.144c0,2.16-.241,3.362-.769,3.362-.288,0-.224-.961-.224-1.57v-6.61a3.313,3.313,0,0,0-1.6-.849c-.321-.08-.305-.208.16-.368a5.366,5.366,0,0,1,2.192.4c.561.193.257.465.241.785v4.338c1.041,0,.992-.272,1.3-.336a2.684,2.684,0,0,1,1.185-.016" fill="#666"/>
    <path id="패스_1806" data-name="패스 1806" d="M121.921,112.293l-.16,5.49c-.048,1.184-.368,1.505-.719,1.457-.177-.032-.193-.288-.208-.689l-3.762.113c-.128.8-.433.9-.641.9-.191,0-.24-.352-.24-.8l-.064-5.425c0-.321-1.1-.593-1.264-.641-.353-.112-.128-.4.223-.432a8.078,8.078,0,0,1,1.713.176c.449.1.369.3.369.592,0,.224-.016,1.152-.033,1.489l3.7-.144v-1.793c-.128-.384-.929-.592-1.105-.657-.385-.128-.208-.416.224-.448a5.209,5.209,0,0,1,1.648.288c.257.08.32.145.32.529m-1.087,5.73V114.9l-3.73.16-.017,3.089Zm4.9-7.251-.032,9.108c0,1.84-.176,3.954-.7,3.954-.272,0-.272-.769-.272-1.089V110.82a3.035,3.035,0,0,0-1.377-.864c-.288-.1-.1-.32.3-.352a5.471,5.471,0,0,1,1.857.416c.416.144.224.432.224.752" fill="#666"/>
    <path id="패스_1807" data-name="패스 1807" d="M141.219,116.743c.481.081.641.865-.336.865h-2.4c0,5.762-.24,6.131-.736,6.131-.3,0-.257-.945-.257-1.57V117.96c-1.04.384-2.817.928-3.665,1.153-1.313.336-2.642.608-3.154.7-.24.048-.5.3-.752.223a12.607,12.607,0,0,1-1.7-.687c-.416-.193-.256-.465.128-.385a7.591,7.591,0,0,0,1.441.112,12.061,12.061,0,0,0,2.321-.3v-1.73c-1.313-.08-2.8-.767-2.8-2.56a2.759,2.759,0,0,1,2.833-2.5.841.841,0,0,0,.144-.208c.1-.161,0-.273-.144-.353-.192-.111-.1-.32.3-.271a2.335,2.335,0,0,1,.528.191c.225.1.32.24.145.465-.048.048-.08.143-.161.208a2.616,2.616,0,0,1,2.37,2.449A2.656,2.656,0,0,1,133.041,117v1.649a34.323,34.323,0,0,0,4.449-1.056v-6.867a3.237,3.237,0,0,0-1.6-.849c-.319-.08-.3-.208.16-.368a5.367,5.367,0,0,1,2.194.4c.559.192.256.464.24.784v6.4a2.55,2.55,0,0,0,1.552-.337,2.712,2.712,0,0,1,1.184-.016m-6.738-2.272a1.923,1.923,0,0,0-2.081-1.745c-1.328,0-2.192.784-2.192,1.761a1.955,1.955,0,0,0,2.192,1.856,1.921,1.921,0,0,0,2.081-1.872" fill="#666"/>
    <path id="패스_1808" data-name="패스 1808" d="M154.675,117.607c.048.288-.257.624-.753.065l-2.448-2.369a16.35,16.35,0,0,1-1.937,1.585,19.53,19.53,0,0,1-3.265,1.952c-.225.1-.385-.08-.08-.256a21.58,21.58,0,0,0,2.816-2.017,13.653,13.653,0,0,0,3.458-4.034c-1.537.048-2.241.1-2.737.145-.624.063-.689.336-1.137.175a8.537,8.537,0,0,1-1.216-.576c-.192-.112-.192-.336.144-.288a13.9,13.9,0,0,0,1.6.112c1.424.016,2.96-.032,3.2-.047.176-.017.257-.145.56-.145a8.3,8.3,0,0,1,.88.08c.32.048.4.288-.176.689a14.045,14.045,0,0,1-1.808,2.337c.432.368.736.576.976.751.544.385.769.256,1.073.449a2.315,2.315,0,0,1,.848,1.392m3.762,4.514c.384.048.5.864-.289.881-2.257.032-4.945.1-5.906.08-.785-.032-1.7-.145-1.7-1.665v-1.2c0-.305-1.136-.529-1.328-.545-.608-.064-.209-.416.32-.464a12.748,12.748,0,0,1,1.76.08c.193.032.368.064.337.416v2.4c0,.432.176.449.432.449,1.713.047,2.641-.033,3.346-.033,1.264,0,1.248-.4,1.776-.448a4.3,4.3,0,0,1,1.249.048m-.961-11.46-.016,5.874c0,1.937-.192,3.73-.72,3.73-.273,0-.273-.769-.273-1.089v-8.467a3.026,3.026,0,0,0-1.376-.864c-.288-.1-.1-.321.3-.353a5.471,5.471,0,0,1,1.857.416c.416.145.224.433.224.753" fill="#666"/>
    <path id="패스_1809" data-name="패스 1809" d="M172.5,120.6c.608.1.767.912-.416.864-1.073-.047-3.315-.143-5.444-.063-2.209.08-4.465.271-4.674.319-.319.065-.559.321-.847.24a9.494,9.494,0,0,1-1.841-.7c-.272-.16-.144-.431.239-.336a22.922,22.922,0,0,0,4.211.081l-.049-1.233c-.08-.48-.912-.688-1.3-.816-.192-.065-.287-.256.273-.368a7.635,7.635,0,0,1,1.489.208c.64.127.528.511.464.768l-.065,1.425,3.315-.049.224-1.792a1.844,1.844,0,0,0-.946-.688c-.192-.08-.255-.241.226-.336a6.9,6.9,0,0,1,1.36.3c.56.161.384.624.321.977l-.386,1.456a7.37,7.37,0,0,0,1.121-.063,10.323,10.323,0,0,0,1.377-.305,6.57,6.57,0,0,1,1.345.112m-2.353-3.745c.526.048.607.832-.24.832l-6.4.16c-.416-.015-1.248-.144-1.232-1.12v-1.361c-.016-.368-.912-.5-1.2-.592-.3-.1-.065-.353.192-.384a6.388,6.388,0,0,1,1.856.176c.3,0,3.937-.065,5.282-.192.256-.033.144-.1.321-.128l.207-2.065c-3.265-.016-4.513.064-5.185.128-.625.064-.641.368-1.041.256a6.307,6.307,0,0,1-1.377-.608c-.207-.144-.207-.4.144-.321a9.925,9.925,0,0,0,1.506.145c1.791.063,4.481-.048,5.489-.145.24-.015.257-.208.593-.176a7.384,7.384,0,0,1,.929.145c.448.1.448.336-.017.64l-.673,1.985a1.139,1.139,0,0,1,.481.128c.256.176.209.512-.368.512l-6.115.176v1.937c0,.3.048.368.321.384,2.143.016,3.488-.033,4.113-.1,1.073-.112.752-.336,1.314-.416a3.567,3.567,0,0,1,1.1,0" fill="#666"/>
    <path id="패스_1810" data-name="패스 1810" d="M185.363,118.279c.063.528-.305.849-.8.24l-2.641-3.313a14.774,14.774,0,0,1-1.793,1.97A17.532,17.532,0,0,1,177.839,119c-.576.384-.656.288-.688.224-.1-.08.16-.256.593-.625.463-.416,1.216-1.168,1.776-1.776a9.826,9.826,0,0,0,2.273-3.554c.128-.383-.528-1.024-.768-1.12-.5-.192-.032-.5.4-.385a5.364,5.364,0,0,1,1.441.737c.431.3.24.608.128.865a13.553,13.553,0,0,1-.8,1.44,9.341,9.341,0,0,0,1.153,1.248,14.177,14.177,0,0,0,1.408.929,2.577,2.577,0,0,1,.609,1.3m3.281-7.538-.064,9.091c0,1.841-.161,3.954-.688,3.954-.272,0-.288-.769-.288-1.089V110.789a2.979,2.979,0,0,0-1.361-.864c-.288-.1-.1-.321.3-.353a5.554,5.554,0,0,1,1.872.416c.417.145.225.433.225.753" fill="#666"/>
    <path id="패스_1811" data-name="패스 1811" d="M198.193,116.455c.129.544-.384.64-.655.352l-2.306-2.609a9.622,9.622,0,0,1-2.289,2.112,7.127,7.127,0,0,1-2.272,1.233c-.176-.144.063-.224.464-.528a20.543,20.543,0,0,0,2.241-1.937,10.173,10.173,0,0,0,1.825-2.721c.128-.336-.769-1.04-1.025-1.217-.4-.271-.033-.479.463-.351a7.725,7.725,0,0,1,1.666.847c.433.305.224.609.1.865l-.88,1.376a9.039,9.039,0,0,0,.832.737c.722.432.785.288,1.345.976a2.27,2.27,0,0,1,.5.865m4.45,5.938c.513.144.561.8-.271.8h-5.459a1.208,1.208,0,0,1-1.377-1.344l-.016-1.056c-.015-.161-.752-.353-.9-.4-.289-.1-.224-.288.112-.384a3.64,3.64,0,0,1,1.728.192,26.7,26.7,0,0,0,4.13-.1c.256-.016.224-.1.368-.144l.192-1.665c-2.832.048-4.416.176-4.784.193-.481.143-.225.3-.834.143a5.184,5.184,0,0,1-1.039-.463c-.242-.145-.354-.449.112-.353a9.768,9.768,0,0,0,1.552.145c1.728.047,3.969-.1,4.513-.128.37-.033.321-.129.592-.129a4.058,4.058,0,0,1,.864.064c.433.065.257.4-.015.576l-.56,1.585a2.026,2.026,0,0,1,.575.128c.386.208.242.529-.239.529-.319,0-4.931.1-5.362.111v1.6c0,.272.144.416.351.416,0,0,2.738,0,3.442-.047.321-.017.593-.289.912-.353a3.987,3.987,0,0,1,1.409.08m-.5-11.621-.018,3.554c0,1.44-.191,2.865-.687,2.865-.336,0-.289-1.185-.289-1.345v-1.824c-.64.016-1.7.128-1.9.159-.53.08-.274.305-.8.177a5.687,5.687,0,0,1-1.008-.416c-.24-.129-.3-.385.209-.288a19.247,19.247,0,0,0,3.5-.112V110.8a3.31,3.31,0,0,0-1.6-.848c-.319-.08-.3-.208.161-.369a5.4,5.4,0,0,1,2.194.4c.558.192.255.464.24.784" fill="#666"/>
  </g>
</svg>
