<svg xmlns="http://www.w3.org/2000/svg" xmlns:xlink="http://www.w3.org/1999/xlink" width="207.863" height="52.553" viewBox="0 0 207.863 52.553">
  <defs>
    <clipPath id="clip-path">
      <rect id="사각형_1005" data-name="사각형 1005" width="207.863" height="52.553" transform="translate(0 0)" fill="none"/>
    </clipPath>
  </defs>
  <g id="그룹_1622" data-name="그룹 1622" transform="translate(0 0)">
    <g id="그룹_1621" data-name="그룹 1621" clip-path="url(#clip-path)">
      <path id="패스_1475" data-name="패스 1475" d="M20.45,41.608c-.889-.072-1.969-.12-2.952-.12-3.673,0-8.881.144-11.665.336a6.093,6.093,0,0,0-2.233.432,1.161,1.161,0,0,1-.5.121A1.634,1.634,0,0,1,2.64,42.3a9.746,9.746,0,0,1-2.3-1.1C.12,41.056,0,40.936,0,40.7c0-.168.168-.216.48-.168a24.654,24.654,0,0,0,3.529.264c3.263,0,7.944-.12,11.3-.264a7.124,7.124,0,0,0,2.424-.36A2.049,2.049,0,0,1,18.6,39.9a8.109,8.109,0,0,1,2.281.288c.456.12.671.36.671.7,0,.576-.431.768-1.1.72m-2.736-9.121c-.649-.024-1.584-.071-2.809-.071-2.3,0-5.16.071-7.417.263a4.286,4.286,0,0,0-1.464.313.993.993,0,0,1-.456.119,1.632,1.632,0,0,1-.5-.1,7.883,7.883,0,0,1-1.968-.96c-.168-.12-.24-.216-.24-.336,0-.192.12-.288.384-.24a22.041,22.041,0,0,0,2.952.192c2.521,0,5.161-.024,7.033-.144a5.358,5.358,0,0,0,1.848-.336,2.084,2.084,0,0,1,.984-.288c1.3,0,2.544.24,2.544.889,0,.527-.336.719-.887.695m-2.257,2.064c-.048.1-.12.288-.216.5a25.308,25.308,0,0,1-1.224,2.569,3.7,3.7,0,0,0,1.008-.288,2.089,2.089,0,0,1,.985-.264,6.077,6.077,0,0,1,1.488.191c.455.12.72.337.72.673,0,.432-.336.624-.817.6-.864-.048-1.824-.048-2.832-.048-2.136.024-4.992.143-7.032.288a3.724,3.724,0,0,0-1.441.336,1.071,1.071,0,0,1-.456.143,1.78,1.78,0,0,1-.528-.119A7.056,7.056,0,0,1,3.336,38.2c-.168-.12-.24-.216-.24-.336,0-.168.144-.24.432-.193a20.314,20.314,0,0,0,2.832.193c2.16,0,4.656-.025,6.577-.145a17.449,17.449,0,0,0,.648-3.023,2.455,2.455,0,0,0-1.3-1.08c-.24-.1-.336-.168-.336-.361s.288-.335.816-.288a11.846,11.846,0,0,1,2.4.552c.312.1.432.265.432.481a1.1,1.1,0,0,1-.144.551m1.68,16.97c-3.336,0-7.152.048-10.008.1a2.367,2.367,0,0,1-1.489-.361,1.661,1.661,0,0,1-.5-1.391V48.113a2.877,2.877,0,0,0-1.512-.744c-.239-.073-.36-.168-.36-.288,0-.216.192-.336.6-.336a15.134,15.134,0,0,1,2.425.168,4.208,4.208,0,0,1,.479.12,2.051,2.051,0,0,0,.552.071c2.377,0,5.4-.048,7.2-.168a.343.343,0,0,0,.312-.239,19.64,19.64,0,0,0,.072-2.233c-2.064.024-4.681.1-6.217.193a5.592,5.592,0,0,0-1.7.263,1.466,1.466,0,0,1-.552.192,1.425,1.425,0,0,1-.5-.1,8.807,8.807,0,0,1-1.968-.96.416.416,0,0,1-.216-.336c0-.168.144-.263.408-.216a21.263,21.263,0,0,0,2.712.241c2.28.048,5.161-.025,7.513-.193a3.567,3.567,0,0,0,.6-.144,1.635,1.635,0,0,1,.529-.119,5.965,5.965,0,0,1,1.536.215c.239.072.359.168.359.312,0,.192-.12.312-.311.456-.168.12-.265.216-.288.36a17.236,17.236,0,0,1-.577,2.113c.577.12.912.336.912.624,0,.311-.215.456-.648.456-3.384,0-6.984.095-9.505.216a2.422,2.422,0,0,0-.023.431v1.7c0,.313.168.481.527.505,1.44.024,3.625.024,5.161-.072a5.8,5.8,0,0,0,2.064-.36,2.25,2.25,0,0,1,.888-.264,10.363,10.363,0,0,1,2.016.168.61.61,0,0,1,.528.7c0,.456-.336.672-1.008.672m-8.688-14.5a.866.866,0,0,1-.6.312c-.24,0-.408-.144-.431-.457a8.51,8.51,0,0,0-.769-2.927A1.334,1.334,0,0,1,6.48,33.5c0-.168.073-.241.313-.241a.855.855,0,0,1,.456.216c.672.5,1.847,1.729,1.847,2.473,0,.336-.215.647-.647,1.08" fill="#333"/>
      <path id="패스_1476" data-name="패스 1476" d="M35.929,44.776A38.726,38.726,0,0,1,27.5,46.529a2.824,2.824,0,0,1-1.128-.024c-.888-.288-1.176-1.1-1.176-2.233l-.024-4.128a3.153,3.153,0,0,0-1.536-.72q-.361-.108-.361-.287c0-.217.385-.385.7-.385a17.464,17.464,0,0,1,2.232.168,4.976,4.976,0,0,0,1.1.192c1.3-.048,3.192-.12,4.3-.24a.4.4,0,0,0,.336-.24c.1-1.536.12-2.88.1-4.344-1.151,0-2.735.048-3.624.12a6.045,6.045,0,0,0-1.632.312,1.729,1.729,0,0,1-.576.192,1.614,1.614,0,0,1-.528-.1,8.449,8.449,0,0,1-1.752-.96c-.168-.12-.241-.215-.241-.336,0-.168.145-.24.457-.191a23.64,23.64,0,0,0,2.52.168c1.68.023,3.576-.048,4.9-.168a2.708,2.708,0,0,0,.6-.12,1.425,1.425,0,0,1,.553-.12A6.5,6.5,0,0,1,34.2,33.3c.217.072.313.168.313.288a.684.684,0,0,1-.313.48.855.855,0,0,0-.216.36c-.215,1.512-.456,2.688-.767,4.2.647.12.983.36.983.7,0,.288-.216.456-.647.48-2.16.1-4.609.216-6.553.312a3.216,3.216,0,0,0-.024.48v3.84c0,.361.192.529.552.529a48.835,48.835,0,0,0,8.137-.817,2.8,2.8,0,0,1,.408-.048.259.259,0,0,1,.264.288c0,.168-.168.289-.408.384m5.112-12.24V45.449c0,4.752-.408,7.1-1.2,7.1-.384,0-.552-.792-.552-2.377V39.544c-.576.049-1.056.1-1.272.144a2.676,2.676,0,0,0-.768.216,1.1,1.1,0,0,1-.433.144,1.33,1.33,0,0,1-.407-.072,6.105,6.105,0,0,1-1.633-.816c-.168-.12-.239-.192-.239-.36s.168-.192.432-.168a13.415,13.415,0,0,0,1.992.049c.792-.025,1.584-.049,2.328-.145v-6.6a4.463,4.463,0,0,0-2.28-1.368c-.24-.072-.361-.168-.361-.288,0-.264.313-.384.937-.384a9.51,9.51,0,0,1,3,.529.685.685,0,0,1,.553.672c0,.311-.1,1.152-.1,1.44" fill="#333"/>
      <path id="패스_1477" data-name="패스 1477" d="M65.569,48.065c-.888-.072-1.872-.12-2.856-.12-4.129,0-9.026.144-11.81.336a5.764,5.764,0,0,0-2.183.456,1.014,1.014,0,0,1-.5.144,1.41,1.41,0,0,1-.481-.1,9.223,9.223,0,0,1-2.28-1.152c-.216-.144-.336-.264-.336-.48,0-.168.168-.216.48-.168a21.6,21.6,0,0,0,3.529.264c3.263,0,7.9-.12,11.328-.264a7.126,7.126,0,0,0,2.425-.36,2.049,2.049,0,0,1,.864-.264A7.974,7.974,0,0,1,66,46.648c.456.121.672.361.672.7,0,.576-.432.768-1.1.72m-7.825-13.9a17.962,17.962,0,0,1-1.3,2.016L59.089,37.7a5.565,5.565,0,0,0,1.92.7,3.229,3.229,0,0,1,1.128.311A9.4,9.4,0,0,1,63.961,40.1c.624.6.864.983.864,1.319,0,.36-.168.576-.528.576a1.587,1.587,0,0,1-.84-.311L55.8,37a23.563,23.563,0,0,1-8.328,6.1.94.94,0,0,1-.457.12c-.12,0-.215-.1-.215-.265,0-.143.119-.263.311-.384,3.072-1.872,6.937-5.3,8.4-8.5A3.058,3.058,0,0,0,54,32.632c-.288-.145-.408-.24-.408-.384,0-.192.24-.312.672-.312a1.83,1.83,0,0,1,.5.047A11.305,11.305,0,0,1,57.5,32.992c.264.192.385.336.385.6a1.08,1.08,0,0,1-.145.576" fill="#333"/>
      <path id="패스_1478" data-name="패스 1478" d="M70.128,35.248c-.169-.361-.7-.624-1.609-.84-.264-.1-.383-.193-.383-.336,0-.217.5-.456.863-.456a14.642,14.642,0,0,1,2.137.143,2.438,2.438,0,0,1,.792.241,16.82,16.82,0,0,0,2.135-.073,2.994,2.994,0,0,0,1.129-.288,2.568,2.568,0,0,1,.84-.336,5.757,5.757,0,0,1,1.44.025c.48.071.72.336.72.719,0,.481-.384.745-1.056.768-1.512.049-3.577.12-5.185.192a4,4,0,0,0-.048.744v5.665c0,.36.145.5.481.5a49.731,49.731,0,0,0,6.24-.624,2.672,2.672,0,0,1,.408-.048c.168,0,.24.12.24.312s-.144.264-.383.36a33.008,33.008,0,0,1-6.457,1.512,2.944,2.944,0,0,1-1.033,0,1.5,1.5,0,0,1-.887-.7,2.751,2.751,0,0,1-.336-1.464ZM87.217,51.185c-3.529,0-7.633.024-9.577.048-1.993.023-2.544-.528-2.544-2.088l-.024-2.473c-.24-.36-.841-.6-2.089-.839-.239-.048-.359-.145-.359-.336,0-.216.479-.456.888-.456a20.048,20.048,0,0,1,2.9.191c.36.072.5.336.456.744-.024.265-.048.6-.048,1.009V49.6a.657.657,0,0,0,.7.744c1.392.024,3.168.024,4.777-.049a6.263,6.263,0,0,0,2.351-.407,1.827,1.827,0,0,1,.865-.264,10.851,10.851,0,0,1,2.016.12c.48.072.672.312.672.7,0,.5-.312.744-.984.744M82.9,32.967c-.023.264-.023.5-.023.817v7.344a23.618,23.618,0,0,1-.145,2.928c-.168,1.368-.528,2.04-.984,2.04-.359,0-.552-.624-.552-1.9V38.224a24.189,24.189,0,0,0-2.448.239,3.377,3.377,0,0,0-.864.265.656.656,0,0,1-.312.1,1.064,1.064,0,0,1-.336-.073,9.972,9.972,0,0,1-1.776-.864c-.168-.1-.24-.191-.24-.311,0-.168.144-.216.408-.193a14.328,14.328,0,0,0,2.112.073c.96-.025,2.352-.073,3.456-.168v-4.2a3.656,3.656,0,0,0-1.847-1.175c-.241-.073-.361-.193-.361-.313,0-.216.288-.336.865-.336a9.434,9.434,0,0,1,1.343.193c.6.119,1.032.215,1.248.287a.711.711,0,0,1,.5.7c0,.072-.023.24-.048.528m4.057-1.32a4.565,4.565,0,0,0-.072.84v9.457a23.949,23.949,0,0,1-.144,2.929c-.168,1.343-.5,2.04-.984,2.04-.361,0-.552-.649-.552-1.92V31.863a4.208,4.208,0,0,0-2.112-1.3c-.24-.072-.361-.191-.361-.312q0-.36.937-.36a8.832,8.832,0,0,1,2.784.576.7.7,0,0,1,.552.672,1.969,1.969,0,0,1-.048.5" fill="#333"/>
      <path id="패스_1479" data-name="패스 1479" d="M102.984,37.12a1.04,1.04,0,0,0-.313.36,19.055,19.055,0,0,1-3.12,4.176l1.321,1.08a3.665,3.665,0,0,0,1.343.721,1.708,1.708,0,0,1,.84.384,5.508,5.508,0,0,1,1.345,1.8,1.429,1.429,0,0,1,.12.529c0,.384-.12.6-.456.6a1.293,1.293,0,0,1-.816-.407L98.783,42.4a30.441,30.441,0,0,1-7.176,4.992.649.649,0,0,1-.336.1c-.145,0-.217-.1-.217-.265,0-.095.1-.215.265-.335a30.065,30.065,0,0,0,9.385-9.7c-1.345.024-3.073.1-4.417.216a3.459,3.459,0,0,0-1.512.36.709.709,0,0,1-.408.144.833.833,0,0,1-.313-.072,9.553,9.553,0,0,1-1.92-.936c-.216-.12-.311-.24-.311-.408s.12-.216.359-.192a20.772,20.772,0,0,0,2.593.168c1.824.024,4.008-.048,5.593-.192a2.06,2.06,0,0,0,.624-.12,1.747,1.747,0,0,1,.6-.168,4.947,4.947,0,0,1,1.344.191c.265.073.408.193.408.337,0,.287-.12.408-.359.6m-2.953-2.832q-1.044.035-3.024.144a1.652,1.652,0,0,1-.936-.264,8.2,8.2,0,0,1-1.344-1.057.5.5,0,0,1-.192-.384c0-.143.095-.215.312-.215a2.389,2.389,0,0,1,.456.072,27.158,27.158,0,0,0,4.68.408c.576,0,.864.191.864.6,0,.456-.263.7-.816.7m8.449-1.752V45.449c0,4.752-.384,7.1-1.2,7.1q-.5,0-.5-2.377V31.935a4.446,4.446,0,0,0-2.305-1.368c-.216-.072-.336-.168-.336-.288,0-.264.288-.384.912-.384a9.516,9.516,0,0,1,3,.529.684.684,0,0,1,.552.672c0,.311-.12,1.152-.12,1.44" fill="#333"/>
      <path id="패스_1480" data-name="패스 1480" d="M120.047,40.408,120,44.9a76.507,76.507,0,0,0,8.257-1.1V31.935a4.457,4.457,0,0,0-2.28-1.368c-.216-.072-.336-.168-.336-.288,0-.264.288-.384.912-.384a9.769,9.769,0,0,1,3,.528.662.662,0,0,1,.528.672c0,.312-.12,1.008-.12,1.441V39.9a2.317,2.317,0,0,0,1.3-.408,1.22,1.22,0,0,1,.528-.264,5.651,5.651,0,0,1,2.113,0,.649.649,0,0,1,.576.672c0,.528-.336.768-1.009.768-.84.024-2.015.048-3.5.1v4.7a35.525,35.525,0,0,1-.216,4.776c-.192,1.561-.5,2.305-.96,2.305-.36,0-.528-.792-.528-2.377V44.608a74.732,74.732,0,0,1-10.561,1.824,3.149,3.149,0,0,0-1.2.36,1.035,1.035,0,0,1-.5.121,1.327,1.327,0,0,1-.48-.1,10.613,10.613,0,0,1-2.376-1.225c-.217-.143-.36-.311-.336-.48,0-.168.192-.24.527-.192a21.236,21.236,0,0,0,3.169.168c.552,0,1.224-.024,1.92-.072l-.072-4.824a2.652,2.652,0,0,0-1.608-.937c-.24-.071-.36-.168-.36-.336,0-.191.288-.336.768-.336a11.422,11.422,0,0,1,2.448.265c.433.1.6.359.528.72a4.846,4.846,0,0,0-.072.84m5.257-6.265a26.7,26.7,0,0,1-1.633,7.321q-.214.5-.5.5c-.191,0-.288-.12-.288-.336,0-.1.025-.192.049-.385a50.267,50.267,0,0,0,.384-7.127c-1.513.023-3.408.1-4.656.191a5.682,5.682,0,0,0-2.017.48,1.186,1.186,0,0,1-.456.144,1.517,1.517,0,0,1-.5-.12,9.194,9.194,0,0,1-1.872-.96c-.216-.144-.313-.264-.313-.432,0-.192.168-.263.481-.216a19.021,19.021,0,0,0,3.048.192c1.536,0,3.841-.071,5.688-.239a1.761,1.761,0,0,0,.624-.145,1.735,1.735,0,0,1,.649-.168,4.737,4.737,0,0,1,1.56.288.35.35,0,0,1,.239.336c0,.24-.167.408-.479.672" fill="#333"/>
      <path id="패스_1481" data-name="패스 1481" d="M161.28,32.536V45.449c0,4.752-.408,7.1-1.2,7.1-.384,0-.552-.792-.552-2.377V45.064a86.609,86.609,0,0,1-11.617,1.753,3.157,3.157,0,0,0-1.2.359,1.018,1.018,0,0,1-.5.12,1.3,1.3,0,0,1-.479-.1,13.016,13.016,0,0,1-2.353-1.248c-.215-.168-.36-.336-.335-.5,0-.168.191-.217.528-.168a18.571,18.571,0,0,0,3.168.191A118.656,118.656,0,0,0,159.528,44.2V31.935a4.456,4.456,0,0,0-2.281-1.368q-.36-.108-.36-.288c0-.264.313-.384.937-.384a9.536,9.536,0,0,1,3,.528.662.662,0,0,1,.528.672c0,.312-.072,1.153-.072,1.441M150.647,41.92c-2.832,0-5.328-1.68-5.328-4.44,0-2.5,2.328-4.249,4.848-4.44a.71.71,0,0,0,.336-.481c0-.168-.144-.36-.408-.528-.168-.1-.24-.192-.24-.264,0-.168.168-.264.48-.264a3.591,3.591,0,0,1,1.392.336.531.531,0,0,1,.336.456,1.849,1.849,0,0,1-.456.792c2.376.361,4.368,2.016,4.368,4.393,0,2.736-2.52,4.44-5.328,4.44m-3.5-4.44c0,2.016,1.656,3.192,3.576,3.192a3.309,3.309,0,0,0,3.552-3.192,3.377,3.377,0,0,0-3.552-3.192,3.321,3.321,0,0,0-3.576,3.192" fill="#333"/>
      <path id="패스_1482" data-name="패스 1482" d="M185.808,48.4c-.888-.072-1.968-.12-2.953-.12-3.671,0-8.88.144-11.665.336a6.092,6.092,0,0,0-2.232.432,1.143,1.143,0,0,1-.5.12A1.6,1.6,0,0,1,168,49.1a9.707,9.707,0,0,1-2.3-1.1c-.216-.144-.336-.263-.336-.5,0-.168.168-.216.48-.168a24.65,24.65,0,0,0,3.528.264c.912,0,1.945,0,3-.024l-.071-2.329a2.6,2.6,0,0,0-1.656-.935c-.241-.072-.385-.168-.385-.336,0-.216.288-.336.816-.336a11.682,11.682,0,0,1,2.544.359c.337.073.505.265.456.553-.048.36-.071.648-.1.888l-.1,2.112c1.776-.024,3.6-.1,5.256-.144l.12-2.64a2.541,2.541,0,0,0-1.368-1.008c-.24-.1-.336-.192-.336-.385,0-.215.312-.288.816-.263a8.811,8.811,0,0,1,2.376.5.514.514,0,0,1,.36.673c-.072.311-.12.551-.167.815l-.361,2.232h.1a7.136,7.136,0,0,0,2.425-.36,2.049,2.049,0,0,1,.864-.264,8.107,8.107,0,0,1,2.28.288c.456.12.672.36.672.7,0,.576-.433.768-1.1.72M183,42.376c-3.384,0-7.752.048-11.089.168-1.632.024-2.231-.5-2.231-1.969V37.983a2.882,2.882,0,0,0-1.513-.72c-.24-.048-.359-.168-.359-.336,0-.216.215-.336.575-.336a20.043,20.043,0,0,1,2.448.144,3.619,3.619,0,0,1,.505.12,1.4,1.4,0,0,0,.5.072c2.16,0,6.12-.072,8.352-.192a.523.523,0,0,0,.336-.214,32.248,32.248,0,0,0,.144-3.458c-2.04-.024-4.872.024-6.576.145a6.356,6.356,0,0,0-2.305.48,1.12,1.12,0,0,1-.455.143,1.875,1.875,0,0,1-.505-.119,10.1,10.1,0,0,1-2.04-1.009c-.24-.168-.359-.288-.359-.432,0-.191.168-.264.5-.215a22.963,22.963,0,0,0,3.072.215c2.687-.024,5.976-.073,8.112-.191a1.907,1.907,0,0,0,.624-.121,1.612,1.612,0,0,1,.6-.167,6.542,6.542,0,0,1,1.319.167c.313.072.481.191.481.433,0,.262-.168.431-.5.7a30.915,30.915,0,0,1-.792,3.456c.6.168.912.384.912.648,0,.289-.217.456-.649.48-3.551.048-8.064.12-10.585.216-.023.169-.023.48-.023.48v2.544q0,.65.575.649c1.488,0,4.057-.025,6.073-.1a5.16,5.16,0,0,0,2.064-.36,2.671,2.671,0,0,1,.912-.289,11.012,11.012,0,0,1,2.16.1c.433.072.7.313.7.673,0,.552-.359.792-.984.792" fill="#333"/>
      <path id="패스_1483" data-name="패스 1483" d="M201.7,43.049a1.216,1.216,0,0,1-.768-.409l-4.2-3.816a27.817,27.817,0,0,1-7.129,5.208.6.6,0,0,1-.336.1c-.145,0-.216-.1-.216-.265,0-.119.1-.216.264-.336,3.24-2.208,7.2-6.12,8.929-9.744-1.417,0-3.1.1-4.225.216a2.737,2.737,0,0,0-1.176.359.829.829,0,0,1-.408.145,1.725,1.725,0,0,1-.456-.1,7.074,7.074,0,0,1-1.752-.889c-.192-.12-.288-.24-.288-.383,0-.168.12-.241.336-.216a20.965,20.965,0,0,0,2.5.168,48.42,48.42,0,0,0,5.161-.193,3.051,3.051,0,0,0,.647-.12,1.531,1.531,0,0,1,.6-.168,4.818,4.818,0,0,1,1.319.193c.288.072.433.24.433.408,0,.143-.12.288-.336.479a1.762,1.762,0,0,0-.36.385,18.286,18.286,0,0,1-2.809,4.032l1.417,1.176a3.885,3.885,0,0,0,1.3.768,1.455,1.455,0,0,1,.888.432,5.912,5.912,0,0,1,1.08,1.489,1.479,1.479,0,0,1,.1.551.463.463,0,0,1-.5.529m5.209,8.064c-3.457,0-7.249.025-9.169.048-1.945.024-2.521-.552-2.544-2.088V46.121c-.168-.313-.841-.576-2.065-.816-.263-.048-.384-.193-.384-.361,0-.191.528-.431.888-.431a18.521,18.521,0,0,1,2.881.192c.384.071.552.311.479.744-.023.264-.047.6-.047.983v3.073a.632.632,0,0,0,.671.72c1.2.048,2.785.048,4.369-.024a6.46,6.46,0,0,0,2.352-.384,1.949,1.949,0,0,1,.817-.288,10.45,10.45,0,0,1,2.04.1c.431.1.672.336.672.721,0,.5-.336.767-.96.767m-.769-18.577v8.736a20.191,20.191,0,0,1-.216,3.168c-.191,1.393-.5,2.065-.984,2.065-.36,0-.528-.7-.528-2.088v-12.5a4.781,4.781,0,0,0-2.28-1.345q-.36-.108-.36-.288c0-.264.288-.384.912-.384a9.765,9.765,0,0,1,3.024.529.662.662,0,0,1,.529.672c0,.311-.1,1.128-.1,1.44" fill="#333"/>
      <path id="패스_1484" data-name="패스 1484" d="M2.688.092h2.2a2.093,2.093,0,0,1,.164,4.183c-.052,0-.1,0-.154,0H3.352V6.816h-.66ZM4.868,3.68a1.5,1.5,0,1,0-.007-3H3.348v3Z" fill="#595757"/>
      <path id="패스_1485" data-name="패스 1485" d="M13.083.092h.66V6.225H16.93v.591H13.083Z" fill="#595757"/>
      <path id="패스_1486" data-name="패스 1486" d="M28,.092V4.54a2.57,2.57,0,0,1-5.127,0V.092h.66v4.4a1.9,1.9,0,0,0,3.8,0V.092Z" fill="#595757"/>
      <path id="패스_1487" data-name="패스 1487" d="M36.426.588c-.926,0-1.56.516-1.56,1.221s.693,1.024,1.33,1.2l.7.2c.841.233,1.839.676,1.839,1.812,0,1.083-.874,1.911-2.351,1.911C35,6.932,34.123,6.2,34.046,5.12h.676c.066.789.772,1.211,1.662,1.211.991,0,1.707-.528,1.707-1.319,0-.677-.574-.979-1.389-1.216l-.8-.232c-1.057-.309-1.674-.851-1.674-1.725a2.253,2.253,0,0,1,4.418-.055H38a1.409,1.409,0,0,0-1.577-1.2" fill="#595757"/>
      <path id="패스_1488" data-name="패스 1488" d="M44.775,6.815V.092h2.107c1.93,0,3.073,1.258,3.073,3.345,0,2.114-1.156,3.378-3.185,3.378Zm1.959-.591c1.707,0,2.577-1.05,2.574-2.787,0-1.717-.851-2.755-2.465-2.755H45.435V6.224Z" fill="#595757"/>
      <path id="패스_1489" data-name="패스 1489" d="M56,.092h3.94V.683H56.659V3.155h3.069v.588H56.659V6.225H60v.591H56Z" fill="#595757"/>
      <path id="패스_1490" data-name="패스 1490" d="M71.345,6.815h-.633L66.806,1.274h-.057V6.815H66.09V.092h.64l3.914,5.552H70.7V.092h.646Z" fill="#595757"/>
      <path id="패스_1491" data-name="패스 1491" d="M84.74,6.815V.092h2.108c1.93,0,3.072,1.258,3.072,3.345,0,2.114-1.155,3.378-3.184,3.378ZM86.7,6.224c1.706,0,2.577-1.05,2.572-2.787,0-1.717-.85-2.755-2.464-2.755H85.4V6.224Z" fill="#595757"/>
      <path id="패스_1492" data-name="패스 1492" d="M95.967.092h3.94V.683H96.625V3.155h3.069v.588H96.625V6.225h3.338v.591h-4Z" fill="#595757"/>
      <path id="패스_1493" data-name="패스 1493" d="M111.309,6.815h-.634l-3.9-5.541h-.057V6.815h-.66V.092h.641l3.913,5.552h.056V.092h.646Z" fill="#595757"/>
      <path id="패스_1494" data-name="패스 1494" d="M117.256.092h4.917V.683h-2.124V6.815h-.664V.683h-2.129Z" fill="#595757"/>
      <path id="패스_1495" data-name="패스 1495" d="M126.7,6.815,129.151.092h.711l2.446,6.723h-.7l-.709-2h-2.793l-.713,2Zm3.989-2.587L129.528.945h-.042l-1.169,3.283Z" fill="#595757"/>
      <path id="패스_1496" data-name="패스 1496" d="M138.028.092h.66V6.225h3.187v.591h-3.847Z" fill="#595757"/>
      <path id="패스_1497" data-name="패스 1497" d="M157.5.621c-1.26,0-2.278,1-2.278,2.833s1.018,2.833,2.278,2.833A1.986,1.986,0,0,0,159.5,4.711h.667a2.625,2.625,0,0,1-2.673,2.2c-1.706,0-2.921-1.346-2.921-3.454S155.79,0,157.5,0a2.623,2.623,0,0,1,2.673,2.2H159.5A1.985,1.985,0,0,0,157.5.621" fill="#595757"/>
      <path id="패스_1498" data-name="패스 1498" d="M166.177.092h.66V6.225h3.187v.591h-3.847Z" fill="#595757"/>
      <rect id="사각형_1003" data-name="사각형 1003" width="0.66" height="6.723" transform="translate(175.972 0.091)" fill="#595757"/>
      <path id="패스_1499" data-name="패스 1499" d="M188.232,6.815H187.6l-3.9-5.541h-.057V6.815h-.66V.092h.64l3.914,5.552h.056V.092h.646Z" fill="#595757"/>
      <rect id="사각형_1004" data-name="사각형 1004" width="0.661" height="6.723" transform="translate(194.578 0.091)" fill="#595757"/>
      <path id="패스_1500" data-name="패스 1500" d="M204.21.621c-1.26,0-2.277,1-2.277,2.833s1.017,2.833,2.277,2.833a1.985,1.985,0,0,0,2-1.576h.667a2.626,2.626,0,0,1-2.673,2.2c-1.706,0-2.921-1.346-2.921-3.454S202.5,0,204.209,0a2.623,2.623,0,0,1,2.673,2.2h-.667a1.984,1.984,0,0,0-2-1.582" fill="#595757"/>
    </g>
  </g>
</svg>
