<svg id="그룹_1620" data-name="그룹 1620" xmlns="http://www.w3.org/2000/svg" xmlns:xlink="http://www.w3.org/1999/xlink" width="299.229" height="98.601" viewBox="0 0 299.229 98.601">
  <defs>
    <clipPath id="clip-path">
      <rect id="사각형_1002" data-name="사각형 1002" width="299.229" height="98.601" transform="translate(0 0)" fill="none"/>
    </clipPath>
  </defs>
  <g id="그룹_1619" data-name="그룹 1619" clip-path="url(#clip-path)">
    <path id="패스_1438" data-name="패스 1438" d="M5.3,51.824C2.616,51.824,0,50.1,0,47.336c0-2.521,2.28-4.273,4.68-4.513.264-.191.36-.336.36-.5s-.144-.359-.408-.5c-.144-.072-.216-.143-.216-.263,0-.193.168-.265.48-.265a3.166,3.166,0,0,1,1.464.385.443.443,0,0,1,.312.408,1.541,1.541,0,0,1-.407.792c2.279.384,4.3,2.063,4.3,4.464,0,2.761-2.567,4.488-5.256,4.488m.048-7.752a3.479,3.479,0,0,0-3.576,3.264,3.4,3.4,0,0,0,3.576,3.24A3.381,3.381,0,0,0,8.9,47.336a3.444,3.444,0,0,0-3.553-3.264M16.7,55.016a.793.793,0,0,0-.216.384c-.168,1.513-.384,2.929-.7,4.537.624.168.936.384.936.7,0,.337-.336.505-1.008.48-2.568,0-5.473.048-8.184.12-.168.817-.409,1.2-.841,1.2q-.468,0-.575-1.224l-.553-5.736a2.684,2.684,0,0,0-1.512-.792c-.264-.073-.384-.168-.384-.312,0-.24.216-.36.672-.36a13.84,13.84,0,0,1,2.064.143,4.343,4.343,0,0,1,1.008.24c1.9,0,4.777-.072,6.817-.191a2.12,2.12,0,0,0,.48-.1,1.786,1.786,0,0,1,.528-.12,5.637,5.637,0,0,1,1.44.193c.264.072.384.192.384.36,0,.144-.168.312-.36.479m-9.217.313a4.812,4.812,0,0,0-.024.6l.12,4.32c2.617.024,4.969-.024,6.529-.12a.684.684,0,0,0,.456-.288l.072-4.68c-1.92,0-4.776.071-7.153.168M16.7,42.536v6.336a19.516,19.516,0,0,1-.144,2.641c-.168,1.295-.5,1.967-1.008,1.967-.384,0-.576-.6-.576-1.752V41.935a4.463,4.463,0,0,0-2.28-1.368c-.216-.072-.336-.168-.336-.288,0-.264.288-.384.912-.384a9.51,9.51,0,0,1,3,.529.684.684,0,0,1,.552.672c0,.191-.12.792-.12,1.44" fill="#fff"/>
    <path id="패스_1439" data-name="패스 1439" d="M41.209,51.608c-.888-.072-1.968-.12-2.952-.12-3.673,0-8.881.144-11.665.336a6.1,6.1,0,0,0-2.233.432,1.158,1.158,0,0,1-.5.121A1.634,1.634,0,0,1,23.4,52.3a9.746,9.746,0,0,1-2.3-1.1c-.216-.144-.336-.264-.336-.5,0-.168.168-.216.481-.168a24.639,24.639,0,0,0,3.528.264c3.264,0,7.944-.12,11.3-.264a7.131,7.131,0,0,0,2.425-.36,2.049,2.049,0,0,1,.864-.264,8.1,8.1,0,0,1,2.28.288c.456.12.672.36.672.7,0,.576-.431.768-1.1.72m-2.736-9.121c-.648-.024-1.584-.071-2.808-.071-2.305,0-5.161.071-7.417.263a4.28,4.28,0,0,0-1.464.313,1,1,0,0,1-.456.119,1.632,1.632,0,0,1-.5-.1,7.891,7.891,0,0,1-1.969-.96c-.167-.12-.24-.216-.24-.336,0-.192.12-.288.385-.24a22.019,22.019,0,0,0,2.952.192c2.52,0,5.16-.024,7.032-.144a5.37,5.37,0,0,0,1.849-.336,2.078,2.078,0,0,1,.984-.288c1.3,0,2.544.24,2.544.889,0,.527-.336.719-.888.695m-2.257,2.064c-.048.1-.12.288-.216.5a25.308,25.308,0,0,1-1.224,2.569,3.722,3.722,0,0,0,1.009-.288,2.082,2.082,0,0,1,.984-.264,6.065,6.065,0,0,1,1.488.191c.455.12.72.337.72.673,0,.432-.336.624-.816.6-.865-.048-1.825-.048-2.833-.048-2.136.024-4.992.143-7.032.288a3.729,3.729,0,0,0-1.441.336,1.067,1.067,0,0,1-.456.143,1.768,1.768,0,0,1-.527-.119,7.045,7.045,0,0,1-1.777-.936c-.168-.12-.24-.216-.24-.336,0-.168.145-.24.433-.193a20.293,20.293,0,0,0,2.832.193c2.16,0,4.656-.025,6.576-.145a17.449,17.449,0,0,0,.648-3.023,2.455,2.455,0,0,0-1.3-1.08c-.24-.1-.336-.168-.336-.361s.288-.335.816-.288a11.817,11.817,0,0,1,2.4.552c.312.1.433.265.433.481a1.107,1.107,0,0,1-.145.551M37.9,61.521c-3.337,0-7.153.048-10.009.1a2.369,2.369,0,0,1-1.489-.361,1.661,1.661,0,0,1-.5-1.391V58.113a2.873,2.873,0,0,0-1.512-.744c-.239-.073-.36-.168-.36-.288,0-.216.192-.336.6-.336a15.13,15.13,0,0,1,2.424.168,4.263,4.263,0,0,1,.48.12,2.046,2.046,0,0,0,.552.071c2.376,0,5.4-.048,7.2-.168a.343.343,0,0,0,.312-.239,19.372,19.372,0,0,0,.073-2.233c-2.065.024-4.681.1-6.217.193a5.58,5.58,0,0,0-1.7.263,1.481,1.481,0,0,1-.553.192,1.417,1.417,0,0,1-.5-.1,8.773,8.773,0,0,1-1.969-.96.416.416,0,0,1-.216-.336c0-.168.144-.263.409-.216a21.231,21.231,0,0,0,2.712.241c2.28.048,5.16-.025,7.512-.193a3.567,3.567,0,0,0,.6-.144,1.64,1.64,0,0,1,.529-.119A5.959,5.959,0,0,1,37.8,53.5c.241.072.36.168.36.312,0,.192-.119.312-.312.456-.168.12-.265.216-.288.36a17.053,17.053,0,0,1-.576,2.113c.576.12.912.336.912.624,0,.311-.216.456-.647.456-3.386,0-6.986.095-9.506.216a2.322,2.322,0,0,0-.024.431v1.7c0,.313.168.481.528.505,1.44.024,3.624.024,5.16-.072a5.8,5.8,0,0,0,2.064-.36,2.249,2.249,0,0,1,.889-.264,10.352,10.352,0,0,1,2.015.168.611.611,0,0,1,.529.7c0,.456-.336.672-1.008.672m-8.689-14.5a.864.864,0,0,1-.6.312c-.24,0-.408-.144-.432-.457a8.509,8.509,0,0,0-.768-2.927,1.334,1.334,0,0,1-.168-.456c0-.168.072-.241.312-.241a.852.852,0,0,1,.456.216c.672.5,1.848,1.729,1.848,2.473,0,.336-.216.647-.648,1.08" fill="#fff"/>
    <path id="패스_1440" data-name="패스 1440" d="M63.745,48.776c-.84.023-2.017.048-3.528.095v2.4A20.443,20.443,0,0,1,60,54.44c-.192,1.392-.505,2.089-.984,2.089-.361,0-.529-.721-.529-2.113V51.56a66.929,66.929,0,0,1-10.7,2.184,4.25,4.25,0,0,1-1.248-.024,1.5,1.5,0,0,1-.888-.672,2.71,2.71,0,0,1-.36-1.536V48.535a4.024,4.024,0,0,0-1.632-.719c-.216-.048-.336-.145-.336-.288,0-.168.36-.384.648-.384a12.7,12.7,0,0,1,2.352.191c.264.048.432.073.529.1a2.191,2.191,0,0,0,.576.049,41.455,41.455,0,0,0,4.584-.24.429.429,0,0,0,.336-.265c.072-1.031.072-2.376.048-3.5-1.176,0-2.76.048-3.84.12a5.843,5.843,0,0,0-1.657.336,1.539,1.539,0,0,1-.576.168,1.281,1.281,0,0,1-.479-.1,6.478,6.478,0,0,1-1.8-.936c-.168-.12-.24-.216-.24-.36,0-.168.144-.24.456-.192a18.543,18.543,0,0,0,2.472.144c1.7.024,3.745-.048,5.161-.168a2.623,2.623,0,0,0,.624-.12,1.333,1.333,0,0,1,.552-.12,5.443,5.443,0,0,1,1.488.216c.192.048.312.144.312.312,0,.192-.095.312-.312.5a.569.569,0,0,0-.24.36c-.192,1.08-.384,2.185-.7,3.336.6.144.936.385.936.648,0,.313-.168.5-.6.529-2.16.12-5.064.263-6.816.36a3.09,3.09,0,0,0-.025.455V51.68c0,.408.168.552.529.552a60.4,60.4,0,0,0,10.848-1.416V41.911a4.815,4.815,0,0,0-2.256-1.344c-.24-.073-.36-.168-.36-.288,0-.264.288-.384.912-.384a9.759,9.759,0,0,1,3,.528.662.662,0,0,1,.528.672c0,.312-.1,1.128-.1,1.44v5.472a2.32,2.32,0,0,0,1.32-.407,1.213,1.213,0,0,1,.527-.265,5.244,5.244,0,0,1,2.113,0,.635.635,0,0,1,.576.672c0,.528-.336.769-1.008.769M61.081,61.137c-4.032,0-7.009.023-8.905.048-1.945.023-2.521-.528-2.521-2.112l-.023-1.8a3.342,3.342,0,0,0-2.088-.841c-.24-.048-.36-.144-.36-.336s.5-.456.864-.456a19.423,19.423,0,0,1,2.928.192c.335.073.5.312.432.768-.024.265-.049.576-.049.984v1.968a.641.641,0,0,0,.7.721c1.248.023,2.64.023,4.129-.048a6.419,6.419,0,0,0,2.328-.385,2.3,2.3,0,0,1,.839-.288,11.769,11.769,0,0,1,2.017.12c.48.1.695.313.695.7,0,.5-.311.769-.983.769" fill="#fff"/>
    <path id="패스_1441" data-name="패스 1441" d="M85.848,58.161c-.887-.072-1.872-.12-2.856-.12-4.128,0-9.025.143-11.809.336A5.75,5.75,0,0,0,69,58.833a1.014,1.014,0,0,1-.5.144,1.4,1.4,0,0,1-.48-.1,9.223,9.223,0,0,1-2.28-1.152c-.217-.144-.336-.264-.336-.48,0-.168.168-.216.48-.168a21.588,21.588,0,0,0,3.528.264c3.264,0,7.9-.121,11.329-.264a7.119,7.119,0,0,0,2.424-.36,2.049,2.049,0,0,1,.864-.264,7.938,7.938,0,0,1,2.257.288c.455.12.672.359.672.7,0,.575-.433.768-1.105.72m-3.24-5.041c-3.12.049-7.1.12-10.345.192-1.944.048-2.568-.6-2.568-2.135V44.359a3.517,3.517,0,0,0-2.04-.887c-.264-.048-.384-.144-.384-.336s.5-.481.912-.481a18.414,18.414,0,0,1,2.592.193,2.384,2.384,0,0,1,.769.24c1.872,0,4.727-.048,6.312-.12a3.978,3.978,0,0,0,1.752-.384,2.158,2.158,0,0,1,.72-.265,8.568,8.568,0,0,1,2.208,0c.5.072.768.313.768.721,0,.527-.36.744-1.008.767-2.833.073-8.017.216-10.729.313a3.633,3.633,0,0,0-.048.72V47.7c1.992,0,4.32-.072,5.809-.144a4.79,4.79,0,0,0,1.847-.336,2.3,2.3,0,0,1,.745-.264,8.99,8.99,0,0,1,2.112.023c.48.073.721.289.721.673,0,.528-.337.744-.985.744-3.24.048-6.961.144-10.249.24V51.56c0,.5.216.745.672.745,1.345.023,3.624,0,5.545-.073a5.614,5.614,0,0,0,2.112-.383,2.451,2.451,0,0,1,.888-.313,10.864,10.864,0,0,1,2.184.1.712.712,0,0,1,.7.719c0,.529-.336.768-1.008.768" fill="#fff"/>
    <path id="패스_1442" data-name="패스 1442" d="M107.039,43.784a1.761,1.761,0,0,0-.36.384,18.215,18.215,0,0,1-2.832,4.152l1.392,1.273a3.111,3.111,0,0,0,1.272.792,1.446,1.446,0,0,1,.888.5,5.387,5.387,0,0,1,1.008,1.536,1.481,1.481,0,0,1,.1.551c0,.336-.241.481-.553.481a1.1,1.1,0,0,1-.743-.433l-4.057-3.96a27.535,27.535,0,0,1-7.057,5.208.591.591,0,0,1-.336.1c-.144,0-.215-.1-.215-.265,0-.12.1-.215.263-.336,3.24-2.135,7.345-6.288,8.881-9.888-1.416,0-3.168.12-4.345.216a2.7,2.7,0,0,0-1.175.36.833.833,0,0,1-.409.143A1.729,1.729,0,0,1,98.3,44.5a7.124,7.124,0,0,1-1.752-.888c-.192-.12-.288-.24-.288-.385,0-.168.12-.239.336-.216a20.743,20.743,0,0,0,2.5.168,50.559,50.559,0,0,0,5.281-.191,3.141,3.141,0,0,0,.648-.12,1.523,1.523,0,0,1,.6-.168,4.886,4.886,0,0,1,1.32.191c.288.073.433.241.433.409,0,.144-.121.288-.337.48m6.985,17.354c-4.081,0-7.345.023-9.217.047-1.992.024-2.545-.528-2.545-2.112l-.023-2.952c-.193-.313-.864-.6-2.088-.84-.24-.024-.36-.144-.36-.337s.528-.456.887-.456a18.6,18.6,0,0,1,2.881.193c.36.072.528.312.456.768-.024.264-.049.575-.049.983v3.121a.657.657,0,0,0,.721.72c1.272.048,2.928.024,4.416-.048a6.087,6.087,0,0,0,2.305-.36,2.178,2.178,0,0,1,.888-.288,9.828,9.828,0,0,1,1.992.1c.48.1.7.312.7.7,0,.5-.313.769-.96.769m-.624-18.6v8.952a23.065,23.065,0,0,1-.217,3.145c-.216,1.391-.527,2.112-.983,2.112-.384,0-.553-.721-.553-2.137V48.272c-.72.048-1.367.12-1.848.192a2.68,2.68,0,0,0-.839.264.89.89,0,0,1-.385.12,1,1,0,0,1-.384-.072,7.465,7.465,0,0,1-1.68-.864c-.168-.12-.24-.216-.24-.36,0-.168.144-.192.456-.168.649.048,1.273.072,2.088.072.96-.024,1.921-.072,2.832-.168V41.912a4.778,4.778,0,0,0-2.279-1.345c-.24-.072-.361-.168-.361-.288,0-.264.312-.384.936-.384a9.516,9.516,0,0,1,3,.529.685.685,0,0,1,.552.672c0,.311-.1,1.128-.1,1.44" fill="#fff"/>
    <path id="패스_1443" data-name="패스 1443" d="M137.688,52.5c-.888-.071-1.968-.119-2.953-.119-1.679,0-3.647.023-5.568.071v.792a22.053,22.053,0,0,1-.192,2.929c-.167,1.32-.48,1.992-.936,1.992-.384,0-.576-.672-.576-1.992V52.52c-1.7.048-3.264.121-4.392.193a6.09,6.09,0,0,0-2.232.431,1.167,1.167,0,0,1-.5.121,1.629,1.629,0,0,1-.456-.073,9.733,9.733,0,0,1-2.305-1.1c-.216-.145-.336-.265-.336-.5,0-.169.168-.217.481-.169a24.615,24.615,0,0,0,3.528.265c3.264,0,7.944-.121,11.305-.265a7.15,7.15,0,0,0,2.423-.359,2.056,2.056,0,0,1,.865-.265,8.138,8.138,0,0,1,2.28.288c.456.12.672.36.672.7,0,.576-.432.769-1.1.72m-3.457,8.81c-2.88,0-7.32.023-9.216.047-1.968.024-2.5-.551-2.52-2.064l-.024-2.472c-.168-.337-1.128-.673-2.088-.841-.241-.047-.361-.168-.361-.335,0-.192.5-.457.865-.457a17.472,17.472,0,0,1,2.927.216c.361.073.5.313.456.721-.023.264-.047.624-.047,1.008v2.592a.638.638,0,0,0,.7.72c1.344.024,2.832.024,4.416-.024a5.8,5.8,0,0,0,2.28-.384,2.413,2.413,0,0,1,.889-.288,10.446,10.446,0,0,1,2.04.1c.456.1.672.312.672.673,0,.527-.312.792-.985.792m.288-18.89c-.12.071-.215.168-.215.239-.193,1.681-.456,3.24-.768,4.825.624.168.936.384.936.7,0,.36-.336.528-1.033.505-3.048-.025-6.552.023-9.337.119-.12.768-.383,1.152-.839,1.152-.288,0-.48-.432-.577-1.271l-.527-5.809a4.165,4.165,0,0,0-1.608-.792c-.265-.072-.384-.145-.384-.313,0-.192.384-.408.672-.408a15,15,0,0,1,2.183.145,4.371,4.371,0,0,1,1.009.239c2.736,0,5.832-.071,7.92-.168a2.085,2.085,0,0,0,.673-.168,1.214,1.214,0,0,1,.456-.1,6.031,6.031,0,0,1,1.416.216c.264.073.384.168.384.336a.667.667,0,0,1-.361.553m-10.44.288a5.211,5.211,0,0,0-.024.6l.072,4.512c2.736.048,5.688,0,7.728-.12a.5.5,0,0,0,.433-.312l.119-4.825c-2.519-.023-5.64.025-8.328.145" fill="#fff"/>
    <path id="패스_1444" data-name="패스 1444" d="M167.208,51.608c-.889-.072-1.969-.12-2.953-.12-3.672,0-8.88.144-11.664.336a6.093,6.093,0,0,0-2.233.432,1.161,1.161,0,0,1-.5.121,1.634,1.634,0,0,1-.456-.073,9.746,9.746,0,0,1-2.3-1.1c-.216-.144-.336-.264-.336-.5,0-.168.168-.216.48-.168a24.653,24.653,0,0,0,3.529.264c3.263,0,7.944-.12,11.3-.264a7.124,7.124,0,0,0,2.424-.36,2.049,2.049,0,0,1,.864-.264,8.109,8.109,0,0,1,2.281.288c.456.12.671.36.671.7,0,.576-.431.768-1.1.72m-2.736-9.121c-.649-.024-1.584-.071-2.809-.071-2.3,0-5.16.071-7.417.263a4.286,4.286,0,0,0-1.464.313.993.993,0,0,1-.456.119,1.632,1.632,0,0,1-.5-.1,7.883,7.883,0,0,1-1.968-.96c-.168-.12-.24-.216-.24-.336,0-.192.12-.288.384-.24a22.041,22.041,0,0,0,2.952.192c2.521,0,5.16-.024,7.033-.144a5.358,5.358,0,0,0,1.848-.336,2.085,2.085,0,0,1,.984-.288c1.3,0,2.544.24,2.544.889,0,.527-.336.719-.887.695m-2.257,2.064c-.048.1-.12.288-.216.5a25.3,25.3,0,0,1-1.224,2.569,3.7,3.7,0,0,0,1.008-.288,2.089,2.089,0,0,1,.985-.264,6.063,6.063,0,0,1,1.487.191c.456.12.721.337.721.673,0,.432-.336.624-.817.6-.864-.048-1.824-.048-2.832-.048-2.136.024-4.992.143-7.032.288a3.724,3.724,0,0,0-1.441.336,1.071,1.071,0,0,1-.456.143,1.78,1.78,0,0,1-.528-.119,7.057,7.057,0,0,1-1.776-.936c-.168-.12-.24-.216-.24-.336,0-.168.144-.24.432-.193a20.314,20.314,0,0,0,2.832.193c2.16,0,4.656-.025,6.577-.145a17.449,17.449,0,0,0,.648-3.023,2.455,2.455,0,0,0-1.3-1.08c-.24-.1-.336-.168-.336-.361s.288-.335.816-.288a11.846,11.846,0,0,1,2.4.552c.312.1.432.265.432.481a1.1,1.1,0,0,1-.144.551m1.68,16.97c-3.336,0-7.152.048-10.008.1a2.367,2.367,0,0,1-1.489-.361,1.661,1.661,0,0,1-.5-1.391V58.113a2.877,2.877,0,0,0-1.512-.744c-.239-.073-.36-.168-.36-.288,0-.216.192-.336.6-.336a15.135,15.135,0,0,1,2.425.168,4.207,4.207,0,0,1,.479.12,2.051,2.051,0,0,0,.552.071c2.377,0,5.4-.048,7.2-.168a.343.343,0,0,0,.312-.239,19.642,19.642,0,0,0,.072-2.233c-2.064.024-4.681.1-6.217.193a5.592,5.592,0,0,0-1.7.263,1.472,1.472,0,0,1-.552.192,1.425,1.425,0,0,1-.5-.1,8.786,8.786,0,0,1-1.968-.96.416.416,0,0,1-.216-.336c0-.168.144-.263.408-.216a21.263,21.263,0,0,0,2.712.241c2.28.048,5.161-.025,7.513-.193a3.567,3.567,0,0,0,.6-.144,1.635,1.635,0,0,1,.529-.119,5.965,5.965,0,0,1,1.536.215c.239.072.359.168.359.312,0,.192-.12.312-.311.456-.168.12-.265.216-.288.36a17.237,17.237,0,0,1-.577,2.113c.577.12.912.336.912.624,0,.311-.215.456-.648.456-3.384,0-6.984.095-9.5.216a2.421,2.421,0,0,0-.023.431v1.7c0,.313.168.481.527.505,1.44.024,3.625.024,5.161-.072a5.8,5.8,0,0,0,2.064-.36,2.25,2.25,0,0,1,.888-.264,10.363,10.363,0,0,1,2.016.168.61.61,0,0,1,.528.7c0,.456-.336.672-1.008.672m-8.688-14.5a.866.866,0,0,1-.6.312c-.24,0-.408-.144-.431-.457a8.51,8.51,0,0,0-.769-2.927,1.334,1.334,0,0,1-.168-.456c0-.168.073-.241.313-.241a.855.855,0,0,1,.456.216c.672.5,1.847,1.729,1.847,2.473,0,.336-.215.647-.647,1.08" fill="#fff"/>
    <path id="패스_1445" data-name="패스 1445" d="M182.448,54.776a38.738,38.738,0,0,1-8.425,1.753,2.829,2.829,0,0,1-1.129-.024c-.888-.288-1.176-1.1-1.176-2.233l-.023-4.128a3.157,3.157,0,0,0-1.536-.72q-.361-.108-.361-.287c0-.217.384-.385.7-.385a17.448,17.448,0,0,1,2.231.168,4.975,4.975,0,0,0,1.1.192c1.3-.048,3.192-.12,4.3-.24a.4.4,0,0,0,.337-.24c.1-1.536.119-2.88.1-4.344-1.152,0-2.736.048-3.624.12a6.054,6.054,0,0,0-1.633.312,1.722,1.722,0,0,1-.576.192,1.613,1.613,0,0,1-.527-.1,8.43,8.43,0,0,1-1.753-.96c-.168-.12-.24-.215-.24-.336,0-.168.144-.24.457-.191a23.639,23.639,0,0,0,2.519.168c1.681.023,3.577-.048,4.9-.168a2.716,2.716,0,0,0,.6-.12,1.424,1.424,0,0,1,.552-.12,6.507,6.507,0,0,1,1.488.216c.216.072.312.168.312.288a.683.683,0,0,1-.312.48.834.834,0,0,0-.216.36c-.215,1.512-.456,2.688-.768,4.2.648.12.984.36.984.7,0,.288-.216.456-.648.48-2.16.1-4.609.216-6.553.312a3.353,3.353,0,0,0-.023.48v3.84c0,.361.192.529.551.529a48.814,48.814,0,0,0,8.137-.817,2.821,2.821,0,0,1,.408-.048.259.259,0,0,1,.264.288c0,.168-.168.289-.407.384m5.112-12.24V55.449c0,4.752-.408,7.1-1.2,7.1-.384,0-.553-.792-.553-2.377V49.544c-.575.049-1.056.1-1.271.144a2.684,2.684,0,0,0-.769.216,1.1,1.1,0,0,1-.432.144,1.336,1.336,0,0,1-.408-.072,6.1,6.1,0,0,1-1.632-.816c-.168-.12-.24-.192-.24-.36s.168-.192.432-.168a13.416,13.416,0,0,0,1.992.049c.792-.025,1.585-.049,2.328-.145v-6.6a4.46,4.46,0,0,0-2.279-1.368c-.24-.072-.361-.168-.361-.288,0-.264.312-.384.936-.384a9.516,9.516,0,0,1,3,.529.685.685,0,0,1,.552.672c0,.311-.1,1.152-.1,1.44" fill="#fff"/>
    <path id="패스_1446" data-name="패스 1446" d="M211.848,58.065c-.888-.072-1.873-.12-2.856-.12-4.129,0-9.027.144-11.81.336a5.754,5.754,0,0,0-2.183.456,1.014,1.014,0,0,1-.5.144,1.4,1.4,0,0,1-.481-.1,9.206,9.206,0,0,1-2.28-1.152c-.216-.144-.336-.264-.336-.48,0-.168.168-.216.48-.168a21.579,21.579,0,0,0,3.528.264c3.263,0,7.9-.12,11.328-.264a7.134,7.134,0,0,0,2.426-.36,2.041,2.041,0,0,1,.863-.264,7.969,7.969,0,0,1,2.256.287c.457.121.672.361.672.7,0,.576-.431.768-1.1.72m-7.825-13.9a18.1,18.1,0,0,1-1.3,2.016l2.64,1.512a5.57,5.57,0,0,0,1.921.7,3.223,3.223,0,0,1,1.127.311A9.377,9.377,0,0,1,210.24,50.1c.623.6.864.983.864,1.319,0,.36-.168.576-.528.576a1.584,1.584,0,0,1-.84-.311L202.079,47a23.581,23.581,0,0,1-8.328,6.1.943.943,0,0,1-.457.12c-.121,0-.215-.1-.215-.265,0-.143.118-.263.31-.384,3.073-1.872,6.937-5.3,8.4-8.5a3.052,3.052,0,0,0-1.511-1.44c-.289-.145-.409-.24-.409-.384,0-.192.241-.312.672-.312a1.834,1.834,0,0,1,.5.047,11.336,11.336,0,0,1,2.737,1.009c.263.192.384.336.384.6a1.089,1.089,0,0,1-.144.576" fill="#fff"/>
    <path id="패스_1447" data-name="패스 1447" d="M216.166,45.248c-.169-.361-.7-.624-1.609-.84-.264-.1-.383-.193-.383-.336,0-.217.5-.456.863-.456a14.642,14.642,0,0,1,2.137.143,2.438,2.438,0,0,1,.792.241,16.82,16.82,0,0,0,2.135-.073,2.983,2.983,0,0,0,1.128-.288,2.581,2.581,0,0,1,.841-.336,5.757,5.757,0,0,1,1.44.025c.48.071.72.336.72.719,0,.481-.384.745-1.056.768-1.512.049-3.577.12-5.185.192a4,4,0,0,0-.048.744v5.665c0,.36.145.5.481.5a49.731,49.731,0,0,0,6.24-.624,2.672,2.672,0,0,1,.408-.048c.168,0,.24.12.24.312s-.144.264-.383.36a33.008,33.008,0,0,1-6.457,1.512,2.944,2.944,0,0,1-1.033,0,1.5,1.5,0,0,1-.887-.7,2.751,2.751,0,0,1-.336-1.464Zm17.089,15.937c-3.529,0-7.633.024-9.577.048-1.993.023-2.544-.528-2.544-2.088l-.024-2.473c-.24-.36-.841-.6-2.089-.839-.239-.048-.359-.145-.359-.336,0-.216.479-.456.888-.456a20.048,20.048,0,0,1,2.9.191c.36.072.5.336.456.744-.024.265-.048.6-.048,1.009V59.6a.657.657,0,0,0,.7.744c1.392.024,3.168.024,4.777-.049a6.263,6.263,0,0,0,2.351-.407,1.827,1.827,0,0,1,.865-.264,10.851,10.851,0,0,1,2.016.12c.48.072.672.312.672.7,0,.5-.312.744-.984.744m-4.321-18.218c-.024.264-.024.5-.024.817v7.344a23.65,23.65,0,0,1-.144,2.928c-.168,1.368-.528,2.04-.984,2.04-.359,0-.552-.624-.552-1.9V48.224a24.19,24.19,0,0,0-2.448.239,3.377,3.377,0,0,0-.864.265.656.656,0,0,1-.312.1,1.064,1.064,0,0,1-.336-.073,9.972,9.972,0,0,1-1.776-.864c-.168-.1-.24-.191-.24-.311,0-.168.144-.216.408-.193a14.328,14.328,0,0,0,2.112.073c.96-.025,2.352-.073,3.456-.168v-4.2a3.656,3.656,0,0,0-1.847-1.175c-.241-.073-.361-.193-.361-.313,0-.216.288-.336.865-.336a9.433,9.433,0,0,1,1.343.193c.6.119,1.032.215,1.248.287a.711.711,0,0,1,.5.7c0,.072-.023.24-.048.528m4.057-1.32a4.566,4.566,0,0,0-.072.84v9.457a23.947,23.947,0,0,1-.144,2.929c-.168,1.343-.5,2.04-.984,2.04-.361,0-.552-.649-.552-1.92V41.863a4.208,4.208,0,0,0-2.112-1.3c-.24-.072-.361-.191-.361-.312q0-.36.937-.36a8.838,8.838,0,0,1,2.784.576.7.7,0,0,1,.552.672,1.969,1.969,0,0,1-.048.5" fill="#fff"/>
    <path id="패스_1448" data-name="패스 1448" d="M248.782,47.12a1.04,1.04,0,0,0-.313.36,19.086,19.086,0,0,1-3.12,4.176l1.321,1.08a3.665,3.665,0,0,0,1.343.721,1.708,1.708,0,0,1,.84.384,5.508,5.508,0,0,1,1.345,1.8,1.429,1.429,0,0,1,.12.529c0,.384-.12.6-.456.6a1.293,1.293,0,0,1-.816-.407L244.581,52.4a30.426,30.426,0,0,1-7.177,4.992.644.644,0,0,1-.336.1c-.144,0-.216-.1-.216-.265,0-.095.1-.215.265-.335a30.065,30.065,0,0,0,9.385-9.7c-1.345.024-3.073.1-4.417.216a3.459,3.459,0,0,0-1.512.36.709.709,0,0,1-.408.144.833.833,0,0,1-.313-.072,9.552,9.552,0,0,1-1.92-.936c-.216-.12-.311-.24-.311-.408s.12-.216.359-.192a20.772,20.772,0,0,0,2.593.168c1.824.024,4.008-.048,5.593-.192a2.066,2.066,0,0,0,.624-.12,1.747,1.747,0,0,1,.6-.168,4.947,4.947,0,0,1,1.344.191c.265.073.408.193.408.337,0,.287-.12.408-.359.6m-2.953-2.832q-1.044.035-3.024.144a1.652,1.652,0,0,1-.936-.264,8.2,8.2,0,0,1-1.344-1.057.5.5,0,0,1-.192-.384c0-.143.1-.215.312-.215a2.389,2.389,0,0,1,.456.072,27.158,27.158,0,0,0,4.68.408c.576,0,.864.191.864.6,0,.456-.263.7-.816.7m8.449-1.752V55.449c0,4.752-.384,7.1-1.2,7.1q-.5,0-.5-2.377V41.935a4.446,4.446,0,0,0-2.305-1.368c-.216-.072-.336-.168-.336-.288,0-.264.288-.384.912-.384a9.521,9.521,0,0,1,3,.529.684.684,0,0,1,.552.672c0,.311-.12,1.152-.12,1.44" fill="#fff"/>
    <path id="패스_1449" data-name="패스 1449" d="M265.605,50.408l-.049,4.488a76.507,76.507,0,0,0,8.257-1.1V41.935a4.452,4.452,0,0,0-2.28-1.368c-.216-.072-.336-.168-.336-.288,0-.264.288-.384.912-.384a9.769,9.769,0,0,1,3,.528.662.662,0,0,1,.527.672c0,.312-.12,1.008-.12,1.441V49.9a2.318,2.318,0,0,0,1.3-.408,1.222,1.222,0,0,1,.527-.264,5.652,5.652,0,0,1,2.113,0,.649.649,0,0,1,.576.672c0,.528-.336.768-1.008.768-.84.024-2.016.048-3.505.1v4.7a35.525,35.525,0,0,1-.216,4.776c-.191,1.561-.5,2.305-.96,2.305-.36,0-.528-.792-.528-2.377V54.608a74.692,74.692,0,0,1-10.56,1.824,3.158,3.158,0,0,0-1.2.36,1.033,1.033,0,0,1-.5.121,1.327,1.327,0,0,1-.48-.1,10.635,10.635,0,0,1-2.376-1.225c-.216-.143-.36-.311-.336-.48,0-.168.192-.24.528-.192a21.23,21.23,0,0,0,3.168.168c.552,0,1.225-.024,1.92-.072l-.071-4.824a2.658,2.658,0,0,0-1.608-.937c-.241-.071-.361-.168-.361-.336,0-.191.288-.336.769-.336a11.422,11.422,0,0,1,2.448.265c.432.1.6.359.527.72a4.848,4.848,0,0,0-.071.84m5.256-6.265a26.7,26.7,0,0,1-1.632,7.321q-.216.5-.5.5c-.192,0-.288-.12-.288-.336,0-.1.024-.192.048-.385a50.266,50.266,0,0,0,.384-7.127c-1.512.023-3.408.1-4.656.191a5.676,5.676,0,0,0-2.016.48,1.186,1.186,0,0,1-.456.144,1.517,1.517,0,0,1-.505-.12,9.22,9.22,0,0,1-1.872-.96c-.216-.144-.312-.264-.312-.432,0-.192.168-.263.48-.216a19.026,19.026,0,0,0,3.049.192c1.536,0,3.84-.071,5.688-.239a1.766,1.766,0,0,0,.624-.145,1.73,1.73,0,0,1,.648-.168,4.737,4.737,0,0,1,1.56.288.351.351,0,0,1,.24.336c0,.24-.168.408-.48.672" fill="#fff"/>
    <path id="패스_1450" data-name="패스 1450" d="M299.158,42.536V55.449c0,4.752-.409,7.1-1.2,7.1-.384,0-.553-.792-.553-2.377V55.064a86.619,86.619,0,0,1-11.616,1.753,3.136,3.136,0,0,0-1.2.359,1.022,1.022,0,0,1-.5.12,1.3,1.3,0,0,1-.481-.1,13.115,13.115,0,0,1-2.353-1.248c-.215-.168-.359-.336-.334-.5,0-.168.191-.217.527-.168a18.571,18.571,0,0,0,3.168.191A118.631,118.631,0,0,0,297.4,54.2V41.935a4.448,4.448,0,0,0-2.28-1.368c-.24-.072-.359-.168-.359-.288,0-.264.311-.384.936-.384a9.54,9.54,0,0,1,3,.528.662.662,0,0,1,.527.672c0,.312-.071,1.153-.071,1.441M288.525,51.92c-2.832,0-5.328-1.68-5.328-4.44,0-2.5,2.328-4.249,4.847-4.44a.71.71,0,0,0,.336-.481c0-.168-.143-.36-.407-.528-.168-.1-.24-.192-.24-.264,0-.168.168-.264.479-.264a3.6,3.6,0,0,1,1.393.336.529.529,0,0,1,.336.456,1.854,1.854,0,0,1-.455.792c2.375.361,4.367,2.016,4.367,4.393,0,2.736-2.521,4.44-5.328,4.44m-3.5-4.44a3.273,3.273,0,0,0,3.575,3.192,3.31,3.31,0,0,0,3.554-3.192,3.378,3.378,0,0,0-3.554-3.192,3.32,3.32,0,0,0-3.575,3.192" fill="#fff"/>
    <path id="패스_1451" data-name="패스 1451" d="M87.649,78.536V91.808c0,4.538-.527,6.793-1.607,6.793-.5,0-.769-1.152-.769-3.432V89.528a46.531,46.531,0,0,1-11.161,2.448,2.414,2.414,0,0,1-1.7-.336,3.019,3.019,0,0,1-.744-2.448V81.68a2.751,2.751,0,0,0-1.728-.984c-.36-.1-.576-.217-.576-.385,0-.263.576-.551,1.032-.551a12.166,12.166,0,0,1,2.616.263,3.041,3.041,0,0,1,.84.241c2.184.024,3.433-.073,4.105-.5a1.905,1.905,0,0,1,.767-.288,6.261,6.261,0,0,1,1.8.024c.648.12.96.407.96.912,0,.6-.408.936-1.248.96-1.368.023-3.505.1-6.024.216a5.607,5.607,0,0,0-.025.648v7.2c0,.264.24.384.672.384A49.651,49.651,0,0,0,85.273,88.4V77.983a3.655,3.655,0,0,0-1.944-1.464c-.264-.12-.409-.263-.409-.431,0-.24.385-.361,1.2-.361a8.674,8.674,0,0,1,3,.649c.431.168.647.431.647.767,0,.289-.12,1.081-.12,1.393" fill="#8bddff"/>
    <path id="패스_1452" data-name="패스 1452" d="M103.9,80.888a3.906,3.906,0,0,0-.239.336,22.012,22.012,0,0,1-2.833,4.728l1.249,1.248a3.851,3.851,0,0,0,1.752,1.032,2.263,2.263,0,0,1,.864.6,6.283,6.283,0,0,1,.84,1.584,2.728,2.728,0,0,1,.168.744.7.7,0,0,1-.744.744,1.893,1.893,0,0,1-1.032-.673l-4.032-4.1a27.828,27.828,0,0,1-7.225,5.736.845.845,0,0,1-.336.071c-.216,0-.336-.119-.336-.359,0-.12.12-.265.336-.433a26.566,26.566,0,0,0,8.521-10.992c-1.489.024-2.88.1-3.672.192a2.709,2.709,0,0,0-1.105.36.89.89,0,0,1-.456.168,1.253,1.253,0,0,1-.5-.1,10.771,10.771,0,0,1-1.968-1.1c-.216-.144-.336-.288-.336-.456,0-.241.144-.336.456-.288.648.072,1.585.12,2.736.144,1.776,0,3.553-.049,4.776-.169a1.869,1.869,0,0,0,.529-.143,1.453,1.453,0,0,1,.551-.168,8.852,8.852,0,0,1,1.9.24c.36.071.528.216.528.432,0,.168-.12.36-.385.624m5.977-2.352V91.808c0,4.538-.552,6.793-1.632,6.793-.5,0-.767-1.152-.767-3.432V77.983a3.658,3.658,0,0,0-1.945-1.464c-.264-.12-.408-.263-.408-.431,0-.24.384-.361,1.2-.361a8.665,8.665,0,0,1,3,.649c.456.168.649.431.649.767,0,.289-.1,1.081-.1,1.393" fill="#8bddff"/>
    <path id="패스_1453" data-name="패스 1453" d="M126.864,86.648c-1.343.456-2.664.767-3.792,1.032-1.729.336-3.145.6-4.537.744a2.03,2.03,0,0,1-2.016-.84,2.838,2.838,0,0,1-.288-1.537V80.119a2.36,2.36,0,0,0-1.561-.984c-.383-.1-.551-.216-.551-.384,0-.312.551-.528,1.007-.528a15.1,15.1,0,0,1,2.425.216,2.435,2.435,0,0,1,.84.264,24.347,24.347,0,0,0,3.048-.072,4.167,4.167,0,0,0,1.346-.36,1.692,1.692,0,0,1,.743-.288,4.768,4.768,0,0,1,1.559.048c.649.12.96.408.96.912,0,.6-.407.912-1.248.936-2.063.048-4.608.073-6.072.144a6.809,6.809,0,0,0-.023.7v1.824a6.546,6.546,0,0,0,3.864-.719,7.822,7.822,0,0,1,1.512,0c.6.12.887.408.887.864,0,.575-.431.888-1.3.912q-2.412.072-4.967.216v2.063c0,.337.143.481.456.481,1.055.024,2.567-.025,3.719-.12,1.057-.1,2.425-.264,3.817-.48a.447.447,0,0,1,.552.287.539.539,0,0,1-.384.6m5.928,10.728c-2.928-.023-6.816,0-9.913.073a2.058,2.058,0,0,1-1.656-.5,1.964,1.964,0,0,1-.552-1.393V93.968a2.74,2.74,0,0,0-1.416-.815c-.288-.073-.432-.217-.432-.456,0-.265.217-.385.7-.385a18.493,18.493,0,0,1,2.713.192,4.417,4.417,0,0,0,1.392.193c1.295,0,3.792-.049,5.568-.168a.467.467,0,0,0,.216-.217,10.993,10.993,0,0,0,.072-1.68,52.009,52.009,0,0,0-5.28.144,5.609,5.609,0,0,0-1.7.312.853.853,0,0,1-.456.144,1.162,1.162,0,0,1-.529-.1,11.039,11.039,0,0,1-2.087-1.224.654.654,0,0,1-.289-.48c0-.216.193-.288.6-.216a19.411,19.411,0,0,0,2.568.216c1.969.048,4.8-.024,6.865-.192.5-.024.745-.24,1.152-.24a8.867,8.867,0,0,1,2.089.24c.288.048.407.168.407.408a.93.93,0,0,1-.407.6,1.106,1.106,0,0,0-.168.264,17.73,17.73,0,0,1-.6,1.9c.649.215.817.5.817.815,0,.408-.289.6-.84.6-2.113,0-5.473.047-8.282.191a3.919,3.919,0,0,0-.047.505v1.056a.431.431,0,0,0,.48.48c1.319.048,3.456.023,4.584-.072a5.362,5.362,0,0,0,1.848-.433,3.7,3.7,0,0,1,1.008-.239c1.825,0,2.737.336,2.737,1.056,0,.648-.408,1.007-1.153,1.007m-.479-11.736q-.326,2.592-1.513,2.592c-.5,0-.768-.72-.768-2.16v-3.12a9.978,9.978,0,0,0-1.032.12c-.528.1-.984.359-1.2.359a1.792,1.792,0,0,1-.552-.119,14.334,14.334,0,0,1-1.512-.817.535.535,0,0,1-.264-.431c0-.193.192-.265.575-.24a19.746,19.746,0,0,0,2.065.047c.552,0,1.176-.047,1.92-.12V77.959a3.749,3.749,0,0,0-1.944-1.44c-.264-.12-.408-.264-.408-.432,0-.24.384-.36,1.2-.36a8.684,8.684,0,0,1,3,.648c.456.168.672.432.672.768,0,.288-.12,1.08-.12,1.393V83.36c0,.792-.048,1.559-.119,2.28" fill="#8bddff"/>
    <path id="패스_1454" data-name="패스 1454" d="M149.352,78.8c.192-.145.288-.288.288-.408,0-.409-.6-.552-.6-.792,0-.168.12-.289.576-.289a3.514,3.514,0,0,1,1.392.313c.288.144.408.312.408.456a1.356,1.356,0,0,1-.408.743,4.645,4.645,0,0,1,4.225,4.489c0,2.617-2.256,4.56-5.233,4.56s-5.257-1.92-5.257-4.56c0-2.424,1.945-4.272,4.609-4.512m.672,7.392A2.872,2.872,0,1,0,147,83.312a2.913,2.913,0,0,0,3.024,2.88m11.737,4.872a.62.62,0,0,0-.24.385c-.24,1.632-.48,2.9-.744,4.056q.936.324.936.936c0,.409-.456.624-1.3.624-2.832,0-5.28.048-7.609.121-.216.887-.6,1.32-1.2,1.32-.409,0-.673-.5-.769-1.513l-.576-5.448a2.678,2.678,0,0,0-1.392-.672c-.312-.072-.456-.216-.456-.385,0-.216.528-.479.912-.479a16.727,16.727,0,0,1,2.184.095,5.179,5.179,0,0,1,1.225.241c1.992,0,3.912-.073,5.928-.193a9.678,9.678,0,0,1,1.008-.191,8.01,8.01,0,0,1,1.968.168c.264.1.408.24.408.456a.7.7,0,0,1-.288.479m-8.929.673v.455l.1,3.553c2.353.025,4.129-.024,5.568-.143a.441.441,0,0,0,.361-.241l.072-3.793c-1.681,0-3.624.049-6.1.169m8.761-5.113q-.36,2.736-1.512,2.736c-.5,0-.768-.719-.768-2.16V77.983a3.644,3.644,0,0,0-1.945-1.463c-.263-.121-.408-.264-.408-.432,0-.24.385-.36,1.2-.36a8.661,8.661,0,0,1,3,.648c.456.168.648.432.648.768,0,.288-.1,1.08-.1,1.392v5.712a21.992,21.992,0,0,1-.12,2.376" fill="#8bddff"/>
    <path id="패스_1455" data-name="패스 1455" d="M186.912,87.416a1.017,1.017,0,0,1-.935.312q-.542-.036-2.449-.072c-3.841-.071-8.064.025-11.737.288a7.588,7.588,0,0,0-2.4.456,1.436,1.436,0,0,1-.577.168,2.987,2.987,0,0,1-.456-.072,6.691,6.691,0,0,1-2.591-1.416c-.241-.191-.361-.359-.361-.527,0-.217.193-.336.6-.241a20.309,20.309,0,0,0,3.36.264c2.664.024,6.744-.072,11.3-.288a6.962,6.962,0,0,0,2.208-.312,2.356,2.356,0,0,1,1.1-.36,9.734,9.734,0,0,1,2.281.288c.576.12.864.432.864.888a.936.936,0,0,1-.217.624M183.1,78.752c-.72-.048-1.608-.072-2.617-.048-2.975.023-5.879.071-7.584.239a3.887,3.887,0,0,0-1.3.336,1.2,1.2,0,0,1-.5.169,1.191,1.191,0,0,1-.456-.12,16.065,16.065,0,0,1-2.136-1.2c-.216-.193-.336-.336-.336-.5,0-.217.191-.313.552-.265a18.706,18.706,0,0,0,2.856.216c2.616,0,5.28-.048,6.961-.144a5.066,5.066,0,0,0,1.655-.335,3.447,3.447,0,0,1,1.273-.361,6.713,6.713,0,0,1,1.776.24c.6.121.888.432.888.913,0,.624-.336.887-1.032.864m-.264,5.976c-.816-.047-1.729-.072-2.784-.047-2.544.047-4.969.119-6.913.287a3.009,3.009,0,0,0-1.272.337,1.181,1.181,0,0,1-1.032.047,14.4,14.4,0,0,1-1.992-1.176c-.24-.144-.361-.312-.361-.48,0-.24.193-.312.577-.265a16.515,16.515,0,0,0,2.713.241c2.135,0,4.271-.024,6.263-.144a16.03,16.03,0,0,0,.5-2.808c-.049-.241-.408-.577-1.129-.936-.216-.12-.336-.24-.336-.408,0-.216.313-.336.96-.336a9.362,9.362,0,0,1,2.545.6c.312.1.456.264.456.529a1.572,1.572,0,0,1-.144.624,4.73,4.73,0,0,0-.288.6c-.216.481-.648,1.3-1.033,2.017a3.274,3.274,0,0,0,.912-.24,2.621,2.621,0,0,1,1.177-.312,7.2,7.2,0,0,1,1.321.192c.551.12.839.408.839.864,0,.528-.336.84-.984.816m-.192,12.866c-4.344,0-7.777.023-9.721.071-1.584.024-2.256-.624-2.256-1.872V94.161a1.718,1.718,0,0,0-.769-.552c-.263-.12-.551-.217-.839-.336-.192-.1-.288-.217-.288-.36,0-.288.215-.408.7-.408a23.968,23.968,0,0,1,2.784.192,2.847,2.847,0,0,1,.36.12,4.1,4.1,0,0,0,1.008.1c1.9.023,3.985-.024,5.689-.145a.271.271,0,0,0,.168-.191,15.226,15.226,0,0,0,.072-1.7c-2.112,0-4.057.048-5.353.143a5.363,5.363,0,0,0-1.68.336,1.348,1.348,0,0,1-.5.145,1.205,1.205,0,0,1-.48-.1,10.119,10.119,0,0,1-2.112-1.248.612.612,0,0,1-.264-.431c0-.216.192-.289.576-.216a18.615,18.615,0,0,0,2.568.191c2.425.049,4.921-.023,6.961-.191.479-.073.72-.288,1.128-.288a6.811,6.811,0,0,1,2.04.263c.288.073.408.216.408.433,0,.119-.12.311-.384.575a.914.914,0,0,0-.144.24c-.144.529-.384,1.177-.648,1.9.7.192,1.032.456,1.032.792,0,.431-.288.648-.84.648-2.953-.024-6.048.048-8.473.168-.023.216-.048.384-.048.5v1.056c0,.312.145.456.433.456,1.752.072,3.408.048,4.511-.024a5.136,5.136,0,0,0,1.825-.408,2.687,2.687,0,0,1,1.032-.288c1.776,0,2.641.384,2.641,1.08,0,.648-.361.985-1.129.985m-8.809-14.642a1.6,1.6,0,0,1-.744.312.525.525,0,0,1-.527-.6,7.8,7.8,0,0,0-.168-1.368c-.073-.288-.145-.672-.289-1.176a3.021,3.021,0,0,1-.168-.5c.024-.192.12-.288.384-.288a1.749,1.749,0,0,1,.624.359,13.958,13.958,0,0,1,1.056.985,1.838,1.838,0,0,1,.672,1.055c.049.288-.239.745-.84,1.225" fill="#8bddff"/>
    <path id="패스_1456" data-name="패스 1456" d="M204.792,90.393c-.216,1.512-.649,2.28-1.369,2.28q-.792,0-.792-2.3v-2.52a37.009,37.009,0,0,1-4.248,1.175c-2.088.433-4.1.769-6.144.985a2.97,2.97,0,0,1-1.057-.048,1.423,1.423,0,0,1-.864-.792,2.27,2.27,0,0,1-.312-1.393V84.513a2.764,2.764,0,0,0-1.392-.793c-.264-.1-.408-.24-.408-.407,0-.241.456-.409.768-.409a20.448,20.448,0,0,1,2.592.192c.217.024.576.072,1.128.168,1.081,0,2.353-.1,3.505-.216a.33.33,0,0,0,.264-.264c.047-.648.072-2.184.072-2.856-.888,0-2.088.048-3,.12a5.751,5.751,0,0,0-1.656.311,1.6,1.6,0,0,1-.481.169,1.307,1.307,0,0,1-.527-.12,9.744,9.744,0,0,1-2.16-1.224.62.62,0,0,1-.265-.409c0-.215.192-.311.6-.239a22.01,22.01,0,0,0,2.543.168c1.2.024,2.88-.024,4.416-.144.5-.024.937-.288,1.3-.288a6.539,6.539,0,0,1,2.065.264c.264.1.408.239.408.432a.994.994,0,0,1-.384.648.577.577,0,0,0-.168.287c-.264.912-.576,2.041-.84,3,.648.168.888.409.888.744,0,.432-.312.672-.864.7-2.208.1-4.2.169-5.761.288-.023.288-.048.408-.048.553v2.208c-.023.36.1.479.481.5a40.762,40.762,0,0,0,5.135-.335,36.524,36.524,0,0,0,4.417-.745V77.96a3.771,3.771,0,0,0-1.919-1.44c-.265-.121-.409-.264-.409-.432,0-.24.384-.36,1.2-.36a8.763,8.763,0,0,1,2.975.648c.433.168.673.432.673.768,0,.36-.1.5-.12,1.392v5.256c.168-.023.336-.023.5-.048a.822.822,0,0,0,.5-.192,2.174,2.174,0,0,1,.864-.456,3.718,3.718,0,0,1,1.992.1.771.771,0,0,1,.6.792c0,.648-.36.96-1.08.984-.384,0-1.489.024-3.384.072V87.3a22,22,0,0,1-.24,3.1m.984,6.816c-3.937-.048-6.721-.048-8.81.048a2.6,2.6,0,0,1-2.255-.72,2.844,2.844,0,0,1-.361-1.464l-.023-1.944c-.168-.264-.84-.528-1.992-.768-.288-.1-.433-.24-.433-.456s.7-.5,1.129-.5a19.562,19.562,0,0,1,3.168.193c.5.1.72.408.648.984a6.1,6.1,0,0,0-.072.864v1.848a.579.579,0,0,0,.624.624c1.248.025,2.232.025,3.336-.048a6.846,6.846,0,0,0,2.208-.431,3.393,3.393,0,0,1,1.08-.288,9.021,9.021,0,0,1,2.065.119.888.888,0,0,1,.864.936,1.071,1.071,0,0,1-1.176,1.008" fill="#8bddff"/>
    <path id="패스_1457" data-name="패스 1457" d="M231.551,94.065a1.083,1.083,0,0,1-.935.288q-.54-.037-2.448-.073c-3.841-.072-8.065.024-11.738.289a6.834,6.834,0,0,0-2.4.479,1.432,1.432,0,0,1-.576.168c-.024,0-.168-.023-.456-.071a6.014,6.014,0,0,1-2.592-1.489c-.24-.24-.36-.408-.36-.576,0-.216.192-.312.6-.24a20.322,20.322,0,0,0,3.361.264c2.664.024,6.744-.072,11.3-.287a6.627,6.627,0,0,0,2.208-.288,2.171,2.171,0,0,1,1.1-.385,8.677,8.677,0,0,1,2.28.312c.576.12.864.432.864.888a1.073,1.073,0,0,1-.217.721m-4.1-4.849c-2.544,0-6.12.048-10.368.168a2.971,2.971,0,0,1-2.112-.576,2.615,2.615,0,0,1-.552-1.92V80.5c-.193-.384-.817-.72-1.849-.984-.36-.1-.552-.216-.552-.408,0-.264.552-.528,1.033-.528a16.1,16.1,0,0,1,2.664.192,4.183,4.183,0,0,1,.84.264,55.283,55.283,0,0,0,6.312-.168,4.549,4.549,0,0,0,1.488-.384,3.264,3.264,0,0,1,1.128-.384,10.914,10.914,0,0,1,1.824.072c.72.12,1.081.408,1.081.912,0,.648-.432.96-1.321.96-3.192.048-6.888.144-10.152.264a6.478,6.478,0,0,0-.025.7l-.023,2.641c1.872,0,4.008-.048,5.688-.168a4.394,4.394,0,0,0,1.512-.385,2.3,2.3,0,0,1,1.032-.336,12.221,12.221,0,0,1,1.657.072c.767.144,1.128.456,1.128.912,0,.624-.433.937-1.321.937-3.648.048-7.2.1-9.7.191v2.616a.6.6,0,0,0,.624.672c1.56.025,3.815,0,5.4-.071a7.179,7.179,0,0,0,1.705-.408,6.643,6.643,0,0,1,1.416-.36,5.255,5.255,0,0,1,1.8.072c.552.12.84.408.84.935,0,.577-.384.889-1.2.889" fill="#8bddff"/>
    <path id="패스_1458" data-name="패스 1458" d="M48.288.091h2.2a2.093,2.093,0,0,1,.164,4.183c-.052,0-.1,0-.154,0H48.952V6.815h-.66Zm2.18,3.588a1.5,1.5,0,1,0-.007-3H48.948v3Z" fill="#fff"/>
    <path id="패스_1459" data-name="패스 1459" d="M58.683.092h.66V6.225H62.53v.591H58.683Z" fill="#fff"/>
    <path id="패스_1460" data-name="패스 1460" d="M73.6.092V4.54a2.57,2.57,0,0,1-5.127,0V.092h.66v4.4a1.9,1.9,0,1,0,3.8,0V.092Z" fill="#fff"/>
    <path id="패스_1461" data-name="패스 1461" d="M82.026.588c-.926,0-1.56.516-1.56,1.221s.693,1.024,1.33,1.2l.7.2c.841.233,1.839.676,1.839,1.812,0,1.083-.874,1.911-2.351,1.911-1.388,0-2.261-.732-2.338-1.812h.676c.066.789.772,1.211,1.662,1.211.991,0,1.707-.528,1.707-1.319,0-.677-.574-.979-1.389-1.216l-.8-.232c-1.057-.309-1.674-.851-1.674-1.725a2.253,2.253,0,0,1,4.418-.055H83.6a1.409,1.409,0,0,0-1.577-1.2" fill="#fff"/>
    <path id="패스_1462" data-name="패스 1462" d="M90.375,6.815V.092h2.107c1.93,0,3.073,1.258,3.073,3.345,0,2.114-1.156,3.378-3.185,3.378Zm1.959-.591c1.707,0,2.577-1.05,2.574-2.787,0-1.717-.851-2.755-2.465-2.755H91.035V6.224Z" fill="#fff"/>
    <path id="패스_1463" data-name="패스 1463" d="M101.6.092h3.94V.683h-3.284V3.155h3.069v.588h-3.069V6.225H105.6v.591h-4Z" fill="#fff"/>
    <path id="패스_1464" data-name="패스 1464" d="M116.945,6.815h-.633l-3.906-5.541h-.057V6.815h-.659V.092h.64l3.914,5.552h.056V.092h.646Z" fill="#fff"/>
    <path id="패스_1465" data-name="패스 1465" d="M130.34,6.815V.092h2.108c1.93,0,3.072,1.258,3.072,3.345,0,2.114-1.155,3.378-3.184,3.378Zm1.961-.591c1.706,0,2.577-1.05,2.572-2.787,0-1.717-.85-2.755-2.464-2.755H131V6.224Z" fill="#fff"/>
    <path id="패스_1466" data-name="패스 1466" d="M141.567.092h3.94V.683h-3.282V3.155h3.069v.588h-3.069V6.225h3.338v.591h-4Z" fill="#fff"/>
    <path id="패스_1467" data-name="패스 1467" d="M156.909,6.815h-.634l-3.9-5.541h-.057V6.815h-.66V.092h.641l3.913,5.552h.056V.092h.646Z" fill="#fff"/>
    <path id="패스_1468" data-name="패스 1468" d="M162.856.092h4.917V.683h-2.124V6.815h-.664V.683h-2.129Z" fill="#fff"/>
    <path id="패스_1469" data-name="패스 1469" d="M172.3,6.815,174.751.092h.711l2.446,6.723h-.7l-.709-2h-2.793l-.713,2Zm3.989-2.587L175.128.945h-.042l-1.169,3.283Z" fill="#fff"/>
    <path id="패스_1470" data-name="패스 1470" d="M183.628.092h.66V6.225h3.187v.591h-3.847Z" fill="#fff"/>
    <path id="패스_1471" data-name="패스 1471" d="M203.1.621c-1.26,0-2.278,1-2.278,2.833s1.018,2.833,2.278,2.833A1.986,1.986,0,0,0,205.1,4.711h.667a2.625,2.625,0,0,1-2.673,2.2c-1.706,0-2.921-1.346-2.921-3.454S201.39,0,203.1,0a2.623,2.623,0,0,1,2.673,2.2H205.1A1.985,1.985,0,0,0,203.1.621" fill="#fff"/>
    <path id="패스_1472" data-name="패스 1472" d="M211.777.092h.66V6.225h3.187v.591h-3.847Z" fill="#fff"/>
    <rect id="사각형_1000" data-name="사각형 1000" width="0.66" height="6.723" transform="translate(221.572 0.092)" fill="#fff"/>
    <path id="패스_1473" data-name="패스 1473" d="M233.832,6.815H233.2l-3.9-5.541h-.057V6.815h-.66V.092h.64l3.914,5.552h.056V.092h.646Z" fill="#fff"/>
    <rect id="사각형_1001" data-name="사각형 1001" width="0.661" height="6.723" transform="translate(240.178 0.092)" fill="#fff"/>
    <path id="패스_1474" data-name="패스 1474" d="M249.81.621c-1.26,0-2.277,1-2.277,2.833s1.017,2.833,2.277,2.833a1.985,1.985,0,0,0,2.005-1.576h.667a2.626,2.626,0,0,1-2.673,2.2c-1.706,0-2.921-1.346-2.921-3.454S248.1,0,249.809,0a2.623,2.623,0,0,1,2.673,2.2h-.667A1.984,1.984,0,0,0,249.81.621" fill="#fff"/>
  </g>
</svg>
