<svg id="그룹_1616" data-name="그룹 1616" xmlns="http://www.w3.org/2000/svg" xmlns:xlink="http://www.w3.org/1999/xlink" width="355.457" height="123.857" viewBox="0 0 355.457 123.857">
  <defs>
    <clipPath id="clip-path">
      <rect id="사각형_996" data-name="사각형 996" width="355.457" height="123.857" transform="translate(0 0)" fill="none"/>
    </clipPath>
  </defs>
  <g id="그룹_1615" data-name="그룹 1615" clip-path="url(#clip-path)">
    <path id="패스_1341" data-name="패스 1341" d="M81.2,37.608c-.888-.072-1.968-.12-2.952-.12-3.672,0-8.881.144-11.665.336a6.1,6.1,0,0,0-2.233.432,1.158,1.158,0,0,1-.5.121,1.64,1.64,0,0,1-.456-.073,9.757,9.757,0,0,1-2.3-1.1c-.217-.144-.336-.264-.336-.5,0-.168.168-.216.48-.168a24.65,24.65,0,0,0,3.528.264c3.264,0,7.944-.12,11.3-.264a7.131,7.131,0,0,0,2.425-.36,2.049,2.049,0,0,1,.864-.264,8.114,8.114,0,0,1,2.281.288c.455.12.671.36.671.7,0,.576-.432.768-1.1.72M78.46,28.487c-.648-.024-1.584-.071-2.808-.071-2.305,0-5.161.071-7.417.263a4.28,4.28,0,0,0-1.464.313,1,1,0,0,1-.456.119,1.632,1.632,0,0,1-.5-.1,7.891,7.891,0,0,1-1.969-.96c-.168-.12-.24-.216-.24-.336,0-.192.12-.288.385-.24a22.018,22.018,0,0,0,2.952.192c2.52,0,5.16-.024,7.032-.144a5.365,5.365,0,0,0,1.849-.336A2.081,2.081,0,0,1,76.8,26.9c1.3,0,2.545.24,2.545.889,0,.527-.337.719-.888.695M76.2,30.551c-.048.1-.12.288-.216.5a25.526,25.526,0,0,1-1.225,2.569,3.681,3.681,0,0,0,1.008-.288,2.092,2.092,0,0,1,.985-.264,6.071,6.071,0,0,1,1.488.191c.456.12.72.337.72.673,0,.432-.336.624-.816.6-.864-.048-1.824-.048-2.833-.048-2.136.024-4.992.143-7.032.288a3.729,3.729,0,0,0-1.441.336,1.067,1.067,0,0,1-.456.143,1.781,1.781,0,0,1-.527-.119,7.056,7.056,0,0,1-1.776-.936c-.168-.12-.241-.216-.241-.336,0-.168.145-.24.433-.193a20.3,20.3,0,0,0,2.832.193c2.16,0,4.656-.025,6.576-.145a17.361,17.361,0,0,0,.649-3.023,2.458,2.458,0,0,0-1.3-1.08c-.24-.1-.337-.168-.337-.361s.288-.335.816-.288a11.839,11.839,0,0,1,2.4.552c.311.1.431.265.431.481a1.1,1.1,0,0,1-.143.551m1.679,16.97c-3.335,0-7.152.048-10.008.1a2.367,2.367,0,0,1-1.489-.361,1.661,1.661,0,0,1-.5-1.391V44.113a2.873,2.873,0,0,0-1.511-.744c-.24-.073-.361-.168-.361-.288,0-.216.193-.336.6-.336a15.13,15.13,0,0,1,2.424.168,4.264,4.264,0,0,1,.48.12,2.046,2.046,0,0,0,.552.071c2.376,0,5.4-.048,7.2-.168a.345.345,0,0,0,.313-.239,19.64,19.64,0,0,0,.072-2.233c-2.064.024-4.681.1-6.217.193a5.58,5.58,0,0,0-1.7.263,1.475,1.475,0,0,1-.553.192,1.429,1.429,0,0,1-.5-.1,8.778,8.778,0,0,1-1.967-.96.414.414,0,0,1-.216-.336c0-.168.143-.263.408-.216a21.247,21.247,0,0,0,2.712.241c2.28.048,5.16-.025,7.513-.193a3.558,3.558,0,0,0,.6-.144,1.646,1.646,0,0,1,.529-.119,5.959,5.959,0,0,1,1.536.215c.24.072.36.168.36.312,0,.192-.12.312-.312.456-.168.12-.264.216-.288.36a17.059,17.059,0,0,1-.577,2.113c.577.12.912.336.912.624,0,.311-.215.456-.647.456-3.385,0-6.985.095-9.5.216a2.322,2.322,0,0,0-.024.431v1.7c0,.313.168.481.528.505,1.44.024,3.624.024,5.16-.072a5.8,5.8,0,0,0,2.065-.36,2.242,2.242,0,0,1,.887-.264,10.374,10.374,0,0,1,2.017.168.61.61,0,0,1,.528.7c0,.456-.336.672-1.009.672m-8.688-14.5a.864.864,0,0,1-.6.312c-.24,0-.408-.144-.432-.457a8.509,8.509,0,0,0-.768-2.927,1.334,1.334,0,0,1-.168-.456c0-.168.072-.241.312-.241a.852.852,0,0,1,.456.216c.672.5,1.848,1.729,1.848,2.473,0,.336-.216.647-.648,1.08" fill="#333"/>
    <path id="패스_1342" data-name="패스 1342" d="M96.436,40.776a38.726,38.726,0,0,1-8.425,1.753,2.824,2.824,0,0,1-1.128-.024c-.888-.288-1.176-1.1-1.176-2.233l-.024-4.128a3.153,3.153,0,0,0-1.536-.72q-.362-.108-.361-.287c0-.217.385-.385.7-.385a17.464,17.464,0,0,1,2.232.168,4.976,4.976,0,0,0,1.1.192c1.3-.048,3.192-.12,4.3-.24a.4.4,0,0,0,.336-.24c.1-1.536.12-2.88.1-4.344-1.151,0-2.736.048-3.624.12a6.045,6.045,0,0,0-1.632.312,1.729,1.729,0,0,1-.576.192,1.614,1.614,0,0,1-.528-.1,8.449,8.449,0,0,1-1.752-.96c-.168-.12-.241-.215-.241-.336,0-.168.145-.24.457-.191a23.64,23.64,0,0,0,2.52.168c1.68.023,3.576-.048,4.9-.168a2.708,2.708,0,0,0,.6-.12,1.425,1.425,0,0,1,.553-.12,6.5,6.5,0,0,1,1.487.216c.217.072.313.168.313.288a.684.684,0,0,1-.313.48.855.855,0,0,0-.216.36c-.215,1.512-.456,2.688-.767,4.2.647.12.983.36.983.7,0,.288-.216.456-.647.48-2.16.1-4.609.216-6.553.312a3.216,3.216,0,0,0-.024.48v3.84c0,.361.192.529.552.529a48.835,48.835,0,0,0,8.137-.817,2.8,2.8,0,0,1,.408-.048.259.259,0,0,1,.264.288c0,.168-.168.289-.408.384m5.112-12.24V41.449c0,4.752-.408,7.1-1.2,7.1-.384,0-.552-.792-.552-2.377V35.544c-.576.049-1.056.1-1.272.144a2.676,2.676,0,0,0-.768.216,1.1,1.1,0,0,1-.433.144,1.33,1.33,0,0,1-.407-.072,6.105,6.105,0,0,1-1.633-.816c-.168-.12-.239-.192-.239-.36s.168-.192.432-.168a13.416,13.416,0,0,0,1.992.049c.792-.025,1.584-.049,2.328-.145v-6.6a4.463,4.463,0,0,0-2.28-1.368c-.24-.072-.361-.168-.361-.288,0-.264.313-.384.937-.384a9.51,9.51,0,0,1,3,.529.685.685,0,0,1,.553.672c0,.311-.1,1.152-.1,1.44" fill="#333"/>
    <path id="패스_1343" data-name="패스 1343" d="M125.835,44.065c-.888-.072-1.872-.12-2.856-.12-4.129,0-9.026.144-11.81.336a5.764,5.764,0,0,0-2.183.456,1.014,1.014,0,0,1-.5.144,1.41,1.41,0,0,1-.481-.1,9.223,9.223,0,0,1-2.28-1.152c-.216-.144-.336-.264-.336-.48,0-.168.168-.216.48-.168a21.6,21.6,0,0,0,3.529.264c3.263,0,7.9-.12,11.328-.264a7.126,7.126,0,0,0,2.425-.36,2.049,2.049,0,0,1,.864-.264,7.974,7.974,0,0,1,2.256.287c.456.121.672.361.672.7,0,.576-.432.768-1.1.72m-7.825-13.9a17.962,17.962,0,0,1-1.3,2.016l2.641,1.512a5.565,5.565,0,0,0,1.92.7,3.229,3.229,0,0,1,1.128.311,9.4,9.4,0,0,1,1.824,1.393c.624.6.864.983.864,1.319,0,.36-.168.576-.528.576a1.587,1.587,0,0,1-.84-.311L116.066,33a23.563,23.563,0,0,1-8.328,6.1.94.94,0,0,1-.457.12c-.12,0-.215-.1-.215-.265,0-.143.119-.263.311-.384,3.072-1.872,6.937-5.3,8.4-8.5a3.058,3.058,0,0,0-1.512-1.44c-.288-.145-.408-.24-.408-.384,0-.192.24-.312.672-.312a1.83,1.83,0,0,1,.5.047,11.305,11.305,0,0,1,2.737,1.009c.264.192.385.336.385.6a1.08,1.08,0,0,1-.145.576" fill="#333"/>
    <path id="패스_1344" data-name="패스 1344" d="M130.154,31.248c-.169-.361-.7-.624-1.609-.84-.264-.1-.383-.193-.383-.336,0-.217.5-.456.863-.456a14.641,14.641,0,0,1,2.137.143,2.438,2.438,0,0,1,.792.241,16.82,16.82,0,0,0,2.135-.073,2.983,2.983,0,0,0,1.128-.288,2.581,2.581,0,0,1,.841-.336,5.757,5.757,0,0,1,1.44.025c.48.071.72.336.72.719,0,.481-.384.745-1.056.768-1.512.049-3.577.12-5.185.192a4,4,0,0,0-.048.744v5.665c0,.36.145.5.481.5a49.731,49.731,0,0,0,6.24-.624,2.673,2.673,0,0,1,.408-.048c.168,0,.24.12.24.312s-.144.264-.383.36a33.007,33.007,0,0,1-6.457,1.512,2.944,2.944,0,0,1-1.033,0,1.5,1.5,0,0,1-.887-.7,2.752,2.752,0,0,1-.336-1.464Zm17.089,15.937c-3.529,0-7.633.024-9.577.048-1.993.023-2.544-.528-2.544-2.088l-.024-2.473c-.24-.36-.841-.6-2.089-.839-.239-.048-.359-.145-.359-.336,0-.216.479-.456.888-.456a20.049,20.049,0,0,1,2.9.191c.36.072.5.336.456.744-.024.265-.048.6-.048,1.009V45.6a.657.657,0,0,0,.7.744c1.392.024,3.168.024,4.777-.049a6.263,6.263,0,0,0,2.351-.407,1.827,1.827,0,0,1,.865-.264,10.851,10.851,0,0,1,2.016.12c.48.072.672.312.672.7,0,.5-.312.744-.984.744m-4.321-18.218c-.024.264-.024.5-.024.817v7.344a23.647,23.647,0,0,1-.144,2.928c-.168,1.368-.528,2.04-.984,2.04-.359,0-.552-.624-.552-1.9V34.224a24.19,24.19,0,0,0-2.448.239,3.377,3.377,0,0,0-.864.265.656.656,0,0,1-.312.1,1.064,1.064,0,0,1-.336-.073,9.973,9.973,0,0,1-1.776-.864c-.168-.1-.24-.191-.24-.311,0-.168.144-.216.408-.193a14.328,14.328,0,0,0,2.112.073c.96-.025,2.352-.073,3.456-.168v-4.2a3.656,3.656,0,0,0-1.847-1.175c-.241-.073-.361-.193-.361-.313,0-.216.288-.336.865-.336a9.434,9.434,0,0,1,1.343.193c.6.119,1.032.215,1.248.287a.711.711,0,0,1,.5.7c0,.072-.023.24-.048.528m4.057-1.32a4.565,4.565,0,0,0-.072.84v9.457a23.95,23.95,0,0,1-.144,2.929c-.168,1.343-.505,2.04-.984,2.04-.361,0-.552-.649-.552-1.92V27.863a4.208,4.208,0,0,0-2.112-1.3c-.24-.072-.361-.191-.361-.312q0-.36.937-.36a8.838,8.838,0,0,1,2.784.576.7.7,0,0,1,.552.672,1.969,1.969,0,0,1-.048.5" fill="#333"/>
    <path id="패스_1345" data-name="패스 1345" d="M162.77,33.12a1.047,1.047,0,0,0-.312.36,19.092,19.092,0,0,1-3.121,4.176l1.321,1.08a3.677,3.677,0,0,0,1.344.721,1.713,1.713,0,0,1,.84.384,5.519,5.519,0,0,1,1.344,1.8,1.409,1.409,0,0,1,.12.529c0,.384-.12.6-.456.6a1.3,1.3,0,0,1-.816-.407L158.57,38.4a30.447,30.447,0,0,1-7.177,4.992.649.649,0,0,1-.336.1c-.145,0-.216-.1-.216-.265,0-.095.1-.215.264-.335a30.055,30.055,0,0,0,9.385-9.7c-1.344.024-3.073.1-4.416.216a3.468,3.468,0,0,0-1.513.36.7.7,0,0,1-.408.144.829.829,0,0,1-.312-.072,9.526,9.526,0,0,1-1.92-.936c-.216-.12-.312-.24-.312-.408s.12-.216.36-.192a20.742,20.742,0,0,0,2.592.168c1.824.024,4.009-.048,5.593-.192a2.06,2.06,0,0,0,.624-.12,1.758,1.758,0,0,1,.6-.168,4.961,4.961,0,0,1,1.345.191c.264.073.408.193.408.337,0,.287-.12.408-.36.6m-2.952-2.832q-1.045.035-3.025.144a1.649,1.649,0,0,1-.935-.264,8.206,8.206,0,0,1-1.345-1.057.5.5,0,0,1-.191-.384c0-.143.1-.215.311-.215a2.378,2.378,0,0,1,.456.072,27.161,27.161,0,0,0,4.681.408c.576,0,.864.191.864.6,0,.456-.264.7-.816.7m8.448-1.752V41.449c0,4.752-.384,7.1-1.2,7.1q-.506,0-.505-2.377V27.935a4.443,4.443,0,0,0-2.3-1.368c-.216-.072-.336-.168-.336-.288,0-.264.288-.384.912-.384a9.51,9.51,0,0,1,3,.529.683.683,0,0,1,.552.672c0,.311-.12,1.152-.12,1.44" fill="#333"/>
    <path id="패스_1346" data-name="패스 1346" d="M179.593,36.408l-.048,4.488a76.507,76.507,0,0,0,8.257-1.1V27.935a4.457,4.457,0,0,0-2.28-1.368c-.216-.072-.336-.168-.336-.288,0-.264.288-.384.912-.384a9.769,9.769,0,0,1,3,.528.662.662,0,0,1,.528.672c0,.312-.12,1.008-.12,1.441V35.9a2.317,2.317,0,0,0,1.3-.408,1.22,1.22,0,0,1,.528-.264,5.651,5.651,0,0,1,2.113,0,.649.649,0,0,1,.576.672c0,.528-.337.768-1.009.768-.84.024-2.015.048-3.5.1v4.7a35.525,35.525,0,0,1-.216,4.776c-.192,1.561-.5,2.305-.96,2.305-.36,0-.528-.792-.528-2.377V40.608a74.732,74.732,0,0,1-10.561,1.824,3.149,3.149,0,0,0-1.2.36,1.035,1.035,0,0,1-.5.121,1.323,1.323,0,0,1-.48-.1,10.613,10.613,0,0,1-2.376-1.225c-.217-.143-.36-.311-.336-.48,0-.168.192-.24.527-.192a21.236,21.236,0,0,0,3.169.168c.552,0,1.224-.024,1.92-.072l-.072-4.824a2.652,2.652,0,0,0-1.608-.937c-.24-.071-.36-.168-.36-.336,0-.191.288-.336.768-.336a11.422,11.422,0,0,1,2.448.265c.433.1.6.359.528.72a4.847,4.847,0,0,0-.072.84m5.257-6.265a26.7,26.7,0,0,1-1.633,7.321q-.214.5-.5.5c-.191,0-.288-.12-.288-.336,0-.1.025-.192.049-.385a50.266,50.266,0,0,0,.384-7.127c-1.513.023-3.408.095-4.656.191a5.682,5.682,0,0,0-2.017.48,1.186,1.186,0,0,1-.456.144,1.517,1.517,0,0,1-.5-.12,9.2,9.2,0,0,1-1.872-.96c-.216-.144-.313-.264-.313-.432,0-.192.168-.263.481-.216a19.021,19.021,0,0,0,3.048.192c1.536,0,3.841-.071,5.688-.239a1.761,1.761,0,0,0,.624-.145,1.735,1.735,0,0,1,.649-.168,4.737,4.737,0,0,1,1.56.288.35.35,0,0,1,.239.336c0,.24-.167.408-.479.672" fill="#333"/>
    <path id="패스_1347" data-name="패스 1347" d="M214.61,33.12a1.04,1.04,0,0,0-.313.36,19.086,19.086,0,0,1-3.12,4.176l1.321,1.08a3.665,3.665,0,0,0,1.343.721,1.708,1.708,0,0,1,.84.384,5.508,5.508,0,0,1,1.345,1.8,1.429,1.429,0,0,1,.12.529c0,.384-.12.6-.456.6a1.293,1.293,0,0,1-.816-.407L210.409,38.4a30.426,30.426,0,0,1-7.177,4.992.644.644,0,0,1-.336.1c-.144,0-.216-.1-.216-.265,0-.095.1-.215.265-.335a30.065,30.065,0,0,0,9.385-9.7c-1.345.024-3.073.1-4.417.216a3.459,3.459,0,0,0-1.512.36.709.709,0,0,1-.408.144.833.833,0,0,1-.313-.072,9.553,9.553,0,0,1-1.92-.936c-.216-.12-.311-.24-.311-.408s.12-.216.359-.192a20.772,20.772,0,0,0,2.593.168c1.824.024,4.008-.048,5.593-.192a2.066,2.066,0,0,0,.624-.12,1.747,1.747,0,0,1,.6-.168,4.947,4.947,0,0,1,1.344.191c.265.073.408.193.408.337,0,.287-.12.408-.359.6m-2.953-2.832q-1.044.035-3.024.144a1.652,1.652,0,0,1-.936-.264,8.2,8.2,0,0,1-1.344-1.057.5.5,0,0,1-.192-.384c0-.143.1-.215.312-.215a2.389,2.389,0,0,1,.456.072,27.158,27.158,0,0,0,4.68.408c.576,0,.864.191.864.6,0,.456-.263.7-.816.7m8.449-1.752V41.449c0,4.752-.384,7.1-1.2,7.1q-.5,0-.5-2.377V27.935a4.446,4.446,0,0,0-2.3-1.368c-.216-.072-.336-.168-.336-.288,0-.264.288-.384.912-.384a9.521,9.521,0,0,1,3,.529.684.684,0,0,1,.552.672c0,.311-.12,1.152-.12,1.44" fill="#333"/>
    <path id="패스_1348" data-name="패스 1348" d="M244.635,44.4c-.889-.072-1.969-.12-2.954-.12-3.671,0-8.879.144-11.664.336a6.087,6.087,0,0,0-2.232.432,1.146,1.146,0,0,1-.5.12,1.6,1.6,0,0,1-.456-.072,9.7,9.7,0,0,1-2.3-1.1c-.215-.144-.336-.263-.336-.5,0-.168.168-.216.481-.168a24.639,24.639,0,0,0,3.528.264c.912,0,1.944,0,3-.024l-.072-2.329a2.6,2.6,0,0,0-1.656-.935c-.241-.072-.384-.168-.384-.336,0-.216.288-.336.816-.336a11.69,11.69,0,0,1,2.544.359c.336.073.5.265.456.553-.048.36-.072.648-.1.888l-.1,2.112c1.776-.024,3.6-.1,5.257-.144l.12-2.64a2.548,2.548,0,0,0-1.368-1.008c-.241-.1-.336-.192-.336-.385,0-.215.311-.288.815-.263a8.78,8.78,0,0,1,2.377.5.514.514,0,0,1,.36.672c-.072.312-.121.552-.168.816l-.36,2.232h.1a7.124,7.124,0,0,0,2.424-.36,2.049,2.049,0,0,1,.864-.264,8.1,8.1,0,0,1,2.28.288c.456.12.672.36.672.7,0,.576-.432.768-1.1.72m-2.809-6.024c-3.385,0-7.753.048-11.089.168-1.632.023-2.232-.5-2.232-1.969V33.984a2.882,2.882,0,0,0-1.512-.72c-.24-.048-.36-.168-.36-.336,0-.216.215-.336.576-.336a20.043,20.043,0,0,1,2.448.144,3.579,3.579,0,0,1,.5.12,1.4,1.4,0,0,0,.5.072c2.16,0,6.121-.072,8.352-.192a.516.516,0,0,0,.336-.215,32.223,32.223,0,0,0,.145-3.457c-2.04-.024-4.872.024-6.577.144a6.371,6.371,0,0,0-2.3.48,1.122,1.122,0,0,1-.456.144,1.834,1.834,0,0,1-.5-.12,10.123,10.123,0,0,1-2.04-1.008c-.24-.168-.36-.288-.36-.432q0-.288.5-.216a22.8,22.8,0,0,0,3.072.216c2.688-.024,5.976-.073,8.113-.192a1.937,1.937,0,0,0,.624-.12,1.611,1.611,0,0,1,.6-.168,6.565,6.565,0,0,1,1.32.168c.312.071.48.191.48.432,0,.263-.168.431-.5.7a30.7,30.7,0,0,1-.792,3.456c.6.168.912.384.912.648,0,.289-.216.456-.648.48-3.552.048-8.065.12-10.585.216a4.612,4.612,0,0,0-.024.48v2.544q0,.65.576.649c1.488,0,4.057-.025,6.072-.1a5.17,5.17,0,0,0,2.065-.36,2.664,2.664,0,0,1,.912-.289,11.015,11.015,0,0,1,2.16.1c.432.072.7.313.7.673,0,.552-.36.792-.984.792" fill="#333"/>
    <path id="패스_1349" data-name="패스 1349" d="M262.392,30.984a18.819,18.819,0,0,1-1.607,3.551l1.439,1.512a4.687,4.687,0,0,0,1.9,1.32,1.661,1.661,0,0,1,.744.529,5.137,5.137,0,0,1,1.344,2.568c0,.48-.168.672-.48.672a1.156,1.156,0,0,1-.912-.528l-4.585-5.161a24.163,24.163,0,0,1-5.832,6.121.9.9,0,0,1-.528.24c-.144,0-.216-.071-.216-.24a.971.971,0,0,1,.336-.528,25.753,25.753,0,0,0,6.337-10.153,3.272,3.272,0,0,0-1.608-1.488c-.193-.1-.289-.192-.289-.312,0-.192.216-.288.672-.288a3.438,3.438,0,0,1,.5.048,9.893,9.893,0,0,1,2.521.96c.288.168.408.336.408.576a2.439,2.439,0,0,1-.145.6m11.978,5.4c-.864.023-2.04.048-3.576.119v4.945a34.936,34.936,0,0,1-.24,4.8c-.193,1.561-.5,2.305-.96,2.305-.361,0-.529-.792-.529-2.377V27.935a4.452,4.452,0,0,0-2.28-1.368c-.216-.073-.336-.168-.336-.288,0-.264.288-.384.912-.384a9.764,9.764,0,0,1,3,.528.662.662,0,0,1,.529.672c0,.311-.1,1.152-.1,1.44v7.08a2.111,2.111,0,0,0,1.368-.408,1.219,1.219,0,0,1,.527-.263,5.173,5.173,0,0,1,2.113,0,.649.649,0,0,1,.576.671c0,.529-.336.769-1.008.769" fill="#333"/>
    <path id="패스_1350" data-name="패스 1350" d="M279.7,42.552a1.308,1.308,0,0,1-1.056-.7,2.488,2.488,0,0,1-.36-1.512V36.216a3.327,3.327,0,0,0-1.488-.673c-.193-.047-.312-.143-.312-.311,0-.216.336-.384.647-.384a20.7,20.7,0,0,1,2.113.119,5.225,5.225,0,0,1,.576.145,1.7,1.7,0,0,0,.552.072,27.825,27.825,0,0,0,3.1-.192.379.379,0,0,0,.36-.241c.12-1.368.144-2.736.168-4.2-.984.025-1.944.073-2.736.145a3.41,3.41,0,0,0-1.2.264,1.313,1.313,0,0,1-.576.192,1.691,1.691,0,0,1-.5-.12,6.835,6.835,0,0,1-1.656-.889c-.168-.12-.265-.191-.265-.359s.168-.241.456-.193a17.453,17.453,0,0,0,2.449.144,32.965,32.965,0,0,0,3.552-.144,1.871,1.871,0,0,0,.576-.12,1.2,1.2,0,0,1,.552-.143,5.078,5.078,0,0,1,1.416.215c.216.073.313.168.313.312,0,.192-.1.288-.241.433a.893.893,0,0,0-.24.336c-.1.671-.191,1.271-.311,1.9a11.775,11.775,0,0,0,1.632.048c.671-.025,1.608-.048,2.448-.145V29.376a3.416,3.416,0,0,0-1.872-1.177c-.216-.072-.336-.168-.336-.312,0-.24.288-.36.84-.36a7.394,7.394,0,0,1,1.32.216c.647.144,1.056.264,1.3.337a.616.616,0,0,1,.48.624c0,.071-.024.263-.049.575-.023.217-.023.48-.023.793v9.841c0,1.128-.048,2.279-.12,3.479-.168,2.233-.528,3.337-1.032,3.337q-.5,0-.5-2.305v-6.24c-.72.025-1.393.072-1.777.12a1.919,1.919,0,0,0-.719.216.9.9,0,0,1-.384.1,1.146,1.146,0,0,1-.36-.1,5.288,5.288,0,0,1-1.273-.672c-.143-.1-.216-.192-.216-.312,0-.168.12-.24.384-.216a10.521,10.521,0,0,0,1.8.072c.72-.024,1.68-.072,2.544-.168V33.36c-.672.023-1.321.071-1.681.12a1.911,1.911,0,0,0-.72.216.891.891,0,0,1-.383.1,1.158,1.158,0,0,1-.361-.1,4.619,4.619,0,0,1-1.08-.528c-.1.528-.216,1.056-.336,1.583.481.121.72.336.72.672,0,.288-.191.433-.6.456-1.7.1-3.648.217-5.136.313a3.212,3.212,0,0,0-.024.48v3.865c0,.336.168.5.528.5a37.611,37.611,0,0,0,5.808-.7,1.574,1.574,0,0,1,.433-.048.259.259,0,0,1,.263.289c0,.143-.143.263-.408.359A26.835,26.835,0,0,1,280.7,42.5a4.883,4.883,0,0,1-1.008.048m15.577-14.9a4.766,4.766,0,0,0-.072.84v13.25c0,1.536-.048,2.9-.168,4.1-.144,1.825-.48,2.713-1.008,2.713-.336,0-.5-.841-.5-2.545V27.887a4.063,4.063,0,0,0-2.112-1.32c-.24-.072-.361-.191-.361-.312q0-.36.937-.36a8.97,8.97,0,0,1,2.809.576.707.707,0,0,1,.527.672,4.379,4.379,0,0,1-.048.5" fill="#333"/>
    <path id="패스_1351" data-name="패스 1351" d="M77.114.092h2.2a2.093,2.093,0,0,1,.164,4.183c-.052,0-.1,0-.154,0H77.778V6.816h-.66Zm2.18,3.588a1.5,1.5,0,1,0-.007-3H77.774v3Z" fill="#595757"/>
    <path id="패스_1352" data-name="패스 1352" d="M87.509.092h.66V6.225h3.187v.591H87.509Z" fill="#595757"/>
    <path id="패스_1353" data-name="패스 1353" d="M102.429.092V4.54a2.57,2.57,0,0,1-5.127,0V.092h.66v4.4a1.9,1.9,0,0,0,3.8,0V.092Z" fill="#595757"/>
    <path id="패스_1354" data-name="패스 1354" d="M110.853.588c-.927,0-1.561.516-1.561,1.221s.693,1.024,1.33,1.2l.7.2c.841.233,1.839.676,1.839,1.812,0,1.083-.874,1.911-2.351,1.911-1.387,0-2.261-.732-2.338-1.812h.676c.067.789.772,1.211,1.662,1.211.991,0,1.707-.528,1.707-1.319,0-.677-.574-.979-1.389-1.216l-.8-.232c-1.057-.309-1.674-.851-1.674-1.725a2.253,2.253,0,0,1,4.418-.055h-.643a1.408,1.408,0,0,0-1.576-1.2" fill="#595757"/>
    <path id="패스_1355" data-name="패스 1355" d="M119.2,6.815V.092h2.107c1.93,0,3.073,1.258,3.073,3.345,0,2.114-1.156,3.378-3.185,3.378Zm1.959-.591c1.707,0,2.577-1.05,2.574-2.787,0-1.717-.851-2.755-2.465-2.755h-1.408V6.224Z" fill="#595757"/>
    <path id="패스_1356" data-name="패스 1356" d="M130.429.092h3.94V.683h-3.284V3.155h3.069v.588h-3.069V6.225h3.338v.591h-4Z" fill="#595757"/>
    <path id="패스_1357" data-name="패스 1357" d="M145.771,6.815h-.633l-3.906-5.541h-.057V6.815h-.659V.092h.64l3.914,5.552h.056V.092h.646Z" fill="#595757"/>
    <path id="패스_1358" data-name="패스 1358" d="M159.166,6.815V.092h2.108c1.93,0,3.072,1.258,3.072,3.345,0,2.114-1.155,3.378-3.184,3.378Zm1.961-.591c1.706,0,2.577-1.05,2.572-2.787,0-1.717-.85-2.755-2.464-2.755h-1.409V6.224Z" fill="#595757"/>
    <path id="패스_1359" data-name="패스 1359" d="M170.393.092h3.94V.683h-3.282V3.155h3.069v.588h-3.069V6.225h3.338v.591h-4Z" fill="#595757"/>
    <path id="패스_1360" data-name="패스 1360" d="M185.736,6.815H185.1l-3.9-5.541h-.057V6.815h-.66V.092h.641l3.913,5.552h.056V.092h.646Z" fill="#595757"/>
    <path id="패스_1361" data-name="패스 1361" d="M191.682.092H196.6V.683h-2.124V6.815h-.664V.683h-2.129Z" fill="#595757"/>
    <path id="패스_1362" data-name="패스 1362" d="M201.13,6.815,203.577.092h.711l2.446,6.723h-.7l-.709-2h-2.793l-.713,2Zm3.989-2.587L203.954.945h-.042l-1.169,3.283Z" fill="#595757"/>
    <path id="패스_1363" data-name="패스 1363" d="M212.454.092h.66V6.225H216.3v.591h-3.847Z" fill="#595757"/>
    <path id="패스_1364" data-name="패스 1364" d="M231.923.621c-1.261,0-2.279,1-2.279,2.833s1.018,2.833,2.279,2.833a1.986,1.986,0,0,0,2-1.576h.667a2.624,2.624,0,0,1-2.672,2.2c-1.707,0-2.922-1.346-2.922-3.454S230.216,0,231.923,0A2.623,2.623,0,0,1,234.6,2.2h-.667a1.985,1.985,0,0,0-2-1.582" fill="#595757"/>
    <path id="패스_1365" data-name="패스 1365" d="M240.6.092h.66V6.225h3.187v.591H240.6Z" fill="#595757"/>
    <rect id="사각형_994" data-name="사각형 994" width="0.66" height="6.723" transform="translate(250.399 0.092)" fill="#595757"/>
    <path id="패스_1366" data-name="패스 1366" d="M262.659,6.815h-.634l-3.9-5.541h-.057V6.815h-.66V.092h.64l3.914,5.552h.056V.092h.646Z" fill="#595757"/>
    <rect id="사각형_995" data-name="사각형 995" width="0.661" height="6.723" transform="translate(269.004 0.092)" fill="#595757"/>
    <path id="패스_1367" data-name="패스 1367" d="M278.636.621c-1.26,0-2.277,1-2.277,2.833s1.017,2.833,2.277,2.833a1.985,1.985,0,0,0,2.005-1.576h.667a2.626,2.626,0,0,1-2.673,2.2c-1.706,0-2.921-1.346-2.921-3.454S276.929,0,278.635,0a2.623,2.623,0,0,1,2.673,2.2h-.667A1.984,1.984,0,0,0,278.636.621" fill="#595757"/>
    <path id="패스_1368" data-name="패스 1368" d="M69.99,96.279c.064.528-.305.849-.8.24l-2.641-3.313a14.773,14.773,0,0,1-1.793,1.97A17.6,17.6,0,0,1,62.467,97c-.576.384-.656.288-.689.224-.1-.08.16-.256.593-.625.464-.416,1.216-1.168,1.777-1.776a9.823,9.823,0,0,0,2.272-3.554c.128-.383-.528-1.024-.768-1.12-.5-.192-.031-.5.4-.385a5.349,5.349,0,0,1,1.441.737c.432.3.24.608.128.865a13.553,13.553,0,0,1-.8,1.44,9.34,9.34,0,0,0,1.153,1.248,14.175,14.175,0,0,0,1.408.929,2.577,2.577,0,0,1,.609,1.3m3.281-7.538-.064,9.091c0,1.841-.161,3.954-.688,3.954-.272,0-.288-.769-.288-1.089V88.789a2.976,2.976,0,0,0-1.36-.864c-.289-.1-.1-.321.3-.353a5.554,5.554,0,0,1,1.872.416c.417.145.225.433.225.753" fill="#666"/>
    <path id="패스_1369" data-name="패스 1369" d="M83.414,95.223c-.032.288-.368.528-.864-.032l-2.161-2.209a14.127,14.127,0,0,1-1.921,1.472,18.124,18.124,0,0,1-3.009,1.633c-.225.08-.385-.08-.08-.256a17.976,17.976,0,0,0,2.576-1.713,11.193,11.193,0,0,0,3.378-3.793c-1.536.047-2.145.064-2.642.112-.623.063-.671.384-1.119.223a8.441,8.441,0,0,1-1.217-.576c-.192-.111-.192-.336.144-.288a13.871,13.871,0,0,0,1.6.113c1.424.015,2.817-.033,3.057-.048.176-.017.256-.145.56-.145a8.34,8.34,0,0,1,.881.08c.32.048.448.288-.128.689a12.557,12.557,0,0,1-1.793,2.193c.432.368.576.527.816.7.544.384.8.224,1.025.416.384.336.927,1.057.9,1.425m2.609,3.81c0,2.176-.449,2.72-.705,2.72s-.223-.944-.223-1.888l.016-2.5c-2.5.047-3.795.047-4.578.144-.816.1-.512.416-1.281.224a7.809,7.809,0,0,1-1.264-.544c-.289-.16-.289-.481.144-.368a6.962,6.962,0,0,0,1.5.128c1.856,0,4.129-.1,4.882-.161.192-.015.3-.144.463-.192.208.017.416.032.913.1.192.031.432.175.128.687Zm2.561-6.227c.48.063.641.864-.336.864H86.1c0,1.088-.241,2.8-.77,2.8-.271,0-.223-.96-.223-1.568V88.724a3.321,3.321,0,0,0-1.6-.849c-.321-.08-.3-.208.16-.368a5.361,5.361,0,0,1,2.193.4c.561.192.256.464.241.784v4.466a2.483,2.483,0,0,0,1.3-.336,2.684,2.684,0,0,1,1.185-.016" fill="#666"/>
    <path id="패스_1370" data-name="패스 1370" d="M102.328,94.855c.561.1.657.928-.464.816-.848-.08-3.378,0-5.217.081l-.129,3.809c-.016.912-.224,2.32-.7,2.305-.224,0-.208-.4-.208-.864V95.8c-1.809.033-3.106.161-3.65.192-.912.049-.753.448-1.44.224a7.576,7.576,0,0,1-1.489-.624c-.272-.16-.175-.416.144-.368a16.911,16.911,0,0,0,3.329.144c2.482-.016,6.579-.288,7.043-.3,1.057-.032,1.041-.336,1.665-.336a6.73,6.73,0,0,1,1.12.128m-2.849-5.826-.1,3.392c-.048.961-.352,1.393-.7,1.393-.208,0-.24-.24-.256-.544l-5.058.176c-.176.625-.416.688-.656.673-.177-.017-.177-.416-.177-.721l-.08-3.585c-.016-.433-.944-.721-1.249-.849s-.063-.368.225-.4a6.127,6.127,0,0,1,1.665.208c.448.112.384.208.384.721l-.016.752,4.93-.144V89.092c-.016-.256-.8-.608-.977-.672-.208-.08-.256-.4.24-.4a7.072,7.072,0,0,1,1.538.3c.4.112.367.208.287.705m-1.056,3.745L98.406,90.6l-4.961.16-.033,2.177Z" fill="#666"/>
    <path id="패스_1371" data-name="패스 1371" d="M111.7,96.311a19,19,0,0,1-2.848,1.217,18.775,18.775,0,0,1-2.93.8c-.624.144-1.248-.08-1.248-1.76v-5.4c-.032-.448-1.152-.736-1.361-.8-.352-.111-.288-.271.064-.383a7.2,7.2,0,0,1,2.209.192c.48.031,2.049-.112,2.32-.112.416-.048.465-.305.881-.416a3.337,3.337,0,0,1,1.2-.033c.543.065.528.7-.064.752-1.682.145-4.033.321-4.242.321v2.9a8.515,8.515,0,0,0,1.552-.112c.545-.08.545-.3,1.057-.4a3.57,3.57,0,0,1,1.057-.016c.544.064.527.672,0,.736-1.489.176-3.01.256-3.666.288l.015,2.833c0,.193-.047.433.289.416a14.344,14.344,0,0,0,2.817-.416,14.8,14.8,0,0,0,2.785-.928c.272-.112.336.192.112.32m2.8-1.3c0,5.378-.24,6.786-.736,6.786-.305,0-.256-1.345-.256-1.568V93.7a10.623,10.623,0,0,0-1.377.127c-.528.081-.273.3-.8.176a5.654,5.654,0,0,1-1.008-.416c-.24-.128-.3-.385.207-.288a13.714,13.714,0,0,0,2.979-.08V88.8a3.324,3.324,0,0,0-1.6-.849c-.32-.08-.3-.208.16-.368a5.385,5.385,0,0,1,2.194.4c.56.192.256.464.24.784Z" fill="#666"/>
    <path id="패스_1372" data-name="패스 1372" d="M133.655,93.942c.448.081.577.833-.336.833H130.95c.032,2.914-.24,4.066-.736,4.066-.305,0-.257-1.12-.257-1.841V95.272c-.512.16-1.712.48-3.009.768-1.424.319-2.353.512-3.857.752-.576.1-.5.433-1.152.208a10.179,10.179,0,0,1-1.617-.672c-.305-.16-.209-.417.16-.352a12.034,12.034,0,0,0,1.76.1,19.893,19.893,0,0,0,2.305-.223V94.631a.383.383,0,0,0-.192-.272,2.5,2.5,0,0,1-2.481-2.369c0-1.392,1.233-2.176,2.625-2.289a.674.674,0,0,0,.145-.224c.031-.1.031-.176-.129-.272-.272-.16-.192-.368.224-.305a3.218,3.218,0,0,1,.5.177c.24.112.255.16.191.321a3.089,3.089,0,0,1-.127.319,2.5,2.5,0,0,1,2.385,2.273,2.44,2.44,0,0,1-2.161,2.321.884.884,0,0,0-.033.209l-.064,1.263c.656-.048,1.473-.223,2.338-.368a12.379,12.379,0,0,0,2.192-.5v-6.21a3.309,3.309,0,0,0-1.6-.849c-.321-.08-.112-.336.16-.368a6.8,6.8,0,0,1,2.193.4c.56.191.256.463.24.784v5.618c1.44,0,1.28-.3,1.584-.368a2.205,2.205,0,0,1,1.121.015m-6.835-1.936a1.88,1.88,0,0,0-2.016-1.713,1.966,1.966,0,0,0-2.049,1.7,2.052,2.052,0,0,0,4.065.016m5.106,8.371c.384.049.5.8-.288.816-2.257.033-4.418.033-5.378.017-.784-.032-1.665.016-1.665-1.5V98.7c0-.3-1.137-.527-1.328-.544-.609-.063-.208-.416.32-.463a12.6,12.6,0,0,1,1.76.08c.193.032.369.063.337.416l-.032,2.113c0,.432.175.447.431.447,1.713.049,2.114.032,2.819.032,1.263,0,1.248-.4,1.775-.448a4.377,4.377,0,0,1,1.249.048" fill="#666"/>
    <path id="패스_1373" data-name="패스 1373" d="M141.91,94.758c.127.545-.385.641-.657.353l-2.353-2.69a10.76,10.76,0,0,1-2.274,2.146,7.081,7.081,0,0,1-2.352,1.3c-.176-.144.063-.224.464-.529a17.768,17.768,0,0,0,2.065-1.808,11.819,11.819,0,0,0,2.241-3.073c.127-.336-.753-.945-1.008-1.12-.4-.273-.033-.481.463-.353a6.98,6.98,0,0,1,1.585.8c.433.3.224.624.1.864a10.072,10.072,0,0,1-.993,1.44,11.222,11.222,0,0,0,1.009.849c.736.4.687.256,1.168.9a3.012,3.012,0,0,1,.545.927m1.359,1.681a2.592,2.592,0,0,1,2.449,2.466,2.751,2.751,0,0,1-2.928,2.64,2.683,2.683,0,0,1-2.978-2.64,2.647,2.647,0,0,1,2.674-2.482,1.116,1.116,0,0,0,.08-.192c.047-.128.047-.256-.192-.432-.257-.192,0-.368.352-.272a2.53,2.53,0,0,1,.7.32c.145.112.1.224.017.353Zm1.586,2.466a2.086,2.086,0,0,0-4.162,0,1.963,1.963,0,0,0,2.1,1.888,1.891,1.891,0,0,0,2.065-1.888m1.04-10.133-.017,4.851c0,1.44-.191,2.865-.687,2.865-.336,0-.289-1.089-.289-1.345V92.1c-.64.016-1.7.128-1.9.159-.529.08-.272.305-.8.177a5.625,5.625,0,0,1-1.008-.416c-.24-.129-.3-.385.208-.288a19.258,19.258,0,0,0,3.5-.112V88.8a3.316,3.316,0,0,0-1.6-.848c-.32-.08-.3-.208.16-.369a5.4,5.4,0,0,1,2.193.4c.559.192.256.464.24.784" fill="#666"/>
    <path id="패스_1374" data-name="패스 1374" d="M156.342,91.093a16.091,16.091,0,0,1-1.729,4.241,13.4,13.4,0,0,1-3.281,3.874c-.24.16-.369,0-.209-.176a16.7,16.7,0,0,0,2.338-3.265,14.207,14.207,0,0,0,1.76-4.77,4.61,4.61,0,0,0-.944.048c-.5.1-.4.288-.768.16a5.421,5.421,0,0,1-.657-.257l-.032.033A11.593,11.593,0,0,1,151,94.454a11.352,11.352,0,0,1-2.914,2.8c-.16.1-.447.048-.16-.224a16.452,16.452,0,0,0,2.449-2.96,11.558,11.558,0,0,0,1.393-3.106c-.544.016-.928.048-1.184.08-.689.08-.545.288-.865.208a4.16,4.16,0,0,1-1.088-.5c-.225-.144-.225-.385.111-.32a6.846,6.846,0,0,0,.9.1,13.877,13.877,0,0,0,1.9-.1c.337-.065.354-.128.561-.145a5.741,5.741,0,0,1,.673.065c.159.032.319.08.335.208.113,0,.208.015.321.015a14.228,14.228,0,0,0,1.7-.128c.225-.063.209-.111.433-.111a2.887,2.887,0,0,1,.656.063c.192.048.688.081.128.689m5.2,3.249c.479.08.64.864-.337.864h-2.4c0,5.763-.241,6.6-.737,6.6-.3,0-.255-.944-.255-1.568V88.74a3.22,3.22,0,0,0-1.6-.848c-.32-.08-.3-.208.159-.368a5.35,5.35,0,0,1,2.193.4c.561.191.256.464.241.784v5.987a2.577,2.577,0,0,0,1.552-.336,2.7,2.7,0,0,1,1.185-.017" fill="#666"/>
    <path id="패스_1375" data-name="패스 1375" d="M171.094,96.776c.064.431-.336.687-.7.271l-2.929-2.881a19.031,19.031,0,0,1-2.209,1.873,16.548,16.548,0,0,1-2.9,1.9c-.193.08-.433,0-.224-.176.416-.336,2.192-1.7,3.072-2.434a14.032,14.032,0,0,0,3.474-4.5,19.351,19.351,0,0,0-3.138.192c-.656.144-.512.368-1.04.208a9.035,9.035,0,0,1-1.265-.512c-.3-.176-.127-.384.145-.32a7.266,7.266,0,0,0,1.313.1,28.208,28.208,0,0,0,3.873-.176c.209-.047.16-.143.512-.143a4.54,4.54,0,0,1,.8.063c.24.033.5.241-.047.657a13.151,13.151,0,0,1-2.033,2.9,12.449,12.449,0,0,0,1.023.832c.657.481,1.057.385,1.393.673a3.441,3.441,0,0,1,.881,1.473m2.577-8.1-.063,9.124c0,1.841-.161,3.953-.69,3.953-.271,0-.287-.768-.287-1.088V88.724a2.982,2.982,0,0,0-1.361-.864c-.287-.1-.1-.321.3-.353a5.547,5.547,0,0,1,1.873.417c.416.144.224.432.224.752" fill="#666"/>
    <path id="패스_1376" data-name="패스 1376" d="M190.951,88.772l-.016,4.658c0,1.441-.193,2.866-.689,2.866-.336,0-.287-1.12-.287-1.345V92.31c-.641.016-1.217.064-1.426.1-.463.08-.367.353-.9.224a6.529,6.529,0,0,1-.8-.336,3.056,3.056,0,0,1-3.186,2.8c-1.745,0-3.281-1.1-3.281-2.753a2.9,2.9,0,0,1,2.961-2.833c.064-.1.048-.128.111-.208.08-.144-.095-.289-.175-.336-.241-.193-.112-.449.352-.321a2.238,2.238,0,0,1,.544.193c.176.128.225.256.145.4l-.161.288a2.806,2.806,0,0,1,2.641,2.225l.08.032a9.966,9.966,0,0,0,3.09-.017V88.8a3.322,3.322,0,0,0-1.6-.848c-.32-.08-.3-.208.161-.368a5.372,5.372,0,0,1,2.193.4c.56.192.256.464.24.784m-4.994,3.522a2.225,2.225,0,0,0-2.289-2.081,2.178,2.178,0,0,0-2.337,2.129,2.125,2.125,0,0,0,2.321,2.017,2.182,2.182,0,0,0,2.305-2.065m4.962,4.978-.7,3.281c1.04.081.832.672.32.672l-5.379.048a.6.6,0,0,1-.607.529c-.177-.016-.209-.624-.24-1.041l-.209-2.993c-.016-.336-.672-.576-.832-.608-.528-.112-.481-.273-.128-.416a4.274,4.274,0,0,1,1.808.176c.368.032,4.306-.128,4.771-.176a.539.539,0,0,1,.416-.112,5.519,5.519,0,0,1,.736.08c.271.048.384.272.048.56m-1.089-.032-4.738.16.064,3.457,4.082-.112c.288-.016.225-.111.416-.176Z" fill="#666"/>
    <path id="패스_1377" data-name="패스 1377" d="M204.9,88.725l-.016,3.954c0,1.152-.032,3.232-.767,3.232-.274,0-.209-1.392-.209-1.776a19.052,19.052,0,0,0-2.24.144c-.513.1-.369.288-.833.16a6.218,6.218,0,0,1-1.009-.464c-.256-.128-.32-.48.177-.384.736.143.975.288,3.9.048v-2.4a14.809,14.809,0,0,0-1.937.129c-.528.08-.256.239-.784.111a3.368,3.368,0,0,1-.768-.3.37.37,0,0,1-.193-.225,12.729,12.729,0,0,1-2.689,3.281,19.742,19.742,0,0,1-3.713,2.594c-.305.08-.272-.177-.08-.288a20.183,20.183,0,0,0,3.793-3.25,14.809,14.809,0,0,0,2.209-3.505c-1.649.032-2.752.193-3.121.224-.352.112-.5.272-.88.128a6.365,6.365,0,0,1-1.137-.544c-.192-.113-.176-.336.177-.272a9.71,9.71,0,0,0,1.376.112,32.756,32.756,0,0,0,3.3-.144c.336-.048.271-.144.511-.144l.689.047c.256.033.88.129.16.753-.16.3-.337.592-.5.865a.41.41,0,0,1,.289,0,15.355,15.355,0,0,0,3.3-.08V88.757a3.308,3.308,0,0,0-1.6-.849c-.319-.08-.3-.208.16-.368a5.37,5.37,0,0,1,2.193.4c.56.193.257.464.24.785m-.08,8.355c0,.977-.047,1.28-.047,1.9,0,2.177-.449,2.721-.7,2.721s-.225-.944-.225-1.889V96.968c-2.5.048-4.177.192-4.96.288-.817.1-.513.416-1.282.224a7.675,7.675,0,0,1-1.263-.544c-.289-.16-.289-.48.143-.368a7.02,7.02,0,0,0,1.505.128c1.856,0,4.578-.144,5.33-.208.192-.016.3-.144.464-.192.208.015.416.032.913.1.191.032.432.176.127.688" fill="#666"/>
    <path id="패스_1378" data-name="패스 1378" d="M214.884,91.221c.656.08.656.832-.015.832-2.786,0-4.29.065-5.54.177-.912.08-.832.384-1.375.192a9.182,9.182,0,0,1-1.233-.544c-.257-.161-.16-.369.16-.321.433.065,1.12.128,1.777.16a21.723,21.723,0,0,0,3.921-.208c.5-.08.8-.3,1.088-.335a4.941,4.941,0,0,1,1.217.047m-.607,4.69c0,1.457-1.49,2.5-3.042,2.5-1.441,0-3.089-.848-3.089-2.5,0-1.3,1.057-2.288,2.769-2.481l.1-.16a.271.271,0,0,0-.129-.336c-.256-.16-.207-.352.193-.336a1.886,1.886,0,0,1,.672.256c.144.08.192.128.1.352a3,3,0,0,1-.16.289,2.631,2.631,0,0,1,2.594,2.416m-1.633-6.546c.64.048.512.8-.129.8-.447,0-1.264.032-1.68.048a1.525,1.525,0,0,1-1.169-.3c-.176-.112-.48-.3-.7-.481-.289-.223-.144-.463.3-.336a23.1,23.1,0,0,0,3.378.273m.768,6.546a2,2,0,0,0-2.145-1.792c-1.137,0-2.209.608-2.209,1.792a2.013,2.013,0,0,0,2.209,1.793,2.038,2.038,0,0,0,2.145-1.793m6.771-1.632c.479.08.64.864-.336.864h-2.4c0,5.762-.256,6.675-.752,6.675-.3,0-.24-1.312-.24-1.569V88.789a3.234,3.234,0,0,0-1.6-.849c-.32-.08-.3-.208.16-.368a5.37,5.37,0,0,1,2.192.4c.56.192.256.464.24.785v5.874A2.563,2.563,0,0,0,219,94.295a2.691,2.691,0,0,1,1.186-.016" fill="#666"/>
    <path id="패스_1379" data-name="패스 1379" d="M233.879,98.184c.576.128.609.977-.384.816a48.952,48.952,0,0,0-5.507-.015,32,32,0,0,0-4.625.384c-.224.047-.416.24-.64.223a5.9,5.9,0,0,1-2.08-.847c-.257-.145-.177-.433.143-.385a17.581,17.581,0,0,0,2.177.192c1.1.016,2.337-.048,3.281-.08V94.5c-.048-.288-.672-.528-1.041-.656-.351-.128-.416-.208.08-.4a9.872,9.872,0,0,1,1.666.24c.576.128.336.5.287.769l-.063,3.969c1.648-.032,2.753-.112,3.457-.16a8.7,8.7,0,0,0,1.745-.336,5.742,5.742,0,0,1,1.5.256m-1.793-7.667c-.176,1.232-.352,2.241-.527,3.057-.529,2.465-.881,2.929-1.185,3.282-.112.128-.368.176-.3-.129.112-.512.352-1.536.56-3.1a26.644,26.644,0,0,0,.272-3.185c-3.281.063-4.866.176-5.666.272-1.088.128-.833.384-1.3.256a6.617,6.617,0,0,1-1.505-.673c-.256-.143-.224-.416.208-.319a16.643,16.643,0,0,0,2.1.111,45.134,45.134,0,0,0,6.067-.255c.464-.193.687-.065,1.279.047.24.048.609.193,0,.641" fill="#666"/>
    <path id="패스_1380" data-name="패스 1380" d="M246.453,95.527c-.032.288-.368.528-.865-.032L243.6,93.174a14.078,14.078,0,0,1-1.681,1.376,16.7,16.7,0,0,1-3.249,1.969c-.24.065-.385-.08-.08-.256a22.159,22.159,0,0,0,2.8-2.033,13.6,13.6,0,0,0,3.361-4.049c-1.536.048-2.513.112-3.009.16-.624.064-.688.336-1.137.176a8.523,8.523,0,0,1-1.215-.576c-.193-.112-.193-.336.143-.288a13.94,13.94,0,0,0,1.6.111c1.425.017,3.265-.031,3.506-.048.175-.015.255-.143.56-.143a8.35,8.35,0,0,1,.88.08c.319.048.353.3-.177.672a23.544,23.544,0,0,1-2.015,2.561,7.838,7.838,0,0,0,.752.609c.544.384.736.288,1.04.527a2.638,2.638,0,0,1,.768,1.5m.8,1.3a2.585,2.585,0,0,1,2.5,2.432,2.743,2.743,0,0,1-2.961,2.593c-1.6,0-3.01-.864-3.01-2.593a2.64,2.64,0,0,1,2.7-2.449.918.918,0,0,0,.081-.191c.048-.128.048-.257-.176-.433-.256-.176,0-.351.336-.256a2.382,2.382,0,0,1,.688.3c.144.112.1.225.017.353Zm1.616,2.432a2.113,2.113,0,1,0-2.081,1.857,1.881,1.881,0,0,0,2.081-1.857m1.009-10.564-.017,5.139c0,1.44-.192,2.865-.688,2.865-.336,0-.288-1.121-.288-1.345V92.774c-.64.016-1.536.128-1.745.16-.528.08-.272.3-.8.176a5.045,5.045,0,0,1-.96-.416c-.24-.128-.353-.384.16-.288a17.5,17.5,0,0,0,3.345-.112v-3.57a3.315,3.315,0,0,0-1.6-.848c-.32-.08-.3-.208.16-.369a5.4,5.4,0,0,1,2.194.4c.559.192.256.465.24.784" fill="#666"/>
    <path id="패스_1381" data-name="패스 1381" d="M259.844,89.428c.416.08.239.385-.064.657l-.609,3.121a1.325,1.325,0,0,1,.321.08c.368.177.224.576-.256.56l-4.449.048c-.129.625-.289.8-.625.8-.128,0-.208-.256-.208-.656l-.241-3.41c0-.416-.8-.8-1.12-.865-.288-.063-.208-.319.145-.384a5.445,5.445,0,0,1,1.84.256c.209.049,3.937-.143,3.937-.143.176-.017.16-.145.481-.16a4.644,4.644,0,0,1,.848.1m-1.056.513-4.1.128.112,3.409,3.489-.08c.193-.048.273-.1.32-.271Zm5.25,10.116c.512.144.56.8-.273.8l-5.666-.016c-.592,0-1.36-.112-1.36-1.28l-.017-.976c-.015-.161-.752-.353-.9-.4-.287-.1-.223-.288.113-.384a5.05,5.05,0,0,1,1.728.176,25.647,25.647,0,0,0,4.129-.032c.256-.016.225-.1.37-.144l.207-1.7c-2.833.048-4.194.208-4.562.225-.479.143-.224.3-.832.143a5.142,5.142,0,0,1-1.04-.464c-.24-.144-.353-.448.111-.352a9.726,9.726,0,0,0,1.553.144c1.729.048,3.746-.128,4.29-.16.368-.032.319-.128.593-.128a4.326,4.326,0,0,1,.9.064c.433.064.257.4-.016.576l-.576,1.617a2.025,2.025,0,0,1,.576.128c.384.208.257.481-.223.481-.32,0-5.027.111-5.411.111v1.457a.367.367,0,0,0,.368.416s2.914.016,3.617-.032c.321-.016.593-.288.913-.352a3.937,3.937,0,0,1,1.409.08m-.56-11.365-.017,3.538c0,1.841-.192,2.9-.719,2.9-.273,0-.273-.768-.273-1.088v-5.3a3.039,3.039,0,0,0-1.376-.865c-.289-.1-.1-.32.3-.352a5.471,5.471,0,0,1,1.857.416c.416.144.225.433.225.752" fill="#666"/>
    <path id="패스_1382" data-name="패스 1382" d="M273.764,91.221c.656.08.656.832-.015.832-2.786,0-4.291.065-5.539.177-.912.08-.832.384-1.377.192a9.287,9.287,0,0,1-1.232-.544c-.256-.161-.16-.369.16-.321.432.065,1.12.128,1.778.16a21.723,21.723,0,0,0,3.92-.208c.5-.08.8-.3,1.089-.335a4.932,4.932,0,0,1,1.216.047m-.608,4.69c0,1.457-1.489,2.5-3.041,2.5-1.441,0-3.09-.848-3.09-2.5,0-1.3,1.057-2.288,2.769-2.481l.1-.16a.271.271,0,0,0-.127-.336c-.256-.16-.209-.352.192-.336a1.869,1.869,0,0,1,.671.256c.145.08.194.128.1.352a3.227,3.227,0,0,1-.16.289,2.629,2.629,0,0,1,2.593,2.416m-1.633-6.546c.641.048.513.8-.127.8-.449,0-1.266.032-1.682.048a1.523,1.523,0,0,1-1.168-.3c-.175-.112-.48-.3-.7-.481-.287-.223-.143-.463.3-.336a23.085,23.085,0,0,0,3.377.273m.769,6.546a2,2,0,0,0-2.145-1.792c-1.137,0-2.209.608-2.209,1.792a2.012,2.012,0,0,0,2.209,1.793,2.038,2.038,0,0,0,2.145-1.793m6.77-1.632c.48.08.641.864-.336.864h-2.4c0,5.762-.256,6.675-.752,6.675-.3,0-.241-1.312-.241-1.569V88.789a3.229,3.229,0,0,0-1.6-.849c-.32-.08-.3-.208.16-.368a5.37,5.37,0,0,1,2.193.4c.561.192.256.464.241.785v5.874a2.569,2.569,0,0,0,1.552-.336,2.682,2.682,0,0,1,1.184-.016" fill="#666"/>
    <path id="패스_1383" data-name="패스 1383" d="M285.892,90.709c.352.048.656.208-.064.752a14.418,14.418,0,0,1-2.561,4.914,14.259,14.259,0,0,1-2.962,2.769c-.224.129-.384.049-.1-.239a19.925,19.925,0,0,0,2.674-3.218,14.136,14.136,0,0,0,1.873-4.434,20.3,20.3,0,0,0-2.481.128c-.529.065-.433.256-.769.176a4.405,4.405,0,0,1-1.217-.56c-.127-.08-.223-.368.177-.272a17.809,17.809,0,0,0,4.018.048c.223-.016.384-.113.528-.113.272.017.464,0,.881.049m2.736-1.264-.031,7.09c0,3.249-.209,4.258-.753,4.289-.24.017-.224-.832-.224-1.376V94.487a3.87,3.87,0,0,0-.72.1c-.625.128-.368.256-.848.128a5.419,5.419,0,0,1-.93-.368c-.24-.144-.143-.368.241-.288a6.724,6.724,0,0,0,2.257-.112V89.525a2.621,2.621,0,0,0-1.281-.769c-.271-.1-.336-.256.145-.368a4.83,4.83,0,0,1,1.713.32c.511.176.511.321.431.737m2.721-.769-.031,9.155c0,1.841-.176,3.954-.7,3.954-.272,0-.272-.768-.272-1.088V88.724a3.03,3.03,0,0,0-1.377-.864c-.287-.1-.1-.321.305-.353a5.449,5.449,0,0,1,1.856.417c.417.144.224.432.224.752" fill="#666"/>
    <path id="패스_1384" data-name="패스 1384" d="M293.649,102.425c-.144.112-.3-.063-.177-.208a2.646,2.646,0,0,0,.865-1.952.847.847,0,0,1-.945-.864.824.824,0,0,1,.881-.881c.592,0,.912.4.912,1.056a3.639,3.639,0,0,1-1.536,2.849" fill="#666"/>
    <path id="패스_1385" data-name="패스 1385" d="M13.608,115.783c.256.048.784.9-.657.8-1.776-.112-4.241-.143-6.1-.063-1.825.079-3.425.208-4.21.319-.224.033-.384.273-.608.241a5.07,5.07,0,0,1-1.889-.785c-.256-.175-.16-.4.16-.336a12.147,12.147,0,0,0,1.7.193l1.777-.032a19.2,19.2,0,0,0,.7-2.673c.112-.561.192-1.185.272-1.873-.64.015-1.057.032-1.345.063-.592.08-.592.288-.848.208a7.085,7.085,0,0,1-1.168-.479c-.16-.1-.224-.368.128-.288a6.286,6.286,0,0,0,1.217.08,15.366,15.366,0,0,0,1.6-.1c.384-.031.384-.144.608-.128a8.412,8.412,0,0,1,.96.065c.241.032.465.223,0,.624-.272.784-.4,1.44-.592,2.064a12.619,12.619,0,0,1-1.04,2.417c1.729-.048,4.018-.1,5.346-.111.176-.529.4-1.457.688-2.754a15.912,15.912,0,0,0,.3-1.744c-.641.015-1.265.032-1.553.063-.593.08-.593.288-.848.208a7.063,7.063,0,0,1-1.169-.479c-.16-.1-.224-.369.128-.288a6.281,6.281,0,0,0,1.216.08c.737,0,1.649-.08,1.81-.1.383-.031.383-.144.607-.128a8.607,8.607,0,0,1,.961.064c.24.033.464.224,0,.624-.272.785-.384,1.281-.624,2.034a18.934,18.934,0,0,1-1.025,2.4c.272-.016.464-.016.544-.016,1.041-.032.689-.335,1.441-.352a6.149,6.149,0,0,1,1.505.177m-2.1,5.986c.4.1.5.832-.288.832l-6.5.016c-1.072-.08-1.457-.432-1.441-1.393l-.016-1.456c-.048-.5-.784-.544-1.248-.656-.448-.113-.1-.368.208-.4a12.755,12.755,0,0,1,1.793.08c.272.033.256.273.256.5v2.384a.43.43,0,0,0,.464.513c2.033.016,3.122-.032,3.826-.08,1.12-.065,1.152-.416,1.488-.448a4.909,4.909,0,0,1,1.457.112" fill="#666"/>
    <path id="패스_1386" data-name="패스 1386" d="M21.622,114.39c0,1.584-1.409,2.625-3.106,2.625-1.5,0-3.137-.9-3.137-2.625a2.706,2.706,0,0,1,2.833-2.609c.064-.08.048-.112.1-.193.08-.143-.08-.288-.144-.335-.24-.161-.112-.416.32-.289a1.707,1.707,0,0,1,.512.193c.177.1.224.223.144.368a1.868,1.868,0,0,1-.159.271,2.667,2.667,0,0,1,2.641,2.594m-.881,0a2.144,2.144,0,0,0-2.209-1.937,1.971,1.971,0,1,0-.016,3.906,2.073,2.073,0,0,0,2.225-1.969m4.946,4.978-.624,3.073c1.04.08.832.672.32.672l-5.25.064c-.064.224-.256.544-.576.544-.176,0-.208-.624-.24-1.04l-.224-2.865c-.017-.336-.625-.576-.785-.608-.528-.113-.48-.272-.128-.416a4.309,4.309,0,0,1,1.809.175c.368.033,4.034-.08,4.5-.128a.545.545,0,0,1,.416-.112,6.254,6.254,0,0,1,.736.08c.272.049.384.273.048.561m-1.088-.032-4.514.112.048,3.313,3.857-.128c.289-.016.369-.032.513-.176Zm1.056-8.644-.048,4.4c0,1.937-.256,3.009-.736,3.009-.272,0-.256-.768-.256-1.088v-6.274a3.252,3.252,0,0,0-1.441-.865c-.288-.1-.1-.336.3-.369a6.066,6.066,0,0,1,1.953.433c.416.144.224.433.224.752" fill="#666"/>
    <path id="패스_1387" data-name="패스 1387" d="M39.527,110.772l-.016,3.954c0,1.44-.192,2.865-.688,2.865-.336,0-.288-1.057-.288-1.345v-2.161a14.091,14.091,0,0,0-1.425.16c-.352.032-.288.336-.816.24a4.373,4.373,0,0,1-.992-.368c-.016,0-.032-.015-.049-.015a2.943,2.943,0,0,1-3.169,2.56,2.956,2.956,0,0,1-3.2-2.72,2.837,2.837,0,0,1,2.9-2.674c.064-.08.048-.112.1-.192.08-.144-.08-.288-.144-.336-.256-.176-.128-.432.32-.3a1.607,1.607,0,0,1,.529.208c.175.1.224.224.144.368a2.037,2.037,0,0,1-.161.272,2.871,2.871,0,0,1,2.658,2.273l.288.064a12.609,12.609,0,0,0,3.025-.112V110.8a3.316,3.316,0,0,0-1.6-.849c-.32-.08-.3-.208.16-.368a5.372,5.372,0,0,1,2.193.4c.561.193.256.464.24.785m-4.914,7.667-.048,3.713c-.016.689-.272,1.425-.656,1.409-.208-.016-.176-.544-.176-.768l-2.449.176c-.08.7-.448.832-.624.832-.208,0-.192-.7-.192-1.376l-.064-2.978c.015-.352-.417-.752-.881-.88s-.288-.289.081-.384a4.127,4.127,0,0,1,1.328.176c.464.112.4.3.4.512v.9l2.369-.145v-.992c-.032-.224-.64-.576-.832-.624-.272-.065-.432-.273.064-.4a4.208,4.208,0,0,1,1.472.24c.3.1.272.288.208.592m-.256-4.5a2.169,2.169,0,0,0-2.257-1.954,2.131,2.131,0,0,0-2.288,1.954,2.084,2.084,0,0,0,2.272,1.984,2.07,2.07,0,0,0,2.273-1.984M33.7,122.3v-2.129l-2.385.144-.016,2.129Zm7.3.624c.1.479-.3.608-.608.336l-2.145-2.833a17.807,17.807,0,0,1-1.553,1.856,13.02,13.02,0,0,1-1.921,1.537c-.176.1-.448.016-.208-.24a17.126,17.126,0,0,0,2.289-2.641,9.153,9.153,0,0,0,1.153-2.209c.064-.464-.465-.737-.8-.945-.241-.143-.033-.4.383-.256a4.965,4.965,0,0,1,1.233.544A.543.543,0,0,1,39,118.9a8.53,8.53,0,0,1-.512,1.088,11.182,11.182,0,0,0,.816.849c.4.416.817.48.928.608A3.177,3.177,0,0,1,41,122.921" fill="#666"/>
    <path id="패스_1388" data-name="패스 1388" d="M54.808,116.118c.56.161.592.928-.4.8a52.07,52.07,0,0,0-5.651-.063c-1.873.063-3.537.208-4.465.271-.417.032-.577.433-1.137.257a7.118,7.118,0,0,1-1.729-.736c-.208-.16-.16-.4.177-.321a13.211,13.211,0,0,0,2.224.176s7.139-.192,7.667-.24c1.441-.111.865-.288,1.761-.3a5.62,5.62,0,0,1,1.553.16M52.5,113.349c.336.064.592.8-.336.8l-6.579.08c-.912,0-1.537-.321-1.537-1.265V111.4c0-.4-1.04-.561-1.248-.625-.529-.16.144-.432.3-.432a13.487,13.487,0,0,1,1.633.144c.208.032.368.112.352.448V113.3a.439.439,0,0,0,.464.448c2.385.033,3.6-.048,4.29-.08,1.008-.048.88-.336,1.312-.384a4.423,4.423,0,0,1,1.345.064m.352,8.58c.384.048.5.8-.288.815-2.257.033-5.379.1-6.339.081-.784-.032-1.7-.081-1.7-1.6v-1.488c0-.3-1.137-.529-1.329-.544-.608-.065-.208-.416.32-.465a12.767,12.767,0,0,1,1.761.08c.192.032.368.064.336.417v2.688c0,.433.176.449.432.449,1.713.047,3.074-.033,3.778-.033,1.264,0,1.248-.4,1.776-.448a4.323,4.323,0,0,1,1.249.049" fill="#666"/>
    <path id="패스_1389" data-name="패스 1389" d="M66.788,114.678c0,1.681-1.44,2.721-3.169,2.721-1.536,0-3.217-1.1-3.217-2.705a2.839,2.839,0,0,1,2.913-2.737c.064-.08.049-.113.1-.193.08-.143-.08-.288-.144-.336-.24-.16-.111-.416.32-.288a1.711,1.711,0,0,1,.513.193c.176.1.223.223.143.368a2,2,0,0,1-.16.272,2.841,2.841,0,0,1,2.705,2.705m-.864-.016a2.32,2.32,0,0,0-4.594.016,2.149,2.149,0,0,0,2.289,2.033,2.1,2.1,0,0,0,2.305-2.049m5.843,7.683c.4.1.5.832-.288.832l-5.955.016c-1.073-.08-1.456-.432-1.441-1.393l-.015-1.408c-.048-.336-.721-.608-1.185-.721-.448-.111-.16-.431.144-.463a16.972,16.972,0,0,1,1.793.208c.272.032.255.272.255.5v2.337a.431.431,0,0,0,.465.512c2.033.016,2.577-.032,3.282-.08,1.12-.064,1.152-.416,1.488-.448a4.945,4.945,0,0,1,1.457.112m-.673-11.653-.016,6.354c0,1.154.033,3.234-.7,3.234-.272,0-.257-.912-.257-3.553a4.837,4.837,0,0,0-1.328.239c-.223.08-.336.273-.656.177a9.622,9.622,0,0,1-1.248-.545c-.257-.128-.337-.464.144-.351a10.059,10.059,0,0,0,3.088.032v-2.945a5.9,5.9,0,0,0-1.183.143c-.368.128-.337.353-.705.24a8.043,8.043,0,0,1-1.2-.528c-.241-.128-.369-.5.127-.368a9.6,9.6,0,0,0,2.946.032v-2.129a3.315,3.315,0,0,0-1.6-.848c-.32-.08-.3-.208.16-.369a5.4,5.4,0,0,1,2.193.4c.56.192.257.465.24.784" fill="#666"/>
    <path id="패스_1390" data-name="패스 1390" d="M86.135,115.382c.561.1.624.992-.5.88-.849-.08-3.7-.032-5.538.048l-.128,5.026c-.017.912-.225,2.321-.705,2.305-.224,0-.208-.4-.208-.864v-6.418c-1.809.031-2.817.16-3.362.191-.912.048-.736.448-1.408.225a7.891,7.891,0,0,1-1.425-.593c-.271-.16-.208-.48.113-.432a16.911,16.911,0,0,0,3.329.144c1.761-.016,4.21-.144,5.65-.241v-.015a15.691,15.691,0,0,0,.529-2.321,13.81,13.81,0,0,0,.272-2.193c-.721,0-1.825,0-2.945.048-1.105.032-2.177.112-2.545.128-.609.032-1.009.353-1.377.225a7.066,7.066,0,0,1-1.233-.561c-.224-.144-.192-.448.144-.368a11.237,11.237,0,0,0,1.857.144c2.273.032,5.458-.176,5.859-.224.24-.032.256-.113.5-.1l.832.08c.4.048.513.336.048.72-.192.864-.416,1.617-.609,2.241a13.981,13.981,0,0,1-.832,2.161l.9-.032c1.056-.032,1.04-.336,1.665-.336a6.73,6.73,0,0,1,1.12.128" fill="#666"/>
    <path id="패스_1391" data-name="패스 1391" d="M99.911,116.742c.481.081.641.865-.336.865h-2.4c0,5.762-.24,6.131-.736,6.131-.305,0-.257-.945-.257-1.57v-4.209c-1.04.384-2.817.928-3.665,1.153-1.313.336-2.642.608-3.154.7-.24.048-.5.3-.752.223a12.608,12.608,0,0,1-1.7-.687c-.416-.193-.256-.465.128-.385a7.591,7.591,0,0,0,1.441.112,12.061,12.061,0,0,0,2.321-.3v-1.73c-1.313-.08-2.8-.767-2.8-2.56a2.759,2.759,0,0,1,2.833-2.5.841.841,0,0,0,.144-.208c.1-.161,0-.273-.144-.353-.192-.111-.1-.32.3-.271a2.336,2.336,0,0,1,.528.191c.225.1.32.24.145.465-.048.048-.08.143-.161.208a2.616,2.616,0,0,1,2.37,2.449A2.656,2.656,0,0,1,91.733,117v1.649a34.322,34.322,0,0,0,4.449-1.056v-6.867a3.236,3.236,0,0,0-1.6-.849c-.319-.08-.3-.208.16-.368a5.367,5.367,0,0,1,2.194.4c.559.192.256.464.24.784v6.4a2.55,2.55,0,0,0,1.552-.337,2.712,2.712,0,0,1,1.184-.016m-6.738-2.272a1.923,1.923,0,0,0-2.081-1.745c-1.328,0-2.192.784-2.192,1.761a1.955,1.955,0,0,0,2.192,1.856,1.921,1.921,0,0,0,2.081-1.872" fill="#666"/>
    <path id="패스_1392" data-name="패스 1392" d="M117.655,120.024c.576.127.608.976-.384.816a50.713,50.713,0,0,0-5.6-.016,32.8,32.8,0,0,0-4.689.368c-.225.048-.433.289-.7.256a6.432,6.432,0,0,1-2.018-.864c-.256-.144-.191-.385.129-.336a12.939,12.939,0,0,0,2.193.224c1.089-.016,3.025-.065,3.969-.1l.016-2.369c-.048-.288-.672-.528-1.04-.656s-.416-.208.08-.4a9.776,9.776,0,0,1,1.665.241c.576.127.336.5.288.768l-.064,2.368c1.648-.031,2.209-.1,2.913-.143a8.808,8.808,0,0,0,1.745-.336,6.376,6.376,0,0,1,1.5.176m-1.841-4.77c.448.08.528.8-.352.848l-7.411.224c-.912,0-1.488-.416-1.488-1.552l-.017-2.353c0-.433-1.024-.608-1.248-.657-.544-.128-.24-.384.128-.464a10.449,10.449,0,0,1,1.809.128.469.469,0,0,1,.416.528v3.409c0,.321.208.417.433.433a43.719,43.719,0,0,0,4.786-.128c1.215-.128,1.007-.448,1.632-.48a5.422,5.422,0,0,1,1.312.064" fill="#666"/>
    <path id="패스_1393" data-name="패스 1393" d="M129.959,110.724l-.017,4.29c0,1.152-.048,3.233-.784,3.233-.271,0-.208-1.5-.208-1.745a7.965,7.965,0,0,0-1.648.145c-.512.1-.368.288-.832.16a5.291,5.291,0,0,1-.881-.337c-.016,0-.032-.016-.048-.016a14.082,14.082,0,0,1-4.033,1.425c-.609.112-1.169.032-1.169-1.3v-1.744c0-.3-.784-.512-.96-.545-.305-.063-.305-.368.176-.431a4.774,4.774,0,0,1,1.68.175,23.411,23.411,0,0,0,2.753-.127c.193-.017.24-.161.385-.208l.128-2.1c-1.329.031-2.066.111-2.545.159-.721.064-.625.257-.865.225a5.182,5.182,0,0,1-1.3-.5c-.16-.1-.24-.385.176-.3a5.74,5.74,0,0,0,1.169.08,24.777,24.777,0,0,0,2.913-.128c.24-.032.16-.16.559-.144a7.444,7.444,0,0,1,.881.1c.384.048.368.288.032.609l-.545,1.984a1.215,1.215,0,0,1,.5.144c.32.224.1.512-.368.512l-3.746.177-.032,2.049c-.016.256.128.464.4.431a14.164,14.164,0,0,0,5.25-1.793c.225-.127.369.113.161.257-.4.272-.785.512-1.153.737a18.037,18.037,0,0,0,2.978-.145v-2.817a8.356,8.356,0,0,0-1.617.144c-.529.08-.256.24-.785.113a3.222,3.222,0,0,1-.768-.353c-.24-.128-.352-.4.16-.3a12.726,12.726,0,0,0,3.01-.1v-1.985a3.315,3.315,0,0,0-1.6-.848c-.32-.08-.305-.208.159-.369a5.382,5.382,0,0,1,2.194.4c.56.192.256.464.24.784m-.128,8.708c0,.976-.048.96-.048,1.584,0,2.177-.448,2.722-.705,2.722s-.224-.945-.224-1.889V119.32c-2.5.048-4.082.175-4.866.272-.816.1-.511.416-1.28.224a7.855,7.855,0,0,1-1.265-.544c-.288-.16-.288-.481.145-.368a6.951,6.951,0,0,0,1.5.128c1.857,0,4.482-.128,5.234-.193.193-.015.3-.143.464-.192.208.016.417.032.913.1.191.032.432.175.128.688" fill="#666"/>
    <path id="패스_1394" data-name="패스 1394" d="M145,120.1c.576.128.608,1.04-.384.881-.7-.112-3.361-.032-5.7.048a31.157,31.157,0,0,0-4.466.32c-.225.048-.416.24-.641.224a5.882,5.882,0,0,1-2.081-.849c-.256-.143-.176-.351.145-.3a18.446,18.446,0,0,0,2.177.16c1.1.016,2.449-.065,4.017-.128,1.441-.064,2.978-.145,3.682-.192a8.764,8.764,0,0,0,1.744-.336,6.442,6.442,0,0,1,1.5.175m-3.217-5.57a3.216,3.216,0,0,1-3.441,3.153c-1.873,0-3.491-1.04-3.491-3.153,0-1.616,1.457-2.817,3.33-2.977.192-.208.161-.352.161-.352a.631.631,0,0,0-.193-.336c-.128-.144-.24-.4.288-.352a1.532,1.532,0,0,1,.752.383c.128.1.273.193.032.465a1.3,1.3,0,0,0-.16.256,3.063,3.063,0,0,1,2.722,2.913m-.833.048a2.618,2.618,0,1,0-2.608,2.4,2.432,2.432,0,0,0,2.608-2.4" fill="#666"/>
    <path id="패스_1395" data-name="패스 1395" d="M156.053,118.135l-3.249.08v2.673c1.841-.048,2.545-.128,3.137-.144,1.041-.032.944-.3,1.472-.32a6.181,6.181,0,0,1,1.473.144c.256.048.784,1.008-.656.913a57.448,57.448,0,0,0-5.779-.065c-1.824.08-3.681.208-4.465.321-.224.032-.384.271-.609.24a5.09,5.09,0,0,1-1.888-.784c-.256-.177-.161-.513.16-.449a11.992,11.992,0,0,0,1.7.192c1.408.08,3.473.032,4.5-.016v-2.673l-1.984.048a1.087,1.087,0,0,1-1.233-1.12v-1.617c0-.368-.912-.5-1.2-.592-.3-.1-.064-.352.191-.385a6.437,6.437,0,0,1,1.858.177c.3,0,3.777-.064,5.122-.192.256-.033.144-.1.319-.128l.208-2.274a49.8,49.8,0,0,0-5.025.128c-.624.065-.641.368-1.041.257a6.3,6.3,0,0,1-1.376-.608c-.208-.145-.208-.4.143-.321a9.831,9.831,0,0,0,1.505.144,51.71,51.71,0,0,0,5.33-.144c.241-.015.256-.208.593-.175a7.231,7.231,0,0,1,.928.143c.448.1.448.336-.016.641l-.673,2.192a1.17,1.17,0,0,1,.481.128c.256.177.208.5-.368.513l-5.954.176v2.193c0,.3.048.384.32.384a35.205,35.205,0,0,0,3.905-.1c1.073-.112.752-.336,1.313-.416a3.565,3.565,0,0,1,1.1,0c.529.048.609.816-.24.832" fill="#666"/>
    <path id="패스_1396" data-name="패스 1396" d="M176.422,116.359c.561.1.624.96-.5.847-.849-.08-3.361-.031-5.2.048l-.128,4.275c-.016.912-.224,2.32-.7,2.3-.225,0-.208-.4-.208-.864V117.3c-1.809.031-3.186.16-3.73.192-.913.048-.736.448-1.409.224a7.837,7.837,0,0,1-1.424-.593c-.272-.16-.209-.448.112-.4a16.868,16.868,0,0,0,3.33.143c2.48-.015,6.61-.288,7.074-.3,1.057-.032,1.041-.337,1.665-.337a6.764,6.764,0,0,1,1.12.129m-.912-2.8c.208.5-.32.688-.752.513,0,0-3.378-1.025-5.074-1.553a11.048,11.048,0,0,1-2,1.345,11.77,11.77,0,0,1-3.522,1.392c-.16.016-.224-.144.033-.257a20.086,20.086,0,0,0,2.24-1.152,10.044,10.044,0,0,0,3.01-2.545c.192-.32-.609-.784-.865-.912-.432-.208-.016-.5.464-.368a6.491,6.491,0,0,1,1.665.672c.448.3.128.608-.08.881a8.585,8.585,0,0,1-.593.624,7.059,7.059,0,0,0,1.169.352,15.022,15.022,0,0,0,2.625.192c.384.064,1.536.448,1.681.816" fill="#666"/>
    <path id="패스_1397" data-name="패스 1397" d="M190.022,116.294c.753.128.736.977-.3.881-.848-.08-3.521-.049-5.282,0l-.1,2.288c-.144,1.841-.448,2.146-.705,2.146-.176,0-.288-1.169-.288-1.986l.017-2.4c-1.441,0-3.01.144-3.458.176-.768.048-.784.416-1.3.288a9,9,0,0,1-1.713-.656c-.225-.128-.32-.464.064-.416a22.983,22.983,0,0,0,3.313.16c1.169,0,2.577-.08,3.778-.128l3.889-.16c.448-.033.577-.241,1.089-.273a4.348,4.348,0,0,1,.992.08m-.544-1.968c.128.368-.224.543-.769.4l-4.914-1.041a14.556,14.556,0,0,1-2.545,1.024,28.046,28.046,0,0,1-3.185.833c-.208.032-.4-.144-.016-.272a25.3,25.3,0,0,0,4.226-1.616,14.448,14.448,0,0,0,3.6-2.546,37.484,37.484,0,0,0-4.161.192c-1.041.1-.593.305-1.121.176a6.483,6.483,0,0,1-1.408-.624c-.208-.144-.128-.352.224-.256a7.5,7.5,0,0,0,1.585.128c1.84,0,4.162-.1,5.026-.144.271-.016.224-.128.416-.144a10.973,10.973,0,0,1,1.1.112c.289.048.432.24-.224.529a14.271,14.271,0,0,1-2.9,2.272,17.7,17.7,0,0,0,1.9.353,13.847,13.847,0,0,1,1.873,0c.608.175,1.168.3,1.28.624m-1.377,7.939c.385.048.5.8-.288.816-2.257.032-5.058.1-6.019.08-.784-.032-1.7-.08-1.7-1.6v-1.153c0-.3-1.137-.528-1.328-.544-.608-.064-.208-.416.319-.464a12.6,12.6,0,0,1,1.761.08c.192.032.368.063.337.416v2.352c0,.433.176.449.432.449,1.712.047,2.753-.032,3.458-.032,1.263,0,1.248-.4,1.776-.448a4.293,4.293,0,0,1,1.248.048" fill="#666"/>
    <path id="패스_1398" data-name="패스 1398" d="M207.671,115.67c.576.128.608.977-.384.817a44.434,44.434,0,0,0-5.282-.017,32.954,32.954,0,0,0-4.691.368c-.223.049-.431.288-.7.257a6.4,6.4,0,0,1-2.016-.865c-.256-.144-.193-.384.127-.336a12.843,12.843,0,0,0,2.193.225c1.089-.017,3.025-.065,3.97-.1v-2.257l-2.113.017c-.913,0-1.537-.321-1.537-1.265v-1.28c0-.4-1.04-.561-1.248-.625-.528-.16.144-.432.3-.432a13.47,13.47,0,0,1,1.633.144c.208.032.368.112.352.448v2.081a.439.439,0,0,0,.464.448s4.21-.064,4.514-.08c1.009-.048.881-.336,1.312-.384a4.421,4.421,0,0,1,1.345.064c.336.064.592.8-.336.8l-3.714.047-.032,2.225c1.649-.032,1.889-.1,2.594-.143a8.764,8.764,0,0,0,1.744-.336,6.442,6.442,0,0,1,1.505.175m-1.105,6.739c-.015.128.016.384-1.072.32a46.943,46.943,0,0,0-7.123.225c-.513.047-.592.351-1.04.223a6.718,6.718,0,0,1-1.442-.7c-.191-.128-.239-.433.161-.305a8.332,8.332,0,0,0,1.617.161,45.1,45.1,0,0,0,4.866-.161l.368-1.551c.176-.609-.177-.785-.768-1.137-.256-.145-.225-.32.288-.353a4.294,4.294,0,0,1,1.52.465c.273.192.176.367-.015.688l-.817,1.857c1.313.048,1.361-.352,1.9-.337,1.025.032,1.585.113,1.553.609m-1.248-4.53c.624.08.672.737-.032.752-1.217.033-5.282.08-6.515.225-.224.031-.4.224-.624.224a4.225,4.225,0,0,1-1.521-.592c-.239-.145-.208-.4.129-.288a6.381,6.381,0,0,0,1.68.128,39.072,39.072,0,0,0,5.138-.177c.448-.08.3-.319.96-.336a6.162,6.162,0,0,1,.785.064m-5.2,3.682c-.257.4-.625.624-.769,0a4.538,4.538,0,0,0-.272-.9,3.361,3.361,0,0,0-.544-.929c-.352-.448-.1-.512.224-.353A3.39,3.39,0,0,1,200,120.52a1.138,1.138,0,0,1,.112,1.041" fill="#666"/>
    <path id="패스_1399" data-name="패스 1399" d="M221.478,117.078c.577.128.609.977-.383.817a48.889,48.889,0,0,0-5.507-.016,32.172,32.172,0,0,0-4.626.384c-.224.048-.416.24-.64.225a5.911,5.911,0,0,1-2.081-.849c-.256-.144-.176-.353.145-.305a17.817,17.817,0,0,0,2.176.161c1.105.016,2.561-.032,4.209-.1,1.345-.048,2.754-.113,3.458-.16a8.721,8.721,0,0,0,1.744-.336,6.435,6.435,0,0,1,1.5.175m-1.9,5.01c.4.1.5.833-.288.833l-6.051.016c-1.072-.08-1.457-.432-1.44-1.393l-.017-1.168c-.048-.5-.784-.545-1.248-.656-.448-.112-.1-.368.208-.4a12.451,12.451,0,0,1,1.793.08c.272.032.256.271.256.5v2.081a.43.43,0,0,0,.464.512c.753.016,2.674-.016,3.378-.064,1.12-.064,1.152-.417,1.488-.448a4.979,4.979,0,0,1,1.457.111m-4.066-11.028a2.675,2.675,0,0,1,2.673,2.5c0,1.681-1.569,2.562-3.153,2.562-1.537,0-3.185-.881-3.185-2.562,0-1.425,1.264-2.417,2.865-2.528a.765.765,0,0,0,.1-.145c.08-.112.112-.176,0-.288-.208-.208-.048-.336.255-.256a1.767,1.767,0,0,1,.433.208c.224.144.192.256.128.352Zm1.777,2.5a2.149,2.149,0,0,0-2.257-1.921,2.1,2.1,0,0,0-2.3,1.921,2.171,2.171,0,0,0,2.3,1.969,2.092,2.092,0,0,0,2.257-1.969" fill="#666"/>
    <path id="패스_1400" data-name="패스 1400" d="M234.964,117.607c.048.288-.256.624-.752.065l-2.449-2.369a16.328,16.328,0,0,1-1.936,1.585,19.528,19.528,0,0,1-3.266,1.952c-.224.1-.384-.08-.08-.256a21.565,21.565,0,0,0,2.817-2.017,13.652,13.652,0,0,0,3.457-4.034c-1.536.048-2.24.1-2.736.145-.625.063-.689.336-1.137.175a8.55,8.55,0,0,1-1.217-.576c-.192-.112-.192-.336.145-.288a13.9,13.9,0,0,0,1.6.112c1.423.016,2.96-.032,3.2-.047.175-.017.256-.145.559-.145a8.341,8.341,0,0,1,.881.08c.32.048.4.288-.176.689a14.1,14.1,0,0,1-1.808,2.337c.431.368.735.576.975.751.545.385.769.256,1.074.449a2.313,2.313,0,0,1,.847,1.392m3.762,4.514c.384.048.5.864-.288.881-2.257.032-4.946.1-5.906.08-.785-.032-1.7-.145-1.7-1.665v-1.2c0-.305-1.135-.529-1.328-.545-.608-.064-.208-.416.321-.464a12.754,12.754,0,0,1,1.76.08c.192.032.368.064.336.416v2.4c0,.432.176.449.433.449,1.712.047,2.64-.033,3.345-.033,1.264,0,1.249-.4,1.777-.448a4.293,4.293,0,0,1,1.248.048m-.96-11.46-.017,5.874c0,1.937-.191,3.73-.719,3.73-.273,0-.273-.769-.273-1.089v-8.467a3.03,3.03,0,0,0-1.377-.864c-.288-.1-.1-.321.3-.353a5.471,5.471,0,0,1,1.856.416c.416.145.225.433.225.753" fill="#666"/>
    <path id="패스_1401" data-name="패스 1401" d="M252.79,120.6c.608.1.768.912-.416.864-1.073-.047-3.314-.143-5.443-.063-2.208.08-4.466.271-4.674.319-.319.065-.559.321-.847.24a9.548,9.548,0,0,1-1.841-.7c-.273-.16-.145-.431.24-.336a22.9,22.9,0,0,0,4.209.081l-.048-1.233c-.08-.48-.912-.688-1.3-.816-.192-.065-.288-.256.272-.368a7.635,7.635,0,0,1,1.489.208c.64.127.527.511.464.768l-.065,1.425,3.314-.049.225-1.792a1.845,1.845,0,0,0-.945-.688c-.192-.08-.257-.241.224-.336a6.873,6.873,0,0,1,1.36.3c.561.161.385.624.321.977l-.384,1.456a7.351,7.351,0,0,0,1.12-.063,10.322,10.322,0,0,0,1.377-.305,6.559,6.559,0,0,1,1.344.112m-2.353-3.745c.528.048.608.832-.24.832l-6.4.16c-.416-.015-1.249-.144-1.232-1.12v-1.361c-.017-.368-.912-.5-1.2-.592-.3-.1-.065-.353.191-.384a6.4,6.4,0,0,1,1.858.176c.3,0,3.937-.065,5.281-.192.257-.033.144-.1.32-.128l.208-2.065c-3.264-.016-4.513.064-5.185.128-.624.064-.641.368-1.041.256a6.3,6.3,0,0,1-1.376-.608c-.208-.144-.208-.4.143-.321a9.923,9.923,0,0,0,1.505.145c1.793.063,4.482-.048,5.49-.145.241-.015.256-.208.592-.176a7.329,7.329,0,0,1,.929.145c.448.1.448.336-.016.64l-.673,1.985a1.143,1.143,0,0,1,.481.128c.256.176.208.512-.368.512l-6.115.176v1.937c0,.3.048.368.321.384,2.144.016,3.489-.033,4.113-.1,1.072-.112.752-.336,1.313-.416a3.565,3.565,0,0,1,1.1,0" fill="#666"/>
    <path id="패스_1402" data-name="패스 1402" d="M266.662,116.295c.56.16.593.929-.4.8a46.939,46.939,0,0,0-5.425-.065c-1.873.065-3.7.208-4.626.273-.416.031-.577.431-1.137.256a7.087,7.087,0,0,1-1.729-.737c-.208-.16-.16-.4.176-.32a13.358,13.358,0,0,0,2.226.176s7.074-.192,7.6-.239a10.3,10.3,0,0,0,1.761-.305,4.6,4.6,0,0,1,1.553.16m-2.609-1.921c.577.017.72.8-.128.8l-5.874.128c-.384,0-1.313-.048-1.313-1.057v-.784c-.016-.384-.656-.5-.832-.544-.416-.112-.16-.353.128-.368a4.644,4.644,0,0,1,1.6.208c.464.015,3.585-.048,4.882-.112.256-.016.193-.113.368-.145l.145-1.552c-2.626,0-3.922.08-4.61.144-.993.1-.657.305-1.089.24a4.99,4.99,0,0,1-1.441-.544c-.223-.144-.24-.416.1-.352a13.312,13.312,0,0,0,1.889.144c1.664.031,3.761-.1,4.706-.177.239-.015.191-.16.511-.128a9.062,9.062,0,0,1,.913.1c.464.079.3.3-.032.592l-.512,1.553a.908.908,0,0,1,.4.063c.3.145.288.528-.336.528l-5.763.08v1.3c0,.353.128.336.336.384,2.337.017,3.234-.063,3.81-.1.864-.047.576-.272,1.1-.368a3.377,3.377,0,0,1,1.041-.032m.56,8c.513.145.561.8-.271.8h-6.164a1.208,1.208,0,0,1-1.376-1.345v-.608c-.016-.16-.752-.352-.9-.4-.288-.1-.225-.288.111-.385a5.088,5.088,0,0,1,1.73.177,34.917,34.917,0,0,0,4.737-.1c.256-.016.225-.1.368-.144l.16-1.393c-2.833.048-4.529.176-4.9.192-.481.144-.225.305-.833.144a5.223,5.223,0,0,1-1.04-.464c-.24-.144-.353-.448.112-.352a9.7,9.7,0,0,0,1.553.144c1.728.048,4.081-.1,4.625-.128.368-.032.32-.128.593-.128a4.065,4.065,0,0,1,.864.064c.432.064.256.4-.016.576l-.528,1.313a1.966,1.966,0,0,1,.576.128c.384.208.24.528-.24.528-.32,0-5.522.112-5.971.128v1.152a.367.367,0,0,0,.368.416s3.41,0,4.115-.048c.319-.015.591-.288.912-.351a3.962,3.962,0,0,1,1.408.079" fill="#666"/>
    <path id="패스_1403" data-name="패스 1403" d="M277.668,114.326a3.125,3.125,0,0,1-6.179,0,2.741,2.741,0,0,1,2.8-2.625c.064-.08.048-.112.1-.192.08-.144-.08-.288-.144-.336-.24-.16-.112-.416.32-.288a1.665,1.665,0,0,1,.512.192c.177.1.225.224.144.368a1.94,1.94,0,0,1-.16.272,2.693,2.693,0,0,1,2.61,2.609m-.865,0a2.142,2.142,0,0,0-2.193-1.953,2.1,2.1,0,0,0-2.209,1.953,2.078,2.078,0,0,0,2.193,1.921,2.024,2.024,0,0,0,2.209-1.921m4.674,4.882c0,.976-.048,1.28-.048,1.9,0,2.177-.448,2.721-.7,2.721s-.223-.944-.223-1.889V119.1a46.776,46.776,0,0,0-4.706.272c-.817.1-.512.416-1.281.225a7.815,7.815,0,0,1-1.264-.545c-.288-.16-.288-.48.143-.368a6.987,6.987,0,0,0,1.505.127c1.857,0,4.322-.127,5.074-.191.193-.017.3-.144.464-.192.208.015.416.032.913.095.192.033.432.177.128.689m2.8-3.089c.48.08.641.864-.336.864h-2.434c-.047.368-.239,1.025-.687,1.025-.24,0-.208-.945-.208-1.537v-5.619a3.8,3.8,0,0,0-1.6-.879c-.32-.081-.224-.257.16-.369a5.7,5.7,0,0,1,2.193.4c.56.191.256.464.24.784v2.448a2.361,2.361,0,0,0,1.456-.336,2.7,2.7,0,0,1,1.185-.015c.48.08.64.864-.336.864h-2.3c0,1.312-.016,1.648-.048,2.721a3.105,3.105,0,0,0,1.536-.336,2.687,2.687,0,0,1,1.185-.016" fill="#666"/>
    <path id="패스_1404" data-name="패스 1404" d="M298.07,116.487c.256.047.785.96-.656.864a47.442,47.442,0,0,0-5.219.032c-1.824.08-4.225.176-5.009.288-.224.031-.384.208-.609.176a5.073,5.073,0,0,1-1.888-.784c-.256-.176-.161-.4.16-.336a12,12,0,0,0,1.7.191c1.408.08,3.81-.031,4.834-.08V115.4c-.032-.336-.656-.481-1.057-.576-.32-.081-.224-.224.128-.352a8.989,8.989,0,0,1,1.633.111c.544.08.32.385.32.753l-.064,1.473c1.841-.049,2.193-.129,2.785-.145,1.04-.032.944-.3,1.473-.32a6.167,6.167,0,0,1,1.472.145m-.816-2.61c.208.5-.32.689-.752.513,0,0-4.1-1.585-4.963-1.953a12.59,12.59,0,0,1-2.448,1.713,9.056,9.056,0,0,1-3.042,1.248c-.159.016-.239-.176.017-.288a19.732,19.732,0,0,0,1.76-.945,12,12,0,0,0,3.442-2.913c.223-.3-.721-.88-.977-1.009-.432-.208-.015-.5.464-.368a7.635,7.635,0,0,1,1.793.737c.448.3.1.592-.112.864-.16.209-.529.577-.529.577a14.333,14.333,0,0,0,1.745.656c1.3.352,1.441.08,2.082.288.368.128,1.376.512,1.52.88m-1.873,5.843c-.032,1.008-.048,1.232-.1,1.856-.192,2.082-.528,2.242-.816,2.225-.208-.016-.176-.416-.176-.608,0-.688-.016-2.849,0-3.442-2.657,0-4.146.08-4.9.16-1.04.128-.752.369-1.281.273a5.232,5.232,0,0,1-1.408-.672c-.209-.129-.209-.4.208-.305a22.914,22.914,0,0,0,3.841.145,25.572,25.572,0,0,0,3.2-.193c.353-.112.177-.208,1.313,0,.24.048.528.1.112.561" fill="#666"/>
    <path id="패스_1405" data-name="패스 1405" d="M311.734,119.864c.559.16.592.929-.4.8a48.2,48.2,0,0,0-5.49-.065c-1.873.065-3.6.208-4.53.273-.416.032-.576.431-1.137.256a7.074,7.074,0,0,1-1.728-.737c-.208-.16-.161-.4.176-.32a13.288,13.288,0,0,0,2.225.177s7.043-.193,7.571-.24a10.318,10.318,0,0,0,1.761-.305,4.61,4.61,0,0,1,1.553.16m-2.178-4.081c.385.063.561.768-.16.8-2.128.112-6.643.224-6.643.224-.624-.016-1.44-.209-1.44-1.649l.016-2.337c-.048-.384-1.041-.656-1.264-.72-.465-.144-.048-.432.223-.432a5.457,5.457,0,0,1,2.049.336s4.1-.032,4.739-.192c.368-.1.56-.352.992-.416a5.272,5.272,0,0,1,1.2.032c.448.047.641.833-.288.848l-6.563.193-.015,3.441c0,.191.143.416.511.416a27.666,27.666,0,0,0,4.1-.145c.9-.128.816-.3,1.2-.4a3.77,3.77,0,0,1,1.344,0" fill="#666"/>
    <path id="패스_1406" data-name="패스 1406" d="M324.053,110.692l-.016,3.458c0,1.937-.256,3.009-.737,3.009-.271,0-.256-.769-.256-1.088V115.4a26.346,26.346,0,0,1-7.378,2.385c-.609.112-1.265.017-1.265-1.312v-1.649c0-.3-.784-.512-.96-.544-.305-.064-.305-.368.176-.432a4.793,4.793,0,0,1,1.68.176,26.386,26.386,0,0,0,3.01-.1c.192-.016.239-.161.384-.208l.128-1.873c-1.328.032-2.321.08-2.8.128-.721.064-.624.256-.864.224a5.134,5.134,0,0,1-1.3-.5c-.16-.1-.24-.384.176-.3a5.821,5.821,0,0,0,1.169.079c1.232,0,2.64-.015,3.169-.1.24-.033.16-.16.56-.144a7.034,7.034,0,0,1,.88.1c.385.048.368.288.032.608L319.3,113.7a1.181,1.181,0,0,1,.5.144c.321.224.1.512-.368.512l-4,.144v2.049c-.015.256.145.337.416.3a25.421,25.421,0,0,0,7.2-1.808v-4.306a3.03,3.03,0,0,0-1.375-.865c-.289-.1-.1-.32.3-.352a5.482,5.482,0,0,1,1.857.416c.417.144.224.433.224.752m-.112,7.539c0,1.713-.1,4.067-.1,4.067-.064.736-.32,1.343-.673,1.343-.16,0-.191-.288-.191-.992l-4.738.176c-.033.4-.256.9-.657.913-.192,0-.208-.465-.208-.816v-3.65c0-.352-.912-.625-1.072-.656-.64-.128-.128-.416.08-.433a11.1,11.1,0,0,1,1.6.08c.448.048.368.305.368.593v.816l4.609-.144v-.96c-.015-.16-.511-.56-.944-.688-.544-.16-.32-.368.048-.433a6.825,6.825,0,0,1,1.649.305c.336.1.224.208.224.479m-.96,3.97v-2.225l-4.643.161-.063,2.24Z" fill="#666"/>
    <path id="패스_1407" data-name="패스 1407" d="M337.493,110.676l-.032,9.06c0,1.84-.176,3.954-.7,3.954-.273,0-.273-.769-.273-1.089v-5.618a25.143,25.143,0,0,1-6.946,2.32c-.784.144-1.488.017-1.488-1.984v-3.89c-.161-.288-1.074-.576-1.282-.624-.591-.145-.063-.448.193-.448a10.8,10.8,0,0,1,1.793.192c.416.08.368.24.368.528v4.8c0,.368.1.528.592.464a22.657,22.657,0,0,0,6.77-1.761v-5.858a3.027,3.027,0,0,0-1.376-.864c-.288-.1-.1-.321.3-.353a5.449,5.449,0,0,1,1.857.417c.416.144.224.432.224.752" fill="#666"/>
    <path id="패스_1408" data-name="패스 1408" d="M353.061,116.119c.48.08.641.864-.336.864h-2.4c0,5.762-.24,6.851-.737,6.851-.3,0-.255-.944-.255-1.569v-5.01a25.433,25.433,0,0,1-6.963,2.273c-.8.112-1.3-.288-1.3-1.776v-4.13c-.065-.353-.833-.641-1.217-.736-.528-.128-.032-.449.208-.464a5.7,5.7,0,0,1,2.017.256s1.777-.048,2.384-.113c.576-.064.673-.4,1.217-.464a7.83,7.83,0,0,1,1.1-.016c.624.016.64.816-.08.833l-4.579.223v5.123c0,.24.065.352.353.32a21.844,21.844,0,0,0,6.851-1.761v-6.034a3.233,3.233,0,0,0-1.6-.849c-.32-.08-.3-.208.16-.368a5.361,5.361,0,0,1,2.193.4c.56.191.256.463.24.784v5.714a2.555,2.555,0,0,0,1.552-.336,2.687,2.687,0,0,1,1.185-.016" fill="#666"/>
    <path id="패스_1409" data-name="패스 1409" d="M354.576,123.049a.891.891,0,0,1-.88-.9.867.867,0,0,1,.88-.88.878.878,0,0,1,.881.88.9.9,0,0,1-.881.9" fill="#666"/>
  </g>
</svg>
