<svg xmlns="http://www.w3.org/2000/svg" xmlns:xlink="http://www.w3.org/1999/xlink" width="80" height="82" viewBox="0 0 80 82">
  <defs>
    <filter id="타원_82" x="0" y="0" width="80" height="82" filterUnits="userSpaceOnUse">
      <feOffset dy="3" input="SourceAlpha"/>
      <feGaussianBlur stdDeviation="3" result="blur"/>
      <feFlood flood-opacity="0.161"/>
      <feComposite operator="in" in2="blur"/>
      <feComposite in="SourceGraphic"/>
    </filter>
  </defs>
  <g id="그룹_1604" data-name="그룹 1604" transform="translate(-252 -757)">
    <g transform="matrix(1, 0, 0, 1, 252, 757)" filter="url(#타원_82)">
      <ellipse id="타원_82-2" data-name="타원 82" cx="31" cy="32" rx="31" ry="32" transform="translate(9 6)" fill="#2066c2"/>
    </g>
    <text id="위치보기" transform="translate(292 811)" fill="#fff" font-size="8" font-family="NotoSansCJKkr-Regular, Noto Sans CJK KR" letter-spacing="-0.03em"><tspan x="-14.36" y="0">위치보기</tspan></text>
    <path id="패스_1148" data-name="패스 1148" d="M489.336,273.155s6.842-6.772,8.127-13.967a7.2,7.2,0,0,0,.249-1.854c0-4.373-3.914-7.918-8.741-7.918s-8.743,3.545-8.743,7.918a7.226,7.226,0,0,0,.48,2.568C481.46,262.525,483.543,267.268,489.336,273.155Zm-.366-20.736a4.939,4.939,0,1,1-5.427,4.915A5.188,5.188,0,0,1,488.97,252.419Z" transform="translate(-196.535 525.162)" fill="#fff"/>
  </g>
</svg>
