<svg xmlns="http://www.w3.org/2000/svg" xmlns:xlink="http://www.w3.org/1999/xlink" width="80" height="82" viewBox="0 0 80 82">
  <defs>
    <filter id="타원_83" x="0" y="0" width="80" height="82" filterUnits="userSpaceOnUse">
      <feOffset dy="3" input="SourceAlpha"/>
      <feGaussianBlur stdDeviation="3" result="blur"/>
      <feFlood flood-opacity="0.161"/>
      <feComposite operator="in" in2="blur"/>
      <feComposite in="SourceGraphic"/>
    </filter>
  </defs>
  <g id="그룹_1603" data-name="그룹 1603" transform="translate(-181 -757)">
    <g transform="matrix(1, 0, 0, 1, 181, 757)" filter="url(#타원_83)">
      <ellipse id="타원_83-2" data-name="타원 83" cx="31" cy="32" rx="31" ry="32" transform="translate(9 6)" fill="#2066c2"/>
    </g>
    <text id="공식블로그" transform="translate(220 811)" fill="#fff" font-size="8" font-family="NotoSansCJKkr-Regular, Noto Sans CJK KR" letter-spacing="-0.03em"><tspan x="-17.92" y="0">공식블로그</tspan></text>
    <path id="패스_1144" data-name="패스 1144" d="M5981.634-174.049a1.113,1.113,0,0,0-1.113,1.113,1.112,1.112,0,0,0,1.113,1.112,1.111,1.111,0,0,0,1.111-1.112A1.112,1.112,0,0,0,5981.634-174.049Z" transform="translate(-5758.893 959.799)" fill="#fff"/>
    <path id="패스_1145" data-name="패스 1145" d="M5995.77-174.049a1.112,1.112,0,0,0-1.112,1.113,1.112,1.112,0,0,0,1.112,1.112,1.112,1.112,0,0,0,1.112-1.112A1.113,1.113,0,0,0,5995.77-174.049Z" transform="translate(-5766.361 959.799)" fill="#fff"/>
    <path id="패스_1146" data-name="패스 1146" d="M5973.165-193.916h-19.343a4.473,4.473,0,0,0-4.466,4.482V-178.8a4.472,4.472,0,0,0,4.466,4.481h6.661l2.275,3.7a.838.838,0,0,0,.074.105.765.765,0,0,0,.661.383.763.763,0,0,0,.658-.379.476.476,0,0,0,.076-.11l2.275-3.7h6.664a4.473,4.473,0,0,0,4.465-4.481v-10.631A4.473,4.473,0,0,0,5973.165-193.916Zm-17.53,13.118a1.66,1.66,0,0,1-1.454-.744v.565h-1.749v-7.212h1.731v2.745a2.3,2.3,0,0,1,1.472-.682c2.35,0,2.439,2.637,2.439,2.637A2.55,2.55,0,0,1,5955.635-180.8Zm5.454-4.844v4.664h-1.668v-4.269c0-1.471-.791-1.435-.791-1.435v-1.669C5961.16-188.351,5961.089-185.642,5961.089-185.642Zm7,2.209c0,2.63-2.926,2.634-2.926,2.634a2.585,2.585,0,0,1-2.86-2.634c0-2.671,2.86-2.672,2.86-2.672A2.63,2.63,0,0,1,5968.094-183.432Zm6.458,2.387a2.514,2.514,0,0,1-2.529,2.7h-.672v-1.534h.416a1.1,1.1,0,0,0,1.1-1.264v-.4a1.98,1.98,0,0,1-1.52.659c-2.409,0-2.382-2.567-2.382-2.567a2.388,2.388,0,0,1,2.449-2.654,1.893,1.893,0,0,1,1.453.66v-.484h1.682Z" transform="translate(-5742.428 970.295)" fill="#fff"/>
    <path id="패스_1147" data-name="패스 1147" d="M5960.613-174.049a1.113,1.113,0,0,0-1.113,1.113,1.113,1.113,0,0,0,1.113,1.112,1.112,1.112,0,0,0,1.112-1.112A1.112,1.112,0,0,0,5960.613-174.049Z" transform="translate(-5747.787 959.799)" fill="#fff"/>
  </g>
</svg>
