<svg xmlns="http://www.w3.org/2000/svg" xmlns:xlink="http://www.w3.org/1999/xlink" width="80" height="82" viewBox="0 0 80 82">
  <defs>
    <filter id="타원_84" x="0" y="0" width="80" height="82" filterUnits="userSpaceOnUse">
      <feOffset dy="3" input="SourceAlpha"/>
      <feGaussianBlur stdDeviation="3" result="blur"/>
      <feFlood flood-opacity="0.161"/>
      <feComposite operator="in" in2="blur"/>
      <feComposite in="SourceGraphic"/>
    </filter>
  </defs>
  <g id="그룹_1602" data-name="그룹 1602" transform="translate(-111 -757)">
    <g transform="matrix(1, 0, 0, 1, 111, 757)" filter="url(#타원_84)">
      <ellipse id="타원_84-2" data-name="타원 84" cx="31" cy="32" rx="31" ry="32" transform="translate(9 6)" fill="#2066c2"/>
    </g>
    <text id="카톡상담" transform="translate(151 811)" fill="#fff" font-size="8" font-family="NotoSansCJKkr-Regular, Noto Sans CJK KR" letter-spacing="-0.03em"><tspan x="-14.36" y="0">카톡상담</tspan></text>
    <path id="패스_497" data-name="패스 497" d="M806.449,730.959l-.857-2.68-.928,2.68Z" transform="translate(-657.339 56.498)" fill="#fff"/>
    <path id="패스_498" data-name="패스 498" d="M798.293,709.8c-7.833,0-14.181,4.932-14.181,11.015,0,3.959,2.691,7.43,6.728,9.372-.3,1.087-1.074,3.94-1.23,4.551-.191.758.283.748.595.544.244-.16,3.886-2.592,5.457-3.642a18.209,18.209,0,0,0,2.632.189c7.832,0,14.18-4.931,14.18-11.014S806.125,709.8,798.293,709.8ZM803.681,718c-.009-.305.391-.464.781-.464.365,0,.72.138.727.423.022.75,0,2.109,0,2.109s2.2-2.162,2.511-2.468,1.323.673,1,.989c-.553.54-1.957,2.033-1.957,2.033l2.068,2.676c.393.511-.845,1.433-1.238.922l-1.949-2.611-.446.351s0,1.29,0,1.969c0,.585-1.517.586-1.517,0C803.663,723.563,803.7,718.556,803.681,718Zm-7.193-.026c.261.549,1.7,4.427,2.113,5.5.291.755-1.113,1.276-1.4.523-.359-.93-.266-.972-.266-.972h-2.705l-.294,1.017c-.316.713-1.675.132-1.361-.58.437-.986,1.75-4.7,2.114-5.489a.858.858,0,0,1,.828-.436A1.129,1.129,0,0,1,796.487,717.977Zm-3.647-.674a.769.769,0,0,1,0,1.529,7.737,7.737,0,0,0-1.471.106l-.006,4.862c0,.677-1.534.642-1.536-.035.008-.929,0-4.968,0-4.968h-1.479c-.865,0-.868-1.493,0-1.493Zm6.345,6.233s0-4.07-.007-5.333a.814.814,0,0,1,1.6,0c0,.915,0,4.68,0,4.68s1.267.007,1.962.007.7,1.452,0,1.452-2.261.007-2.967.007S799.186,723.536,799.186,723.536Z" transform="translate(-647.36 65.674)" fill="#fff"/>
  </g>
</svg>
